G04*
G04 #@! TF.GenerationSoftware,Altium Limited,Altium Designer,21.1.1 (26)*
G04*
G04 Layer_Physical_Order=3*
G04 Layer_Color=128*
%FSLAX25Y25*%
%MOIN*%
G70*
G04*
G04 #@! TF.SameCoordinates,7EEBE310-2877-491A-A4CC-80A9302AE9BF*
G04*
G04*
G04 #@! TF.FilePolarity,Negative*
G04*
G01*
G75*
%ADD12C,0.01000*%
%ADD102C,0.04000*%
%ADD104C,0.05543*%
%ADD105C,0.04559*%
%ADD106O,0.06724X0.04362*%
%ADD107O,0.08693X0.04362*%
%ADD108C,0.02800*%
%ADD109C,0.17748*%
D12*
X1469000Y1264021D02*
Y1297000D01*
Y1264021D02*
X1486021Y1247000D01*
X1478500Y1269000D02*
X1489000Y1258500D01*
X1478500Y1269000D02*
Y1273000D01*
Y1297000D01*
X1523500Y1258500D02*
X1538500Y1273500D01*
Y1335500D01*
X1535500Y1338500D02*
X1538500Y1335500D01*
X1530500Y1338500D02*
X1535500D01*
X1527500Y1335500D02*
X1530500Y1338500D01*
X1527500Y1296000D02*
Y1335500D01*
X1512000Y1280500D02*
X1527500Y1296000D01*
X1486000Y1280500D02*
X1512000D01*
X1478500Y1273000D02*
X1486000Y1280500D01*
X1478500Y1272000D02*
Y1273000D01*
X1470500Y1298500D02*
X1477000D01*
X1529500Y1252500D02*
X1544018Y1237982D01*
X1523500Y1258500D02*
X1529500Y1252500D01*
X1489000Y1258500D02*
X1523500D01*
X1477000Y1298500D02*
X1478500Y1297000D01*
X1541500Y1217000D02*
X1544018Y1219518D01*
X1532000Y1217000D02*
X1541500D01*
X1527500Y1221500D02*
X1532000Y1217000D01*
X1527500Y1221500D02*
Y1236500D01*
X1520500Y1243500D02*
X1527500Y1236500D01*
X1517000Y1247000D02*
X1520500Y1243500D01*
X1486021Y1247000D02*
X1517000D01*
X1469000Y1297000D02*
X1470500Y1298500D01*
X1544018Y1219518D02*
Y1237982D01*
D102*
X1280226Y1348343D02*
G03*
X1270383Y1338500I0J-9843D01*
G01*
X1563690D02*
G03*
X1553848Y1348343I-9843J0D01*
G01*
Y1170114D02*
G03*
X1563690Y1179957I0J9843D01*
G01*
X1270383D02*
G03*
X1280226Y1170114I9843J0D01*
G01*
X1270383Y1179957D02*
Y1338500D01*
X1280226Y1348343D02*
X1553848D01*
X1563690Y1179957D02*
Y1338500D01*
X1280226Y1170114D02*
X1553848D01*
D104*
X1291883Y1315228D02*
D03*
Y1305228D02*
D03*
Y1295228D02*
D03*
X1522383Y1185228D02*
D03*
Y1175228D02*
D03*
X1512383Y1185228D02*
D03*
Y1175228D02*
D03*
X1502383Y1185228D02*
D03*
Y1175228D02*
D03*
X1492383Y1185228D02*
D03*
Y1175228D02*
D03*
X1482383Y1185228D02*
D03*
Y1175228D02*
D03*
X1472383Y1185228D02*
D03*
Y1175228D02*
D03*
X1462383Y1185228D02*
D03*
Y1175228D02*
D03*
X1452383Y1185228D02*
D03*
Y1175228D02*
D03*
X1442383Y1185228D02*
D03*
Y1175228D02*
D03*
X1432383Y1185228D02*
D03*
Y1175228D02*
D03*
X1422383Y1185228D02*
D03*
Y1175228D02*
D03*
X1412383Y1185228D02*
D03*
Y1175228D02*
D03*
X1402383Y1185228D02*
D03*
Y1175228D02*
D03*
X1392383Y1185228D02*
D03*
Y1175228D02*
D03*
X1382383Y1185228D02*
D03*
Y1175228D02*
D03*
X1372383Y1185228D02*
D03*
Y1175228D02*
D03*
X1362383Y1185228D02*
D03*
Y1175228D02*
D03*
X1352383Y1185228D02*
D03*
Y1175228D02*
D03*
X1342383Y1185228D02*
D03*
Y1175228D02*
D03*
X1532383Y1343228D02*
D03*
X1522383D02*
D03*
Y1333228D02*
D03*
X1512383Y1343228D02*
D03*
Y1333228D02*
D03*
X1502383Y1343228D02*
D03*
Y1333228D02*
D03*
X1492383Y1343228D02*
D03*
Y1333228D02*
D03*
X1482383Y1343228D02*
D03*
Y1333228D02*
D03*
X1472383Y1343228D02*
D03*
Y1333228D02*
D03*
X1462383Y1343228D02*
D03*
Y1333228D02*
D03*
X1452383Y1343228D02*
D03*
Y1333228D02*
D03*
X1442383Y1343228D02*
D03*
Y1333228D02*
D03*
X1432383Y1343228D02*
D03*
Y1333228D02*
D03*
X1422383Y1343228D02*
D03*
Y1333228D02*
D03*
X1412383Y1343228D02*
D03*
Y1333228D02*
D03*
X1402383Y1343228D02*
D03*
Y1333228D02*
D03*
X1392383Y1343228D02*
D03*
Y1333228D02*
D03*
X1382383Y1343228D02*
D03*
Y1333228D02*
D03*
X1372383Y1343228D02*
D03*
Y1333228D02*
D03*
X1362383Y1343228D02*
D03*
Y1333228D02*
D03*
X1352383Y1343228D02*
D03*
Y1333228D02*
D03*
X1342383Y1343228D02*
D03*
Y1333228D02*
D03*
X1302383Y1185228D02*
D03*
Y1175228D02*
D03*
X1312383D02*
D03*
Y1185228D02*
D03*
X1322383Y1175228D02*
D03*
Y1185228D02*
D03*
X1332383Y1175228D02*
D03*
Y1185228D02*
D03*
Y1333228D02*
D03*
Y1343228D02*
D03*
X1322383D02*
D03*
Y1333228D02*
D03*
X1312383Y1343228D02*
D03*
Y1333228D02*
D03*
X1302383Y1343228D02*
D03*
Y1333228D02*
D03*
D105*
X1539009Y1242369D02*
D03*
Y1219613D02*
D03*
X1539068Y1298836D02*
D03*
Y1276080D02*
D03*
D106*
X1553379Y1247999D02*
D03*
Y1213983D02*
D03*
X1553438Y1304466D02*
D03*
Y1270450D02*
D03*
D107*
X1536923Y1247999D02*
D03*
Y1213983D02*
D03*
X1536982Y1304466D02*
D03*
Y1270450D02*
D03*
D108*
X1474458Y1326042D02*
D03*
X1490458Y1325542D02*
D03*
X1411458Y1326542D02*
D03*
X1515557Y1249129D02*
D03*
X1516000Y1236500D02*
D03*
X1448000Y1194500D02*
D03*
X1406500Y1293000D02*
D03*
X1488500Y1198000D02*
D03*
X1306000Y1200000D02*
D03*
X1326500Y1326000D02*
D03*
X1395000Y1314000D02*
D03*
X1347000Y1232500D02*
D03*
X1553059Y1279967D02*
D03*
Y1289967D02*
D03*
Y1299967D02*
D03*
X1558059Y1294967D02*
D03*
Y1284967D02*
D03*
Y1274967D02*
D03*
X1558000Y1218500D02*
D03*
Y1228500D02*
D03*
Y1238500D02*
D03*
X1553000Y1243500D02*
D03*
Y1233500D02*
D03*
Y1223500D02*
D03*
X1548000Y1238500D02*
D03*
Y1228500D02*
D03*
Y1218500D02*
D03*
X1438500Y1311000D02*
D03*
X1458500D02*
D03*
X1468500D02*
D03*
X1488500D02*
D03*
X1440000Y1283000D02*
D03*
X1297883Y1239478D02*
D03*
X1433000Y1276000D02*
D03*
X1435500D02*
D03*
X1511000Y1266000D02*
D03*
X1490000Y1231000D02*
D03*
X1499907Y1270569D02*
D03*
X1510371Y1275260D02*
D03*
X1446383Y1276728D02*
D03*
X1482383D02*
D03*
X1372000Y1212500D02*
D03*
X1369500D02*
D03*
X1368500Y1249500D02*
D03*
X1457500Y1287000D02*
D03*
X1460000D02*
D03*
X1539000Y1261000D02*
D03*
X1520000Y1265500D02*
D03*
X1450158Y1246496D02*
D03*
X1450473Y1232133D02*
D03*
X1452500Y1241500D02*
D03*
X1448000D02*
D03*
X1452500Y1237000D02*
D03*
X1448000D02*
D03*
X1457000Y1239500D02*
D03*
Y1234000D02*
D03*
X1423000Y1231500D02*
D03*
Y1234500D02*
D03*
X1450000Y1258500D02*
D03*
X1314000Y1233500D02*
D03*
X1278500Y1254500D02*
D03*
Y1258000D02*
D03*
Y1237500D02*
D03*
X1382000Y1284000D02*
D03*
X1386000Y1258000D02*
D03*
X1372000Y1260500D02*
D03*
Y1267500D02*
D03*
X1386000Y1251000D02*
D03*
X1379000D02*
D03*
X1406000Y1227500D02*
D03*
Y1225000D02*
D03*
X1417000Y1224500D02*
D03*
Y1222000D02*
D03*
X1537000Y1266500D02*
D03*
X1534500D02*
D03*
X1530000Y1307000D02*
D03*
X1525000Y1248500D02*
D03*
Y1246000D02*
D03*
Y1243500D02*
D03*
X1527500Y1248500D02*
D03*
X1530000D02*
D03*
X1527500Y1246000D02*
D03*
Y1215500D02*
D03*
X1525000Y1218000D02*
D03*
Y1215500D02*
D03*
X1530000Y1213000D02*
D03*
X1527500D02*
D03*
X1525000D02*
D03*
X1488000Y1224500D02*
D03*
X1501000Y1222000D02*
D03*
X1473000Y1245000D02*
D03*
X1308500Y1294000D02*
D03*
X1324500Y1292000D02*
D03*
X1328000D02*
D03*
X1324500Y1295500D02*
D03*
X1328000D02*
D03*
X1284272Y1231228D02*
D03*
X1284500Y1247500D02*
D03*
X1427000Y1299000D02*
D03*
X1422000D02*
D03*
X1498500Y1306000D02*
D03*
X1488500D02*
D03*
X1468500D02*
D03*
X1458500D02*
D03*
X1438500D02*
D03*
X1513000Y1231500D02*
D03*
Y1236500D02*
D03*
X1506500Y1231500D02*
D03*
Y1236500D02*
D03*
X1521500Y1304500D02*
D03*
X1526500D02*
D03*
X1508500Y1306000D02*
D03*
Y1311000D02*
D03*
X1478500Y1306000D02*
D03*
Y1311000D02*
D03*
X1448500Y1306000D02*
D03*
Y1311000D02*
D03*
X1422000Y1287000D02*
D03*
X1427000D02*
D03*
X1425000Y1256000D02*
D03*
X1335043Y1223883D02*
D03*
X1345000Y1213500D02*
D03*
X1381000Y1302500D02*
D03*
X1308500Y1297500D02*
D03*
X1305000D02*
D03*
X1368500Y1256500D02*
D03*
Y1253000D02*
D03*
X1408500Y1288500D02*
D03*
X1511500Y1294500D02*
D03*
X1422500Y1276000D02*
D03*
X1393000Y1260000D02*
D03*
X1396500Y1256500D02*
D03*
X1368500Y1271000D02*
D03*
X1361500Y1278000D02*
D03*
X1368500D02*
D03*
Y1274500D02*
D03*
X1372000Y1278000D02*
D03*
X1403096Y1278096D02*
D03*
X1358000Y1253500D02*
D03*
X1398500Y1284000D02*
D03*
X1401500D02*
D03*
X1415500Y1288500D02*
D03*
X1426000Y1276000D02*
D03*
Y1279500D02*
D03*
X1393000Y1281000D02*
D03*
X1358000Y1271000D02*
D03*
X1355000Y1284000D02*
D03*
X1335360Y1281860D02*
D03*
X1361500Y1267500D02*
D03*
X1358000D02*
D03*
X1361500Y1264000D02*
D03*
Y1260500D02*
D03*
Y1257000D02*
D03*
X1358000Y1264000D02*
D03*
Y1260500D02*
D03*
Y1257000D02*
D03*
X1321500Y1283000D02*
D03*
X1325000Y1272000D02*
D03*
X1319558Y1271670D02*
D03*
X1330942Y1281942D02*
D03*
X1396500Y1253000D02*
D03*
X1421500Y1256000D02*
D03*
X1396500Y1249500D02*
D03*
Y1277500D02*
D03*
X1393000D02*
D03*
Y1274000D02*
D03*
X1396500D02*
D03*
Y1263500D02*
D03*
Y1260000D02*
D03*
X1418000Y1248000D02*
D03*
X1414500D02*
D03*
X1418000Y1244500D02*
D03*
X1414500D02*
D03*
Y1251500D02*
D03*
X1418000D02*
D03*
X1396500Y1246000D02*
D03*
X1393000D02*
D03*
Y1239000D02*
D03*
X1396500D02*
D03*
X1393000Y1242500D02*
D03*
X1396500D02*
D03*
X1399000Y1224000D02*
D03*
X1374082Y1233988D02*
D03*
X1382500Y1240500D02*
D03*
Y1244000D02*
D03*
X1379000Y1240500D02*
D03*
Y1244000D02*
D03*
X1375500Y1240500D02*
D03*
Y1244000D02*
D03*
X1368500D02*
D03*
X1372000D02*
D03*
Y1240500D02*
D03*
X1365000Y1244000D02*
D03*
X1361500D02*
D03*
Y1240500D02*
D03*
X1342000Y1235800D02*
D03*
X1358000Y1240500D02*
D03*
Y1244000D02*
D03*
X1354500D02*
D03*
Y1240500D02*
D03*
X1397500Y1234000D02*
D03*
X1393000D02*
D03*
X1432241Y1219253D02*
D03*
X1334860Y1216142D02*
D03*
X1337505Y1268283D02*
D03*
X1329500Y1244000D02*
D03*
Y1260500D02*
D03*
X1323000D02*
D03*
Y1244000D02*
D03*
X1319500Y1252081D02*
D03*
X1335500Y1260500D02*
D03*
Y1244000D02*
D03*
X1439000Y1260000D02*
D03*
X1454000Y1258500D02*
D03*
X1441500Y1260000D02*
D03*
X1454000Y1285000D02*
D03*
X1451500D02*
D03*
X1437000Y1301000D02*
D03*
Y1297000D02*
D03*
Y1299000D02*
D03*
X1435500Y1273500D02*
D03*
X1455500Y1299000D02*
D03*
Y1296500D02*
D03*
X1462500Y1280000D02*
D03*
X1465000D02*
D03*
X1472500D02*
D03*
Y1277500D02*
D03*
Y1275000D02*
D03*
X1458500Y1267000D02*
D03*
X1467500Y1258500D02*
D03*
X1472000Y1267000D02*
D03*
X1512500Y1255000D02*
D03*
X1509000Y1259500D02*
D03*
X1512520Y1259441D02*
D03*
X1510760Y1257220D02*
D03*
X1509000Y1255000D02*
D03*
X1498900Y1253400D02*
D03*
X1503500Y1282000D02*
D03*
X1511500Y1300000D02*
D03*
X1514500Y1294500D02*
D03*
X1489000Y1282500D02*
D03*
X1491500D02*
D03*
X1492000Y1279500D02*
D03*
X1519991Y1283009D02*
D03*
Y1280509D02*
D03*
X1530491Y1265509D02*
D03*
X1519491Y1270509D02*
D03*
X1526500Y1279500D02*
D03*
X1519448Y1274003D02*
D03*
X1500991Y1282009D02*
D03*
X1484991Y1256509D02*
D03*
X1482491D02*
D03*
X1479991D02*
D03*
X1495991Y1253509D02*
D03*
X1493500Y1253500D02*
D03*
X1491991Y1256509D02*
D03*
X1492589Y1272760D02*
D03*
Y1268260D02*
D03*
X1538500Y1292500D02*
D03*
X1528500Y1293500D02*
D03*
X1526387Y1290736D02*
D03*
X1476500Y1245000D02*
D03*
X1488000Y1244000D02*
D03*
X1470500Y1244500D02*
D03*
Y1242000D02*
D03*
X1484500Y1244000D02*
D03*
X1474215Y1258720D02*
D03*
X1469000Y1236500D02*
D03*
Y1234000D02*
D03*
X1520950Y1221251D02*
D03*
X1506118Y1243264D02*
D03*
D109*
X1282194Y1181925D02*
D03*
Y1336532D02*
D03*
X1551879D02*
D03*
Y1181925D02*
D03*
M02*
