G04*
G04 #@! TF.GenerationSoftware,Altium Limited,Altium Designer,21.1.1 (26)*
G04*
G04 Layer_Color=2752767*
%FSLAX25Y25*%
%MOIN*%
G70*
G04*
G04 #@! TF.SameCoordinates,7EEBE310-2877-491A-A4CC-80A9302AE9BF*
G04*
G04*
G04 #@! TF.FilePolarity,Positive*
G04*
G01*
G75*
%ADD116C,0.00200*%
%ADD117C,0.00267*%
D116*
X1291083Y1314428D02*
Y1316028D01*
X1292683D01*
Y1314428D01*
X1291083D01*
Y1304428D02*
Y1306028D01*
X1292683D01*
Y1304428D01*
X1291083D01*
Y1294428D02*
Y1296028D01*
X1292683D01*
Y1294428D01*
X1291083D01*
Y1284428D02*
Y1286028D01*
X1292683D01*
Y1284428D01*
X1291083D01*
X1531583Y1184428D02*
Y1186028D01*
X1533183D01*
Y1184428D01*
X1531583D01*
Y1174428D02*
Y1176028D01*
X1533183D01*
Y1174428D01*
X1531583D01*
X1521583Y1184428D02*
Y1186028D01*
X1523183D01*
Y1184428D01*
X1521583D01*
Y1174428D02*
Y1176028D01*
X1523183D01*
Y1174428D01*
X1521583D01*
X1511583Y1184428D02*
Y1186028D01*
X1513183D01*
Y1184428D01*
X1511583D01*
Y1174428D02*
Y1176028D01*
X1513183D01*
Y1174428D01*
X1511583D01*
X1501583Y1184428D02*
Y1186028D01*
X1503183D01*
Y1184428D01*
X1501583D01*
Y1174428D02*
Y1176028D01*
X1503183D01*
Y1174428D01*
X1501583D01*
X1491583Y1184428D02*
Y1186028D01*
X1493183D01*
Y1184428D01*
X1491583D01*
Y1174428D02*
Y1176028D01*
X1493183D01*
Y1174428D01*
X1491583D01*
X1481583Y1184428D02*
Y1186028D01*
X1483183D01*
Y1184428D01*
X1481583D01*
Y1174428D02*
Y1176028D01*
X1483183D01*
Y1174428D01*
X1481583D01*
X1471583Y1184428D02*
Y1186028D01*
X1473183D01*
Y1184428D01*
X1471583D01*
Y1174428D02*
Y1176028D01*
X1473183D01*
Y1174428D01*
X1471583D01*
X1461583Y1184428D02*
Y1186028D01*
X1463183D01*
Y1184428D01*
X1461583D01*
Y1174428D02*
Y1176028D01*
X1463183D01*
Y1174428D01*
X1461583D01*
X1451583Y1184428D02*
Y1186028D01*
X1453183D01*
Y1184428D01*
X1451583D01*
Y1174428D02*
Y1176028D01*
X1453183D01*
Y1174428D01*
X1451583D01*
X1441583Y1184428D02*
Y1186028D01*
X1443183D01*
Y1184428D01*
X1441583D01*
Y1174428D02*
Y1176028D01*
X1443183D01*
Y1174428D01*
X1441583D01*
X1431583Y1184428D02*
Y1186028D01*
X1433183D01*
Y1184428D01*
X1431583D01*
Y1174428D02*
Y1176028D01*
X1433183D01*
Y1174428D01*
X1431583D01*
X1421583Y1184428D02*
Y1186028D01*
X1423183D01*
Y1184428D01*
X1421583D01*
Y1174428D02*
Y1176028D01*
X1423183D01*
Y1174428D01*
X1421583D01*
X1411583Y1184428D02*
Y1186028D01*
X1413183D01*
Y1184428D01*
X1411583D01*
Y1174428D02*
Y1176028D01*
X1413183D01*
Y1174428D01*
X1411583D01*
X1401583Y1184428D02*
Y1186028D01*
X1403183D01*
Y1184428D01*
X1401583D01*
Y1174428D02*
Y1176028D01*
X1403183D01*
Y1174428D01*
X1401583D01*
X1391583Y1184428D02*
Y1186028D01*
X1393183D01*
Y1184428D01*
X1391583D01*
Y1174428D02*
Y1176028D01*
X1393183D01*
Y1174428D01*
X1391583D01*
X1381583Y1184428D02*
Y1186028D01*
X1383183D01*
Y1184428D01*
X1381583D01*
Y1174428D02*
Y1176028D01*
X1383183D01*
Y1174428D01*
X1381583D01*
X1371583Y1184428D02*
Y1186028D01*
X1373183D01*
Y1184428D01*
X1371583D01*
Y1174428D02*
Y1176028D01*
X1373183D01*
Y1174428D01*
X1371583D01*
X1361583Y1184428D02*
Y1186028D01*
X1363183D01*
Y1184428D01*
X1361583D01*
Y1174428D02*
Y1176028D01*
X1363183D01*
Y1174428D01*
X1361583D01*
X1351583Y1184428D02*
Y1186028D01*
X1353183D01*
Y1184428D01*
X1351583D01*
Y1174428D02*
Y1176028D01*
X1353183D01*
Y1174428D01*
X1351583D01*
X1341583Y1184428D02*
Y1186028D01*
X1343183D01*
Y1184428D01*
X1341583D01*
Y1174428D02*
Y1176028D01*
X1343183D01*
Y1174428D01*
X1341583D01*
X1531583Y1342428D02*
Y1344028D01*
X1533183D01*
Y1342428D01*
X1531583D01*
Y1332428D02*
Y1334028D01*
X1533183D01*
Y1332428D01*
X1531583D01*
X1521583Y1342428D02*
Y1344028D01*
X1523183D01*
Y1342428D01*
X1521583D01*
Y1332428D02*
Y1334028D01*
X1523183D01*
Y1332428D01*
X1521583D01*
X1511583Y1342428D02*
Y1344028D01*
X1513183D01*
Y1342428D01*
X1511583D01*
Y1332428D02*
Y1334028D01*
X1513183D01*
Y1332428D01*
X1511583D01*
X1501583Y1342428D02*
Y1344028D01*
X1503183D01*
Y1342428D01*
X1501583D01*
Y1332428D02*
Y1334028D01*
X1503183D01*
Y1332428D01*
X1501583D01*
X1491583Y1342428D02*
Y1344028D01*
X1493183D01*
Y1342428D01*
X1491583D01*
Y1332428D02*
Y1334028D01*
X1493183D01*
Y1332428D01*
X1491583D01*
X1481583Y1342428D02*
Y1344028D01*
X1483183D01*
Y1342428D01*
X1481583D01*
Y1332428D02*
Y1334028D01*
X1483183D01*
Y1332428D01*
X1481583D01*
X1471583Y1342428D02*
Y1344028D01*
X1473183D01*
Y1342428D01*
X1471583D01*
Y1332428D02*
Y1334028D01*
X1473183D01*
Y1332428D01*
X1471583D01*
X1461583Y1342428D02*
Y1344028D01*
X1463183D01*
Y1342428D01*
X1461583D01*
Y1332428D02*
Y1334028D01*
X1463183D01*
Y1332428D01*
X1461583D01*
X1451583Y1342428D02*
Y1344028D01*
X1453183D01*
Y1342428D01*
X1451583D01*
Y1332428D02*
Y1334028D01*
X1453183D01*
Y1332428D01*
X1451583D01*
X1441583Y1342428D02*
Y1344028D01*
X1443183D01*
Y1342428D01*
X1441583D01*
Y1332428D02*
Y1334028D01*
X1443183D01*
Y1332428D01*
X1441583D01*
X1431583Y1342428D02*
Y1344028D01*
X1433183D01*
Y1342428D01*
X1431583D01*
Y1332428D02*
Y1334028D01*
X1433183D01*
Y1332428D01*
X1431583D01*
X1421583Y1342428D02*
Y1344028D01*
X1423183D01*
Y1342428D01*
X1421583D01*
Y1332428D02*
Y1334028D01*
X1423183D01*
Y1332428D01*
X1421583D01*
X1411583Y1342428D02*
Y1344028D01*
X1413183D01*
Y1342428D01*
X1411583D01*
Y1332428D02*
Y1334028D01*
X1413183D01*
Y1332428D01*
X1411583D01*
X1401583Y1342428D02*
Y1344028D01*
X1403183D01*
Y1342428D01*
X1401583D01*
Y1332428D02*
Y1334028D01*
X1403183D01*
Y1332428D01*
X1401583D01*
X1391583Y1342428D02*
Y1344028D01*
X1393183D01*
Y1342428D01*
X1391583D01*
Y1332428D02*
Y1334028D01*
X1393183D01*
Y1332428D01*
X1391583D01*
X1381583Y1342428D02*
Y1344028D01*
X1383183D01*
Y1342428D01*
X1381583D01*
Y1332428D02*
Y1334028D01*
X1383183D01*
Y1332428D01*
X1381583D01*
X1371583Y1342428D02*
Y1344028D01*
X1373183D01*
Y1342428D01*
X1371583D01*
Y1332428D02*
Y1334028D01*
X1373183D01*
Y1332428D01*
X1371583D01*
X1361583Y1342428D02*
Y1344028D01*
X1363183D01*
Y1342428D01*
X1361583D01*
Y1332428D02*
Y1334028D01*
X1363183D01*
Y1332428D01*
X1361583D01*
X1351583Y1342428D02*
Y1344028D01*
X1353183D01*
Y1342428D01*
X1351583D01*
Y1332428D02*
Y1334028D01*
X1353183D01*
Y1332428D01*
X1351583D01*
X1341583Y1342428D02*
Y1344028D01*
X1343183D01*
Y1342428D01*
X1341583D01*
Y1332428D02*
Y1334028D01*
X1343183D01*
Y1332428D01*
X1341583D01*
X1301583Y1184428D02*
Y1186028D01*
X1303183D01*
Y1184428D01*
X1301583D01*
Y1174428D02*
Y1176028D01*
X1303183D01*
Y1174428D01*
X1301583D01*
X1311583D02*
Y1176028D01*
X1313183D01*
Y1174428D01*
X1311583D01*
Y1184428D02*
Y1186028D01*
X1313183D01*
Y1184428D01*
X1311583D01*
X1321583Y1174428D02*
Y1176028D01*
X1323183D01*
Y1174428D01*
X1321583D01*
Y1184428D02*
Y1186028D01*
X1323183D01*
Y1184428D01*
X1321583D01*
X1331583Y1174428D02*
Y1176028D01*
X1333183D01*
Y1174428D01*
X1331583D01*
Y1184428D02*
Y1186028D01*
X1333183D01*
Y1184428D01*
X1331583D01*
Y1332428D02*
Y1334028D01*
X1333183D01*
Y1332428D01*
X1331583D01*
Y1342428D02*
Y1344028D01*
X1333183D01*
Y1342428D01*
X1331583D01*
X1321583D02*
Y1344028D01*
X1323183D01*
Y1342428D01*
X1321583D01*
Y1332428D02*
Y1334028D01*
X1323183D01*
Y1332428D01*
X1321583D01*
X1311583Y1342428D02*
Y1344028D01*
X1313183D01*
Y1342428D01*
X1311583D01*
Y1332428D02*
Y1334028D01*
X1313183D01*
Y1332428D01*
X1311583D01*
X1301583Y1342428D02*
Y1344028D01*
X1303183D01*
Y1342428D01*
X1301583D01*
Y1332428D02*
Y1334028D01*
X1303183D01*
Y1332428D01*
X1301583D01*
X1553379Y1247199D02*
X1552579Y1248799D01*
X1554179D01*
X1553379Y1247199D01*
Y1213183D02*
X1552579Y1214783D01*
X1554179D01*
X1553379Y1213183D01*
X1536923Y1247199D02*
X1537323Y1247599D01*
X1537723D01*
X1537323Y1247999D01*
X1537723Y1248399D01*
X1537323D01*
X1536923Y1248799D01*
X1536523Y1248399D01*
X1536123D01*
X1536523Y1247999D01*
X1536123Y1247599D01*
X1536523D01*
X1536923Y1247199D01*
Y1213183D02*
X1537323Y1213583D01*
X1537723D01*
X1537323Y1213983D01*
X1537723Y1214383D01*
X1537323D01*
X1536923Y1214783D01*
X1536523Y1214383D01*
X1536123D01*
X1536523Y1213983D01*
X1536123Y1213583D01*
X1536523D01*
X1536923Y1213183D01*
X1553438Y1303666D02*
X1552638Y1305266D01*
X1554238D01*
X1553438Y1303666D01*
Y1269650D02*
X1552638Y1271250D01*
X1554238D01*
X1553438Y1269650D01*
X1536982Y1303666D02*
X1537382Y1304066D01*
X1537782D01*
X1537382Y1304466D01*
X1537782Y1304866D01*
X1537382D01*
X1536982Y1305266D01*
X1536582Y1304866D01*
X1536182D01*
X1536582Y1304466D01*
X1536182Y1304066D01*
X1536582D01*
X1536982Y1303666D01*
Y1269650D02*
X1537382Y1270050D01*
X1537782D01*
X1537382Y1270450D01*
X1537782Y1270850D01*
X1537382D01*
X1536982Y1271250D01*
X1536582Y1270850D01*
X1536182D01*
X1536582Y1270450D01*
X1536182Y1270050D01*
X1536582D01*
X1536982Y1269650D01*
X1473658Y1325242D02*
X1474058Y1326042D01*
X1473658Y1326842D01*
X1474458Y1326442D01*
X1475258Y1326842D01*
X1474858Y1326042D01*
X1475258Y1325242D01*
X1474458Y1325642D01*
X1473658Y1325242D01*
X1489658Y1324742D02*
X1490058Y1325542D01*
X1489658Y1326342D01*
X1490458Y1325942D01*
X1491258Y1326342D01*
X1490858Y1325542D01*
X1491258Y1324742D01*
X1490458Y1325142D01*
X1489658Y1324742D01*
X1410658Y1325742D02*
X1411058Y1326542D01*
X1410658Y1327342D01*
X1411458Y1326942D01*
X1412258Y1327342D01*
X1411858Y1326542D01*
X1412258Y1325742D01*
X1411458Y1326142D01*
X1410658Y1325742D01*
X1514757Y1248328D02*
X1515157Y1249129D01*
X1514757Y1249928D01*
X1515557Y1249529D01*
X1516357Y1249928D01*
X1515957Y1249129D01*
X1516357Y1248328D01*
X1515557Y1248728D01*
X1514757Y1248328D01*
X1515200Y1235700D02*
X1515600Y1236500D01*
X1515200Y1237300D01*
X1516000Y1236900D01*
X1516800Y1237300D01*
X1516400Y1236500D01*
X1516800Y1235700D01*
X1516000Y1236100D01*
X1515200Y1235700D01*
X1447200Y1193700D02*
X1447600Y1194500D01*
X1447200Y1195300D01*
X1448000Y1194900D01*
X1448800Y1195300D01*
X1448400Y1194500D01*
X1448800Y1193700D01*
X1448000Y1194100D01*
X1447200Y1193700D01*
X1405700Y1292200D02*
X1406100Y1293000D01*
X1405700Y1293800D01*
X1406500Y1293400D01*
X1407300Y1293800D01*
X1406900Y1293000D01*
X1407300Y1292200D01*
X1406500Y1292600D01*
X1405700Y1292200D01*
X1487700Y1197200D02*
X1488100Y1198000D01*
X1487700Y1198800D01*
X1488500Y1198400D01*
X1489300Y1198800D01*
X1488900Y1198000D01*
X1489300Y1197200D01*
X1488500Y1197600D01*
X1487700Y1197200D01*
X1305200Y1199200D02*
X1305600Y1200000D01*
X1305200Y1200800D01*
X1306000Y1200400D01*
X1306800Y1200800D01*
X1306400Y1200000D01*
X1306800Y1199200D01*
X1306000Y1199600D01*
X1305200Y1199200D01*
X1325700Y1325200D02*
X1326100Y1326000D01*
X1325700Y1326800D01*
X1326500Y1326400D01*
X1327300Y1326800D01*
X1326900Y1326000D01*
X1327300Y1325200D01*
X1326500Y1325600D01*
X1325700Y1325200D01*
X1394200Y1313200D02*
X1394600Y1314000D01*
X1394200Y1314800D01*
X1395000Y1314400D01*
X1395800Y1314800D01*
X1395400Y1314000D01*
X1395800Y1313200D01*
X1395000Y1313600D01*
X1394200Y1313200D01*
X1346200Y1231700D02*
X1346600Y1232500D01*
X1346200Y1233300D01*
X1347000Y1232900D01*
X1347800Y1233300D01*
X1347400Y1232500D01*
X1347800Y1231700D01*
X1347000Y1232100D01*
X1346200Y1231700D01*
X1552259Y1279167D02*
X1552659Y1279967D01*
X1552259Y1280767D01*
X1553059Y1280367D01*
X1553859Y1280767D01*
X1553459Y1279967D01*
X1553859Y1279167D01*
X1553059Y1279567D01*
X1552259Y1279167D01*
Y1289167D02*
X1552659Y1289967D01*
X1552259Y1290767D01*
X1553059Y1290367D01*
X1553859Y1290767D01*
X1553459Y1289967D01*
X1553859Y1289167D01*
X1553059Y1289567D01*
X1552259Y1289167D01*
Y1299167D02*
X1552659Y1299967D01*
X1552259Y1300767D01*
X1553059Y1300367D01*
X1553859Y1300767D01*
X1553459Y1299967D01*
X1553859Y1299167D01*
X1553059Y1299567D01*
X1552259Y1299167D01*
X1557259Y1294167D02*
X1557659Y1294967D01*
X1557259Y1295767D01*
X1558059Y1295367D01*
X1558859Y1295767D01*
X1558459Y1294967D01*
X1558859Y1294167D01*
X1558059Y1294567D01*
X1557259Y1294167D01*
Y1284167D02*
X1557659Y1284967D01*
X1557259Y1285767D01*
X1558059Y1285367D01*
X1558859Y1285767D01*
X1558459Y1284967D01*
X1558859Y1284167D01*
X1558059Y1284567D01*
X1557259Y1284167D01*
Y1274167D02*
X1557659Y1274967D01*
X1557259Y1275767D01*
X1558059Y1275367D01*
X1558859Y1275767D01*
X1558459Y1274967D01*
X1558859Y1274167D01*
X1558059Y1274567D01*
X1557259Y1274167D01*
X1557200Y1217700D02*
X1557600Y1218500D01*
X1557200Y1219300D01*
X1558000Y1218900D01*
X1558800Y1219300D01*
X1558400Y1218500D01*
X1558800Y1217700D01*
X1558000Y1218100D01*
X1557200Y1217700D01*
Y1227700D02*
X1557600Y1228500D01*
X1557200Y1229300D01*
X1558000Y1228900D01*
X1558800Y1229300D01*
X1558400Y1228500D01*
X1558800Y1227700D01*
X1558000Y1228100D01*
X1557200Y1227700D01*
Y1237700D02*
X1557600Y1238500D01*
X1557200Y1239300D01*
X1558000Y1238900D01*
X1558800Y1239300D01*
X1558400Y1238500D01*
X1558800Y1237700D01*
X1558000Y1238100D01*
X1557200Y1237700D01*
X1552200Y1242700D02*
X1552600Y1243500D01*
X1552200Y1244300D01*
X1553000Y1243900D01*
X1553800Y1244300D01*
X1553400Y1243500D01*
X1553800Y1242700D01*
X1553000Y1243100D01*
X1552200Y1242700D01*
Y1232700D02*
X1552600Y1233500D01*
X1552200Y1234300D01*
X1553000Y1233900D01*
X1553800Y1234300D01*
X1553400Y1233500D01*
X1553800Y1232700D01*
X1553000Y1233100D01*
X1552200Y1232700D01*
Y1222700D02*
X1552600Y1223500D01*
X1552200Y1224300D01*
X1553000Y1223900D01*
X1553800Y1224300D01*
X1553400Y1223500D01*
X1553800Y1222700D01*
X1553000Y1223100D01*
X1552200Y1222700D01*
X1547200Y1237700D02*
X1547600Y1238500D01*
X1547200Y1239300D01*
X1548000Y1238900D01*
X1548800Y1239300D01*
X1548400Y1238500D01*
X1548800Y1237700D01*
X1548000Y1238100D01*
X1547200Y1237700D01*
Y1227700D02*
X1547600Y1228500D01*
X1547200Y1229300D01*
X1548000Y1228900D01*
X1548800Y1229300D01*
X1548400Y1228500D01*
X1548800Y1227700D01*
X1548000Y1228100D01*
X1547200Y1227700D01*
Y1217700D02*
X1547600Y1218500D01*
X1547200Y1219300D01*
X1548000Y1218900D01*
X1548800Y1219300D01*
X1548400Y1218500D01*
X1548800Y1217700D01*
X1548000Y1218100D01*
X1547200Y1217700D01*
X1437700Y1310200D02*
X1438100Y1311000D01*
X1437700Y1311800D01*
X1438500Y1311400D01*
X1439300Y1311800D01*
X1438900Y1311000D01*
X1439300Y1310200D01*
X1438500Y1310600D01*
X1437700Y1310200D01*
X1457700D02*
X1458100Y1311000D01*
X1457700Y1311800D01*
X1458500Y1311400D01*
X1459300Y1311800D01*
X1458900Y1311000D01*
X1459300Y1310200D01*
X1458500Y1310600D01*
X1457700Y1310200D01*
X1467700D02*
X1468100Y1311000D01*
X1467700Y1311800D01*
X1468500Y1311400D01*
X1469300Y1311800D01*
X1468900Y1311000D01*
X1469300Y1310200D01*
X1468500Y1310600D01*
X1467700Y1310200D01*
X1487700D02*
X1488100Y1311000D01*
X1487700Y1311800D01*
X1488500Y1311400D01*
X1489300Y1311800D01*
X1488900Y1311000D01*
X1489300Y1310200D01*
X1488500Y1310600D01*
X1487700Y1310200D01*
X1439200Y1282200D02*
X1439600Y1283000D01*
X1439200Y1283800D01*
X1440000Y1283400D01*
X1440800Y1283800D01*
X1440400Y1283000D01*
X1440800Y1282200D01*
X1440000Y1282600D01*
X1439200Y1282200D01*
X1281794Y1181525D02*
Y1181125D01*
X1282594D01*
Y1181525D01*
X1282994D01*
Y1182325D01*
X1282594D01*
Y1182725D01*
X1281794D01*
Y1182325D01*
X1281394D01*
Y1181525D01*
X1281794D01*
X1297083Y1238678D02*
X1297483Y1239478D01*
X1297083Y1240278D01*
X1297883Y1239878D01*
X1298683Y1240278D01*
X1298283Y1239478D01*
X1298683Y1238678D01*
X1297883Y1239078D01*
X1297083Y1238678D01*
X1435200Y1281700D02*
X1435600Y1282500D01*
X1435200Y1283300D01*
X1436000Y1282900D01*
X1436800Y1283300D01*
X1436400Y1282500D01*
X1436800Y1281700D01*
X1436000Y1282100D01*
X1435200Y1281700D01*
Y1279200D02*
X1435600Y1280000D01*
X1435200Y1280800D01*
X1436000Y1280400D01*
X1436800Y1280800D01*
X1436400Y1280000D01*
X1436800Y1279200D01*
X1436000Y1279600D01*
X1435200Y1279200D01*
X1433200Y1281700D02*
X1433600Y1282500D01*
X1433200Y1283300D01*
X1434000Y1282900D01*
X1434800Y1283300D01*
X1434400Y1282500D01*
X1434800Y1281700D01*
X1434000Y1282100D01*
X1433200Y1281700D01*
Y1279200D02*
X1433600Y1280000D01*
X1433200Y1280800D01*
X1434000Y1280400D01*
X1434800Y1280800D01*
X1434400Y1280000D01*
X1434800Y1279200D01*
X1434000Y1279600D01*
X1433200Y1279200D01*
X1432200Y1275200D02*
X1432600Y1276000D01*
X1432200Y1276800D01*
X1433000Y1276400D01*
X1433800Y1276800D01*
X1433400Y1276000D01*
X1433800Y1275200D01*
X1433000Y1275600D01*
X1432200Y1275200D01*
X1434700D02*
X1435100Y1276000D01*
X1434700Y1276800D01*
X1435500Y1276400D01*
X1436300Y1276800D01*
X1435900Y1276000D01*
X1436300Y1275200D01*
X1435500Y1275600D01*
X1434700Y1275200D01*
X1510200Y1265200D02*
X1510600Y1266000D01*
X1510200Y1266800D01*
X1511000Y1266400D01*
X1511800Y1266800D01*
X1511400Y1266000D01*
X1511800Y1265200D01*
X1511000Y1265600D01*
X1510200Y1265200D01*
X1489200Y1230200D02*
X1489600Y1231000D01*
X1489200Y1231800D01*
X1490000Y1231400D01*
X1490800Y1231800D01*
X1490400Y1231000D01*
X1490800Y1230200D01*
X1490000Y1230600D01*
X1489200Y1230200D01*
X1499107Y1269769D02*
X1499507Y1270569D01*
X1499107Y1271369D01*
X1499907Y1270969D01*
X1500707Y1271369D01*
X1500307Y1270569D01*
X1500707Y1269769D01*
X1499907Y1270169D01*
X1499107Y1269769D01*
X1509571Y1274460D02*
X1509971Y1275260D01*
X1509571Y1276060D01*
X1510371Y1275660D01*
X1511171Y1276060D01*
X1510771Y1275260D01*
X1511171Y1274460D01*
X1510371Y1274860D01*
X1509571Y1274460D01*
X1445583Y1275928D02*
X1445983Y1276728D01*
X1445583Y1277528D01*
X1446383Y1277128D01*
X1447183Y1277528D01*
X1446783Y1276728D01*
X1447183Y1275928D01*
X1446383Y1276328D01*
X1445583Y1275928D01*
X1481583D02*
X1481983Y1276728D01*
X1481583Y1277528D01*
X1482383Y1277128D01*
X1483183Y1277528D01*
X1482783Y1276728D01*
X1483183Y1275928D01*
X1482383Y1276328D01*
X1481583Y1275928D01*
X1371200Y1211700D02*
X1371600Y1212500D01*
X1371200Y1213300D01*
X1372000Y1212900D01*
X1372800Y1213300D01*
X1372400Y1212500D01*
X1372800Y1211700D01*
X1372000Y1212100D01*
X1371200Y1211700D01*
X1368700D02*
X1369100Y1212500D01*
X1368700Y1213300D01*
X1369500Y1212900D01*
X1370300Y1213300D01*
X1369900Y1212500D01*
X1370300Y1211700D01*
X1369500Y1212100D01*
X1368700Y1211700D01*
X1367700Y1248700D02*
X1368100Y1249500D01*
X1367700Y1250300D01*
X1368500Y1249900D01*
X1369300Y1250300D01*
X1368900Y1249500D01*
X1369300Y1248700D01*
X1368500Y1249100D01*
X1367700Y1248700D01*
X1456700Y1286200D02*
X1457100Y1287000D01*
X1456700Y1287800D01*
X1457500Y1287400D01*
X1458300Y1287800D01*
X1457900Y1287000D01*
X1458300Y1286200D01*
X1457500Y1286600D01*
X1456700Y1286200D01*
X1459200D02*
X1459600Y1287000D01*
X1459200Y1287800D01*
X1460000Y1287400D01*
X1460800Y1287800D01*
X1460400Y1287000D01*
X1460800Y1286200D01*
X1460000Y1286600D01*
X1459200Y1286200D01*
X1538200Y1260200D02*
X1538600Y1261000D01*
X1538200Y1261800D01*
X1539000Y1261400D01*
X1539800Y1261800D01*
X1539400Y1261000D01*
X1539800Y1260200D01*
X1539000Y1260600D01*
X1538200Y1260200D01*
X1519200Y1264700D02*
X1519600Y1265500D01*
X1519200Y1266300D01*
X1520000Y1265900D01*
X1520800Y1266300D01*
X1520400Y1265500D01*
X1520800Y1264700D01*
X1520000Y1265100D01*
X1519200Y1264700D01*
X1449358Y1245696D02*
X1449758Y1246496D01*
X1449358Y1247296D01*
X1450158Y1246896D01*
X1450958Y1247296D01*
X1450558Y1246496D01*
X1450958Y1245696D01*
X1450158Y1246096D01*
X1449358Y1245696D01*
X1449673Y1231333D02*
X1450073Y1232133D01*
X1449673Y1232933D01*
X1450473Y1232533D01*
X1451273Y1232933D01*
X1450873Y1232133D01*
X1451273Y1231333D01*
X1450473Y1231733D01*
X1449673Y1231333D01*
X1451700Y1240700D02*
X1452100Y1241500D01*
X1451700Y1242300D01*
X1452500Y1241900D01*
X1453300Y1242300D01*
X1452900Y1241500D01*
X1453300Y1240700D01*
X1452500Y1241100D01*
X1451700Y1240700D01*
X1447200D02*
X1447600Y1241500D01*
X1447200Y1242300D01*
X1448000Y1241900D01*
X1448800Y1242300D01*
X1448400Y1241500D01*
X1448800Y1240700D01*
X1448000Y1241100D01*
X1447200Y1240700D01*
X1451700Y1236200D02*
X1452100Y1237000D01*
X1451700Y1237800D01*
X1452500Y1237400D01*
X1453300Y1237800D01*
X1452900Y1237000D01*
X1453300Y1236200D01*
X1452500Y1236600D01*
X1451700Y1236200D01*
X1447200D02*
X1447600Y1237000D01*
X1447200Y1237800D01*
X1448000Y1237400D01*
X1448800Y1237800D01*
X1448400Y1237000D01*
X1448800Y1236200D01*
X1448000Y1236600D01*
X1447200Y1236200D01*
X1456200Y1238700D02*
X1456600Y1239500D01*
X1456200Y1240300D01*
X1457000Y1239900D01*
X1457800Y1240300D01*
X1457400Y1239500D01*
X1457800Y1238700D01*
X1457000Y1239100D01*
X1456200Y1238700D01*
Y1233200D02*
X1456600Y1234000D01*
X1456200Y1234800D01*
X1457000Y1234400D01*
X1457800Y1234800D01*
X1457400Y1234000D01*
X1457800Y1233200D01*
X1457000Y1233600D01*
X1456200Y1233200D01*
X1422200Y1230700D02*
X1422600Y1231500D01*
X1422200Y1232300D01*
X1423000Y1231900D01*
X1423800Y1232300D01*
X1423400Y1231500D01*
X1423800Y1230700D01*
X1423000Y1231100D01*
X1422200Y1230700D01*
Y1233700D02*
X1422600Y1234500D01*
X1422200Y1235300D01*
X1423000Y1234900D01*
X1423800Y1235300D01*
X1423400Y1234500D01*
X1423800Y1233700D01*
X1423000Y1234100D01*
X1422200Y1233700D01*
X1437200Y1215200D02*
X1437600Y1216000D01*
X1437200Y1216800D01*
X1438000Y1216400D01*
X1438800Y1216800D01*
X1438400Y1216000D01*
X1438800Y1215200D01*
X1438000Y1215600D01*
X1437200Y1215200D01*
X1449200Y1257700D02*
X1449600Y1258500D01*
X1449200Y1259300D01*
X1450000Y1258900D01*
X1450800Y1259300D01*
X1450400Y1258500D01*
X1450800Y1257700D01*
X1450000Y1258100D01*
X1449200Y1257700D01*
X1313200Y1232700D02*
X1313600Y1233500D01*
X1313200Y1234300D01*
X1314000Y1233900D01*
X1314800Y1234300D01*
X1314400Y1233500D01*
X1314800Y1232700D01*
X1314000Y1233100D01*
X1313200Y1232700D01*
X1277700Y1253700D02*
X1278100Y1254500D01*
X1277700Y1255300D01*
X1278500Y1254900D01*
X1279300Y1255300D01*
X1278900Y1254500D01*
X1279300Y1253700D01*
X1278500Y1254100D01*
X1277700Y1253700D01*
Y1257200D02*
X1278100Y1258000D01*
X1277700Y1258800D01*
X1278500Y1258400D01*
X1279300Y1258800D01*
X1278900Y1258000D01*
X1279300Y1257200D01*
X1278500Y1257600D01*
X1277700Y1257200D01*
Y1240200D02*
X1278100Y1241000D01*
X1277700Y1241800D01*
X1278500Y1241400D01*
X1279300Y1241800D01*
X1278900Y1241000D01*
X1279300Y1240200D01*
X1278500Y1240600D01*
X1277700Y1240200D01*
Y1236700D02*
X1278100Y1237500D01*
X1277700Y1238300D01*
X1278500Y1237900D01*
X1279300Y1238300D01*
X1278900Y1237500D01*
X1279300Y1236700D01*
X1278500Y1237100D01*
X1277700Y1236700D01*
X1273983Y1272700D02*
X1274384Y1273500D01*
X1273983Y1274300D01*
X1274784Y1273900D01*
X1275583Y1274300D01*
X1275183Y1273500D01*
X1275583Y1272700D01*
X1274784Y1273100D01*
X1273983Y1272700D01*
X1381200Y1283200D02*
X1381600Y1284000D01*
X1381200Y1284800D01*
X1382000Y1284400D01*
X1382800Y1284800D01*
X1382400Y1284000D01*
X1382800Y1283200D01*
X1382000Y1283600D01*
X1381200Y1283200D01*
X1385200Y1257200D02*
X1385600Y1258000D01*
X1385200Y1258800D01*
X1386000Y1258400D01*
X1386800Y1258800D01*
X1386400Y1258000D01*
X1386800Y1257200D01*
X1386000Y1257600D01*
X1385200Y1257200D01*
X1371200Y1259700D02*
X1371600Y1260500D01*
X1371200Y1261300D01*
X1372000Y1260900D01*
X1372800Y1261300D01*
X1372400Y1260500D01*
X1372800Y1259700D01*
X1372000Y1260100D01*
X1371200Y1259700D01*
Y1266700D02*
X1371600Y1267500D01*
X1371200Y1268300D01*
X1372000Y1267900D01*
X1372800Y1268300D01*
X1372400Y1267500D01*
X1372800Y1266700D01*
X1372000Y1267100D01*
X1371200Y1266700D01*
X1385200Y1250200D02*
X1385600Y1251000D01*
X1385200Y1251800D01*
X1386000Y1251400D01*
X1386800Y1251800D01*
X1386400Y1251000D01*
X1386800Y1250200D01*
X1386000Y1250600D01*
X1385200Y1250200D01*
X1378200D02*
X1378600Y1251000D01*
X1378200Y1251800D01*
X1379000Y1251400D01*
X1379800Y1251800D01*
X1379400Y1251000D01*
X1379800Y1250200D01*
X1379000Y1250600D01*
X1378200Y1250200D01*
X1405200Y1226700D02*
X1405600Y1227500D01*
X1405200Y1228300D01*
X1406000Y1227900D01*
X1406800Y1228300D01*
X1406400Y1227500D01*
X1406800Y1226700D01*
X1406000Y1227100D01*
X1405200Y1226700D01*
Y1224200D02*
X1405600Y1225000D01*
X1405200Y1225800D01*
X1406000Y1225400D01*
X1406800Y1225800D01*
X1406400Y1225000D01*
X1406800Y1224200D01*
X1406000Y1224600D01*
X1405200Y1224200D01*
X1416200Y1223700D02*
X1416600Y1224500D01*
X1416200Y1225300D01*
X1417000Y1224900D01*
X1417800Y1225300D01*
X1417400Y1224500D01*
X1417800Y1223700D01*
X1417000Y1224100D01*
X1416200Y1223700D01*
Y1221200D02*
X1416600Y1222000D01*
X1416200Y1222800D01*
X1417000Y1222400D01*
X1417800Y1222800D01*
X1417400Y1222000D01*
X1417800Y1221200D01*
X1417000Y1221600D01*
X1416200Y1221200D01*
X1536200Y1265700D02*
X1536600Y1266500D01*
X1536200Y1267300D01*
X1537000Y1266900D01*
X1537800Y1267300D01*
X1537400Y1266500D01*
X1537800Y1265700D01*
X1537000Y1266100D01*
X1536200Y1265700D01*
X1533700D02*
X1534100Y1266500D01*
X1533700Y1267300D01*
X1534500Y1266900D01*
X1535300Y1267300D01*
X1534900Y1266500D01*
X1535300Y1265700D01*
X1534500Y1266100D01*
X1533700Y1265700D01*
X1529200Y1306200D02*
X1529600Y1307000D01*
X1529200Y1307800D01*
X1530000Y1307400D01*
X1530800Y1307800D01*
X1530400Y1307000D01*
X1530800Y1306200D01*
X1530000Y1306600D01*
X1529200Y1306200D01*
X1524200Y1247700D02*
X1524600Y1248500D01*
X1524200Y1249300D01*
X1525000Y1248900D01*
X1525800Y1249300D01*
X1525400Y1248500D01*
X1525800Y1247700D01*
X1525000Y1248100D01*
X1524200Y1247700D01*
Y1245200D02*
X1524600Y1246000D01*
X1524200Y1246800D01*
X1525000Y1246400D01*
X1525800Y1246800D01*
X1525400Y1246000D01*
X1525800Y1245200D01*
X1525000Y1245600D01*
X1524200Y1245200D01*
Y1242700D02*
X1524600Y1243500D01*
X1524200Y1244300D01*
X1525000Y1243900D01*
X1525800Y1244300D01*
X1525400Y1243500D01*
X1525800Y1242700D01*
X1525000Y1243100D01*
X1524200Y1242700D01*
X1526700Y1247700D02*
X1527100Y1248500D01*
X1526700Y1249300D01*
X1527500Y1248900D01*
X1528300Y1249300D01*
X1527900Y1248500D01*
X1528300Y1247700D01*
X1527500Y1248100D01*
X1526700Y1247700D01*
X1529200D02*
X1529600Y1248500D01*
X1529200Y1249300D01*
X1530000Y1248900D01*
X1530800Y1249300D01*
X1530400Y1248500D01*
X1530800Y1247700D01*
X1530000Y1248100D01*
X1529200Y1247700D01*
X1526700Y1245200D02*
X1527100Y1246000D01*
X1526700Y1246800D01*
X1527500Y1246400D01*
X1528300Y1246800D01*
X1527900Y1246000D01*
X1528300Y1245200D01*
X1527500Y1245600D01*
X1526700Y1245200D01*
Y1214700D02*
X1527100Y1215500D01*
X1526700Y1216300D01*
X1527500Y1215900D01*
X1528300Y1216300D01*
X1527900Y1215500D01*
X1528300Y1214700D01*
X1527500Y1215100D01*
X1526700Y1214700D01*
X1524200Y1217200D02*
X1524600Y1218000D01*
X1524200Y1218800D01*
X1525000Y1218400D01*
X1525800Y1218800D01*
X1525400Y1218000D01*
X1525800Y1217200D01*
X1525000Y1217600D01*
X1524200Y1217200D01*
Y1214700D02*
X1524600Y1215500D01*
X1524200Y1216300D01*
X1525000Y1215900D01*
X1525800Y1216300D01*
X1525400Y1215500D01*
X1525800Y1214700D01*
X1525000Y1215100D01*
X1524200Y1214700D01*
X1529200Y1212200D02*
X1529600Y1213000D01*
X1529200Y1213800D01*
X1530000Y1213400D01*
X1530800Y1213800D01*
X1530400Y1213000D01*
X1530800Y1212200D01*
X1530000Y1212600D01*
X1529200Y1212200D01*
X1526700D02*
X1527100Y1213000D01*
X1526700Y1213800D01*
X1527500Y1213400D01*
X1528300Y1213800D01*
X1527900Y1213000D01*
X1528300Y1212200D01*
X1527500Y1212600D01*
X1526700Y1212200D01*
X1524200D02*
X1524600Y1213000D01*
X1524200Y1213800D01*
X1525000Y1213400D01*
X1525800Y1213800D01*
X1525400Y1213000D01*
X1525800Y1212200D01*
X1525000Y1212600D01*
X1524200Y1212200D01*
X1487200Y1223700D02*
X1487600Y1224500D01*
X1487200Y1225300D01*
X1488000Y1224900D01*
X1488800Y1225300D01*
X1488400Y1224500D01*
X1488800Y1223700D01*
X1488000Y1224100D01*
X1487200Y1223700D01*
X1500200Y1221200D02*
X1500600Y1222000D01*
X1500200Y1222800D01*
X1501000Y1222400D01*
X1501800Y1222800D01*
X1501400Y1222000D01*
X1501800Y1221200D01*
X1501000Y1221600D01*
X1500200Y1221200D01*
X1472200Y1244200D02*
X1472600Y1245000D01*
X1472200Y1245800D01*
X1473000Y1245400D01*
X1473800Y1245800D01*
X1473400Y1245000D01*
X1473800Y1244200D01*
X1473000Y1244600D01*
X1472200Y1244200D01*
X1463200Y1249700D02*
X1463600Y1250500D01*
X1463200Y1251300D01*
X1464000Y1250900D01*
X1464800Y1251300D01*
X1464400Y1250500D01*
X1464800Y1249700D01*
X1464000Y1250100D01*
X1463200Y1249700D01*
X1307700Y1293200D02*
X1308100Y1294000D01*
X1307700Y1294800D01*
X1308500Y1294400D01*
X1309300Y1294800D01*
X1308900Y1294000D01*
X1309300Y1293200D01*
X1308500Y1293600D01*
X1307700Y1293200D01*
X1323700Y1291200D02*
X1324100Y1292000D01*
X1323700Y1292800D01*
X1324500Y1292400D01*
X1325300Y1292800D01*
X1324900Y1292000D01*
X1325300Y1291200D01*
X1324500Y1291600D01*
X1323700Y1291200D01*
X1327200D02*
X1327600Y1292000D01*
X1327200Y1292800D01*
X1328000Y1292400D01*
X1328800Y1292800D01*
X1328400Y1292000D01*
X1328800Y1291200D01*
X1328000Y1291600D01*
X1327200Y1291200D01*
X1323700Y1294700D02*
X1324100Y1295500D01*
X1323700Y1296300D01*
X1324500Y1295900D01*
X1325300Y1296300D01*
X1324900Y1295500D01*
X1325300Y1294700D01*
X1324500Y1295100D01*
X1323700Y1294700D01*
X1327200D02*
X1327600Y1295500D01*
X1327200Y1296300D01*
X1328000Y1295900D01*
X1328800Y1296300D01*
X1328400Y1295500D01*
X1328800Y1294700D01*
X1328000Y1295100D01*
X1327200Y1294700D01*
X1298200Y1216200D02*
X1298600Y1217000D01*
X1298200Y1217800D01*
X1299000Y1217400D01*
X1299800Y1217800D01*
X1299400Y1217000D01*
X1299800Y1216200D01*
X1299000Y1216600D01*
X1298200Y1216200D01*
Y1202700D02*
X1298600Y1203500D01*
X1298200Y1204300D01*
X1299000Y1203900D01*
X1299800Y1204300D01*
X1299400Y1203500D01*
X1299800Y1202700D01*
X1299000Y1203100D01*
X1298200Y1202700D01*
X1283472Y1230428D02*
X1283872Y1231228D01*
X1283472Y1232028D01*
X1284272Y1231628D01*
X1285072Y1232028D01*
X1284672Y1231228D01*
X1285072Y1230428D01*
X1284272Y1230828D01*
X1283472Y1230428D01*
X1283700Y1246700D02*
X1284100Y1247500D01*
X1283700Y1248300D01*
X1284500Y1247900D01*
X1285300Y1248300D01*
X1284900Y1247500D01*
X1285300Y1246700D01*
X1284500Y1247100D01*
X1283700Y1246700D01*
X1297200Y1255200D02*
X1297600Y1256000D01*
X1297200Y1256800D01*
X1298000Y1256400D01*
X1298800Y1256800D01*
X1298400Y1256000D01*
X1298800Y1255200D01*
X1298000Y1255600D01*
X1297200Y1255200D01*
X1492700Y1264700D02*
X1493100Y1265500D01*
X1492700Y1266300D01*
X1493500Y1265900D01*
X1494300Y1266300D01*
X1493900Y1265500D01*
X1494300Y1264700D01*
X1493500Y1265100D01*
X1492700Y1264700D01*
Y1262700D02*
X1493100Y1263500D01*
X1492700Y1264300D01*
X1493500Y1263900D01*
X1494300Y1264300D01*
X1493900Y1263500D01*
X1494300Y1262700D01*
X1493500Y1263100D01*
X1492700Y1262700D01*
Y1260700D02*
X1493100Y1261500D01*
X1492700Y1262300D01*
X1493500Y1261900D01*
X1494300Y1262300D01*
X1493900Y1261500D01*
X1494300Y1260700D01*
X1493500Y1261100D01*
X1492700Y1260700D01*
X1426200Y1298200D02*
X1426600Y1299000D01*
X1426200Y1299800D01*
X1427000Y1299400D01*
X1427800Y1299800D01*
X1427400Y1299000D01*
X1427800Y1298200D01*
X1427000Y1298600D01*
X1426200Y1298200D01*
X1421200D02*
X1421600Y1299000D01*
X1421200Y1299800D01*
X1422000Y1299400D01*
X1422800Y1299800D01*
X1422400Y1299000D01*
X1422800Y1298200D01*
X1422000Y1298600D01*
X1421200Y1298200D01*
X1497700Y1305200D02*
X1498100Y1306000D01*
X1497700Y1306800D01*
X1498500Y1306400D01*
X1499300Y1306800D01*
X1498900Y1306000D01*
X1499300Y1305200D01*
X1498500Y1305600D01*
X1497700Y1305200D01*
X1487700D02*
X1488100Y1306000D01*
X1487700Y1306800D01*
X1488500Y1306400D01*
X1489300Y1306800D01*
X1488900Y1306000D01*
X1489300Y1305200D01*
X1488500Y1305600D01*
X1487700Y1305200D01*
X1467700D02*
X1468100Y1306000D01*
X1467700Y1306800D01*
X1468500Y1306400D01*
X1469300Y1306800D01*
X1468900Y1306000D01*
X1469300Y1305200D01*
X1468500Y1305600D01*
X1467700Y1305200D01*
X1457700D02*
X1458100Y1306000D01*
X1457700Y1306800D01*
X1458500Y1306400D01*
X1459300Y1306800D01*
X1458900Y1306000D01*
X1459300Y1305200D01*
X1458500Y1305600D01*
X1457700Y1305200D01*
X1437700D02*
X1438100Y1306000D01*
X1437700Y1306800D01*
X1438500Y1306400D01*
X1439300Y1306800D01*
X1438900Y1306000D01*
X1439300Y1305200D01*
X1438500Y1305600D01*
X1437700Y1305200D01*
X1512200Y1230700D02*
X1512600Y1231500D01*
X1512200Y1232300D01*
X1513000Y1231900D01*
X1513800Y1232300D01*
X1513400Y1231500D01*
X1513800Y1230700D01*
X1513000Y1231100D01*
X1512200Y1230700D01*
Y1235700D02*
X1512600Y1236500D01*
X1512200Y1237300D01*
X1513000Y1236900D01*
X1513800Y1237300D01*
X1513400Y1236500D01*
X1513800Y1235700D01*
X1513000Y1236100D01*
X1512200Y1235700D01*
X1505700Y1230700D02*
X1506100Y1231500D01*
X1505700Y1232300D01*
X1506500Y1231900D01*
X1507300Y1232300D01*
X1506900Y1231500D01*
X1507300Y1230700D01*
X1506500Y1231100D01*
X1505700Y1230700D01*
Y1235700D02*
X1506100Y1236500D01*
X1505700Y1237300D01*
X1506500Y1236900D01*
X1507300Y1237300D01*
X1506900Y1236500D01*
X1507300Y1235700D01*
X1506500Y1236100D01*
X1505700Y1235700D01*
X1520700Y1303700D02*
X1521100Y1304500D01*
X1520700Y1305300D01*
X1521500Y1304900D01*
X1522300Y1305300D01*
X1521900Y1304500D01*
X1522300Y1303700D01*
X1521500Y1304100D01*
X1520700Y1303700D01*
X1525700D02*
X1526100Y1304500D01*
X1525700Y1305300D01*
X1526500Y1304900D01*
X1527300Y1305300D01*
X1526900Y1304500D01*
X1527300Y1303700D01*
X1526500Y1304100D01*
X1525700Y1303700D01*
X1507700Y1305200D02*
X1508100Y1306000D01*
X1507700Y1306800D01*
X1508500Y1306400D01*
X1509300Y1306800D01*
X1508900Y1306000D01*
X1509300Y1305200D01*
X1508500Y1305600D01*
X1507700Y1305200D01*
Y1310200D02*
X1508100Y1311000D01*
X1507700Y1311800D01*
X1508500Y1311400D01*
X1509300Y1311800D01*
X1508900Y1311000D01*
X1509300Y1310200D01*
X1508500Y1310600D01*
X1507700Y1310200D01*
X1477700Y1305200D02*
X1478100Y1306000D01*
X1477700Y1306800D01*
X1478500Y1306400D01*
X1479300Y1306800D01*
X1478900Y1306000D01*
X1479300Y1305200D01*
X1478500Y1305600D01*
X1477700Y1305200D01*
Y1310200D02*
X1478100Y1311000D01*
X1477700Y1311800D01*
X1478500Y1311400D01*
X1479300Y1311800D01*
X1478900Y1311000D01*
X1479300Y1310200D01*
X1478500Y1310600D01*
X1477700Y1310200D01*
X1447700Y1305200D02*
X1448100Y1306000D01*
X1447700Y1306800D01*
X1448500Y1306400D01*
X1449300Y1306800D01*
X1448900Y1306000D01*
X1449300Y1305200D01*
X1448500Y1305600D01*
X1447700Y1305200D01*
Y1310200D02*
X1448100Y1311000D01*
X1447700Y1311800D01*
X1448500Y1311400D01*
X1449300Y1311800D01*
X1448900Y1311000D01*
X1449300Y1310200D01*
X1448500Y1310600D01*
X1447700Y1310200D01*
X1421200Y1286200D02*
X1421600Y1287000D01*
X1421200Y1287800D01*
X1422000Y1287400D01*
X1422800Y1287800D01*
X1422400Y1287000D01*
X1422800Y1286200D01*
X1422000Y1286600D01*
X1421200Y1286200D01*
X1426200D02*
X1426600Y1287000D01*
X1426200Y1287800D01*
X1427000Y1287400D01*
X1427800Y1287800D01*
X1427400Y1287000D01*
X1427800Y1286200D01*
X1427000Y1286600D01*
X1426200Y1286200D01*
X1424200Y1255200D02*
X1424600Y1256000D01*
X1424200Y1256800D01*
X1425000Y1256400D01*
X1425800Y1256800D01*
X1425400Y1256000D01*
X1425800Y1255200D01*
X1425000Y1255600D01*
X1424200Y1255200D01*
X1334243Y1223083D02*
X1334643Y1223883D01*
X1334243Y1224683D01*
X1335043Y1224283D01*
X1335843Y1224683D01*
X1335443Y1223883D01*
X1335843Y1223083D01*
X1335043Y1223483D01*
X1334243Y1223083D01*
X1343157Y1223317D02*
X1343557Y1224117D01*
X1343157Y1224917D01*
X1343957Y1224517D01*
X1344757Y1224917D01*
X1344357Y1224117D01*
X1344757Y1223317D01*
X1343957Y1223717D01*
X1343157Y1223317D01*
X1344200Y1212700D02*
X1344600Y1213500D01*
X1344200Y1214300D01*
X1345000Y1213900D01*
X1345800Y1214300D01*
X1345400Y1213500D01*
X1345800Y1212700D01*
X1345000Y1213100D01*
X1344200Y1212700D01*
X1380200Y1301700D02*
X1380600Y1302500D01*
X1380200Y1303300D01*
X1381000Y1302900D01*
X1381800Y1303300D01*
X1381400Y1302500D01*
X1381800Y1301700D01*
X1381000Y1302100D01*
X1380200Y1301700D01*
X1307700Y1296700D02*
X1308100Y1297500D01*
X1307700Y1298300D01*
X1308500Y1297900D01*
X1309300Y1298300D01*
X1308900Y1297500D01*
X1309300Y1296700D01*
X1308500Y1297100D01*
X1307700Y1296700D01*
X1304200D02*
X1304600Y1297500D01*
X1304200Y1298300D01*
X1305000Y1297900D01*
X1305800Y1298300D01*
X1305400Y1297500D01*
X1305800Y1296700D01*
X1305000Y1297100D01*
X1304200Y1296700D01*
X1367700Y1255700D02*
X1368100Y1256500D01*
X1367700Y1257300D01*
X1368500Y1256900D01*
X1369300Y1257300D01*
X1368900Y1256500D01*
X1369300Y1255700D01*
X1368500Y1256100D01*
X1367700Y1255700D01*
Y1252200D02*
X1368100Y1253000D01*
X1367700Y1253800D01*
X1368500Y1253400D01*
X1369300Y1253800D01*
X1368900Y1253000D01*
X1369300Y1252200D01*
X1368500Y1252600D01*
X1367700Y1252200D01*
X1407700Y1287700D02*
X1408100Y1288500D01*
X1407700Y1289300D01*
X1408500Y1288900D01*
X1409300Y1289300D01*
X1408900Y1288500D01*
X1409300Y1287700D01*
X1408500Y1288100D01*
X1407700Y1287700D01*
X1510700Y1293700D02*
X1511100Y1294500D01*
X1510700Y1295300D01*
X1511500Y1294900D01*
X1512300Y1295300D01*
X1511900Y1294500D01*
X1512300Y1293700D01*
X1511500Y1294100D01*
X1510700Y1293700D01*
X1421700Y1275200D02*
X1422100Y1276000D01*
X1421700Y1276800D01*
X1422500Y1276400D01*
X1423300Y1276800D01*
X1422900Y1276000D01*
X1423300Y1275200D01*
X1422500Y1275600D01*
X1421700Y1275200D01*
X1392200Y1259200D02*
X1392600Y1260000D01*
X1392200Y1260800D01*
X1393000Y1260400D01*
X1393800Y1260800D01*
X1393400Y1260000D01*
X1393800Y1259200D01*
X1393000Y1259600D01*
X1392200Y1259200D01*
X1395700Y1255700D02*
X1396100Y1256500D01*
X1395700Y1257300D01*
X1396500Y1256900D01*
X1397300Y1257300D01*
X1396900Y1256500D01*
X1397300Y1255700D01*
X1396500Y1256100D01*
X1395700Y1255700D01*
X1380200Y1293200D02*
X1380600Y1294000D01*
X1380200Y1294800D01*
X1381000Y1294400D01*
X1381800Y1294800D01*
X1381400Y1294000D01*
X1381800Y1293200D01*
X1381000Y1293600D01*
X1380200Y1293200D01*
X1367700Y1270200D02*
X1368100Y1271000D01*
X1367700Y1271800D01*
X1368500Y1271400D01*
X1369300Y1271800D01*
X1368900Y1271000D01*
X1369300Y1270200D01*
X1368500Y1270600D01*
X1367700Y1270200D01*
X1360700Y1277200D02*
X1361100Y1278000D01*
X1360700Y1278800D01*
X1361500Y1278400D01*
X1362300Y1278800D01*
X1361900Y1278000D01*
X1362300Y1277200D01*
X1361500Y1277600D01*
X1360700Y1277200D01*
X1367700D02*
X1368100Y1278000D01*
X1367700Y1278800D01*
X1368500Y1278400D01*
X1369300Y1278800D01*
X1368900Y1278000D01*
X1369300Y1277200D01*
X1368500Y1277600D01*
X1367700Y1277200D01*
Y1273700D02*
X1368100Y1274500D01*
X1367700Y1275300D01*
X1368500Y1274900D01*
X1369300Y1275300D01*
X1368900Y1274500D01*
X1369300Y1273700D01*
X1368500Y1274100D01*
X1367700Y1273700D01*
X1371200Y1277200D02*
X1371600Y1278000D01*
X1371200Y1278800D01*
X1372000Y1278400D01*
X1372800Y1278800D01*
X1372400Y1278000D01*
X1372800Y1277200D01*
X1372000Y1277600D01*
X1371200Y1277200D01*
X1402296Y1277296D02*
X1402696Y1278096D01*
X1402296Y1278896D01*
X1403096Y1278496D01*
X1403896Y1278896D01*
X1403496Y1278096D01*
X1403896Y1277296D01*
X1403096Y1277696D01*
X1402296Y1277296D01*
X1357200Y1252700D02*
X1357600Y1253500D01*
X1357200Y1254300D01*
X1358000Y1253900D01*
X1358800Y1254300D01*
X1358400Y1253500D01*
X1358800Y1252700D01*
X1358000Y1253100D01*
X1357200Y1252700D01*
X1397700Y1283200D02*
X1398100Y1284000D01*
X1397700Y1284800D01*
X1398500Y1284400D01*
X1399300Y1284800D01*
X1398900Y1284000D01*
X1399300Y1283200D01*
X1398500Y1283600D01*
X1397700Y1283200D01*
X1400700D02*
X1401100Y1284000D01*
X1400700Y1284800D01*
X1401500Y1284400D01*
X1402300Y1284800D01*
X1401900Y1284000D01*
X1402300Y1283200D01*
X1401500Y1283600D01*
X1400700Y1283200D01*
X1414700Y1287700D02*
X1415100Y1288500D01*
X1414700Y1289300D01*
X1415500Y1288900D01*
X1416300Y1289300D01*
X1415900Y1288500D01*
X1416300Y1287700D01*
X1415500Y1288100D01*
X1414700Y1287700D01*
X1411950Y1281280D02*
X1412350Y1282080D01*
X1411950Y1282880D01*
X1412750Y1282480D01*
X1413550Y1282880D01*
X1413150Y1282080D01*
X1413550Y1281280D01*
X1412750Y1281680D01*
X1411950Y1281280D01*
X1425200Y1275200D02*
X1425600Y1276000D01*
X1425200Y1276800D01*
X1426000Y1276400D01*
X1426800Y1276800D01*
X1426400Y1276000D01*
X1426800Y1275200D01*
X1426000Y1275600D01*
X1425200Y1275200D01*
Y1278700D02*
X1425600Y1279500D01*
X1425200Y1280300D01*
X1426000Y1279900D01*
X1426800Y1280300D01*
X1426400Y1279500D01*
X1426800Y1278700D01*
X1426000Y1279100D01*
X1425200Y1278700D01*
X1428900Y1254868D02*
X1429300Y1255668D01*
X1428900Y1256468D01*
X1429700Y1256068D01*
X1430500Y1256468D01*
X1430100Y1255668D01*
X1430500Y1254868D01*
X1429700Y1255268D01*
X1428900Y1254868D01*
X1392200Y1280200D02*
X1392600Y1281000D01*
X1392200Y1281800D01*
X1393000Y1281400D01*
X1393800Y1281800D01*
X1393400Y1281000D01*
X1393800Y1280200D01*
X1393000Y1280600D01*
X1392200Y1280200D01*
X1357200Y1270200D02*
X1357600Y1271000D01*
X1357200Y1271800D01*
X1358000Y1271400D01*
X1358800Y1271800D01*
X1358400Y1271000D01*
X1358800Y1270200D01*
X1358000Y1270600D01*
X1357200Y1270200D01*
X1354200Y1283200D02*
X1354600Y1284000D01*
X1354200Y1284800D01*
X1355000Y1284400D01*
X1355800Y1284800D01*
X1355400Y1284000D01*
X1355800Y1283200D01*
X1355000Y1283600D01*
X1354200Y1283200D01*
Y1279700D02*
X1354600Y1280500D01*
X1354200Y1281300D01*
X1355000Y1280900D01*
X1355800Y1281300D01*
X1355400Y1280500D01*
X1355800Y1279700D01*
X1355000Y1280100D01*
X1354200Y1279700D01*
X1334560Y1281060D02*
X1334960Y1281860D01*
X1334560Y1282660D01*
X1335360Y1282260D01*
X1336160Y1282660D01*
X1335760Y1281860D01*
X1336160Y1281060D01*
X1335360Y1281460D01*
X1334560Y1281060D01*
X1360700Y1266700D02*
X1361100Y1267500D01*
X1360700Y1268300D01*
X1361500Y1267900D01*
X1362300Y1268300D01*
X1361900Y1267500D01*
X1362300Y1266700D01*
X1361500Y1267100D01*
X1360700Y1266700D01*
X1357200D02*
X1357600Y1267500D01*
X1357200Y1268300D01*
X1358000Y1267900D01*
X1358800Y1268300D01*
X1358400Y1267500D01*
X1358800Y1266700D01*
X1358000Y1267100D01*
X1357200Y1266700D01*
X1360700Y1263200D02*
X1361100Y1264000D01*
X1360700Y1264800D01*
X1361500Y1264400D01*
X1362300Y1264800D01*
X1361900Y1264000D01*
X1362300Y1263200D01*
X1361500Y1263600D01*
X1360700Y1263200D01*
Y1259700D02*
X1361100Y1260500D01*
X1360700Y1261300D01*
X1361500Y1260900D01*
X1362300Y1261300D01*
X1361900Y1260500D01*
X1362300Y1259700D01*
X1361500Y1260100D01*
X1360700Y1259700D01*
Y1256200D02*
X1361100Y1257000D01*
X1360700Y1257800D01*
X1361500Y1257400D01*
X1362300Y1257800D01*
X1361900Y1257000D01*
X1362300Y1256200D01*
X1361500Y1256600D01*
X1360700Y1256200D01*
X1357200Y1263200D02*
X1357600Y1264000D01*
X1357200Y1264800D01*
X1358000Y1264400D01*
X1358800Y1264800D01*
X1358400Y1264000D01*
X1358800Y1263200D01*
X1358000Y1263600D01*
X1357200Y1263200D01*
Y1259700D02*
X1357600Y1260500D01*
X1357200Y1261300D01*
X1358000Y1260900D01*
X1358800Y1261300D01*
X1358400Y1260500D01*
X1358800Y1259700D01*
X1358000Y1260100D01*
X1357200Y1259700D01*
Y1256200D02*
X1357600Y1257000D01*
X1357200Y1257800D01*
X1358000Y1257400D01*
X1358800Y1257800D01*
X1358400Y1257000D01*
X1358800Y1256200D01*
X1358000Y1256600D01*
X1357200Y1256200D01*
X1320700Y1282200D02*
X1321100Y1283000D01*
X1320700Y1283800D01*
X1321500Y1283400D01*
X1322300Y1283800D01*
X1321900Y1283000D01*
X1322300Y1282200D01*
X1321500Y1282600D01*
X1320700Y1282200D01*
X1324200Y1271200D02*
X1324600Y1272000D01*
X1324200Y1272800D01*
X1325000Y1272400D01*
X1325800Y1272800D01*
X1325400Y1272000D01*
X1325800Y1271200D01*
X1325000Y1271600D01*
X1324200Y1271200D01*
X1318758Y1270870D02*
X1319158Y1271670D01*
X1318758Y1272470D01*
X1319558Y1272070D01*
X1320358Y1272470D01*
X1319958Y1271670D01*
X1320358Y1270870D01*
X1319558Y1271270D01*
X1318758Y1270870D01*
X1330142Y1281142D02*
X1330542Y1281942D01*
X1330142Y1282742D01*
X1330942Y1282342D01*
X1331742Y1282742D01*
X1331342Y1281942D01*
X1331742Y1281142D01*
X1330942Y1281542D01*
X1330142Y1281142D01*
X1493700Y1218200D02*
X1494100Y1219000D01*
X1493700Y1219800D01*
X1494500Y1219400D01*
X1495300Y1219800D01*
X1494900Y1219000D01*
X1495300Y1218200D01*
X1494500Y1218600D01*
X1493700Y1218200D01*
X1395700Y1252200D02*
X1396100Y1253000D01*
X1395700Y1253800D01*
X1396500Y1253400D01*
X1397300Y1253800D01*
X1396900Y1253000D01*
X1397300Y1252200D01*
X1396500Y1252600D01*
X1395700Y1252200D01*
X1420700Y1255200D02*
X1421100Y1256000D01*
X1420700Y1256800D01*
X1421500Y1256400D01*
X1422300Y1256800D01*
X1421900Y1256000D01*
X1422300Y1255200D01*
X1421500Y1255600D01*
X1420700Y1255200D01*
X1412136Y1255850D02*
X1412536Y1256650D01*
X1412136Y1257450D01*
X1412936Y1257050D01*
X1413736Y1257450D01*
X1413336Y1256650D01*
X1413736Y1255850D01*
X1412936Y1256250D01*
X1412136Y1255850D01*
X1395700Y1248700D02*
X1396100Y1249500D01*
X1395700Y1250300D01*
X1396500Y1249900D01*
X1397300Y1250300D01*
X1396900Y1249500D01*
X1397300Y1248700D01*
X1396500Y1249100D01*
X1395700Y1248700D01*
X1401519Y1223699D02*
X1401919Y1224499D01*
X1401519Y1225299D01*
X1402319Y1224899D01*
X1403119Y1225299D01*
X1402719Y1224499D01*
X1403119Y1223699D01*
X1402319Y1224099D01*
X1401519Y1223699D01*
X1373174Y1236226D02*
X1373574Y1237026D01*
X1373174Y1237826D01*
X1373974Y1237426D01*
X1374774Y1237826D01*
X1374374Y1237026D01*
X1374774Y1236226D01*
X1373974Y1236626D01*
X1373174Y1236226D01*
X1395700Y1276700D02*
X1396100Y1277500D01*
X1395700Y1278300D01*
X1396500Y1277900D01*
X1397300Y1278300D01*
X1396900Y1277500D01*
X1397300Y1276700D01*
X1396500Y1277100D01*
X1395700Y1276700D01*
X1392200D02*
X1392600Y1277500D01*
X1392200Y1278300D01*
X1393000Y1277900D01*
X1393800Y1278300D01*
X1393400Y1277500D01*
X1393800Y1276700D01*
X1393000Y1277100D01*
X1392200Y1276700D01*
Y1273200D02*
X1392600Y1274000D01*
X1392200Y1274800D01*
X1393000Y1274400D01*
X1393800Y1274800D01*
X1393400Y1274000D01*
X1393800Y1273200D01*
X1393000Y1273600D01*
X1392200Y1273200D01*
X1395700D02*
X1396100Y1274000D01*
X1395700Y1274800D01*
X1396500Y1274400D01*
X1397300Y1274800D01*
X1396900Y1274000D01*
X1397300Y1273200D01*
X1396500Y1273600D01*
X1395700Y1273200D01*
Y1262700D02*
X1396100Y1263500D01*
X1395700Y1264300D01*
X1396500Y1263900D01*
X1397300Y1264300D01*
X1396900Y1263500D01*
X1397300Y1262700D01*
X1396500Y1263100D01*
X1395700Y1262700D01*
Y1259200D02*
X1396100Y1260000D01*
X1395700Y1260800D01*
X1396500Y1260400D01*
X1397300Y1260800D01*
X1396900Y1260000D01*
X1397300Y1259200D01*
X1396500Y1259600D01*
X1395700Y1259200D01*
X1417200Y1247200D02*
X1417600Y1248000D01*
X1417200Y1248800D01*
X1418000Y1248400D01*
X1418800Y1248800D01*
X1418400Y1248000D01*
X1418800Y1247200D01*
X1418000Y1247600D01*
X1417200Y1247200D01*
X1413700D02*
X1414100Y1248000D01*
X1413700Y1248800D01*
X1414500Y1248400D01*
X1415300Y1248800D01*
X1414900Y1248000D01*
X1415300Y1247200D01*
X1414500Y1247600D01*
X1413700Y1247200D01*
X1417200Y1243700D02*
X1417600Y1244500D01*
X1417200Y1245300D01*
X1418000Y1244900D01*
X1418800Y1245300D01*
X1418400Y1244500D01*
X1418800Y1243700D01*
X1418000Y1244100D01*
X1417200Y1243700D01*
X1413700D02*
X1414100Y1244500D01*
X1413700Y1245300D01*
X1414500Y1244900D01*
X1415300Y1245300D01*
X1414900Y1244500D01*
X1415300Y1243700D01*
X1414500Y1244100D01*
X1413700Y1243700D01*
Y1250700D02*
X1414100Y1251500D01*
X1413700Y1252300D01*
X1414500Y1251900D01*
X1415300Y1252300D01*
X1414900Y1251500D01*
X1415300Y1250700D01*
X1414500Y1251100D01*
X1413700Y1250700D01*
X1417200D02*
X1417600Y1251500D01*
X1417200Y1252300D01*
X1418000Y1251900D01*
X1418800Y1252300D01*
X1418400Y1251500D01*
X1418800Y1250700D01*
X1418000Y1251100D01*
X1417200Y1250700D01*
X1395700Y1245200D02*
X1396100Y1246000D01*
X1395700Y1246800D01*
X1396500Y1246400D01*
X1397300Y1246800D01*
X1396900Y1246000D01*
X1397300Y1245200D01*
X1396500Y1245600D01*
X1395700Y1245200D01*
X1392200D02*
X1392600Y1246000D01*
X1392200Y1246800D01*
X1393000Y1246400D01*
X1393800Y1246800D01*
X1393400Y1246000D01*
X1393800Y1245200D01*
X1393000Y1245600D01*
X1392200Y1245200D01*
Y1238200D02*
X1392600Y1239000D01*
X1392200Y1239800D01*
X1393000Y1239400D01*
X1393800Y1239800D01*
X1393400Y1239000D01*
X1393800Y1238200D01*
X1393000Y1238600D01*
X1392200Y1238200D01*
X1395700D02*
X1396100Y1239000D01*
X1395700Y1239800D01*
X1396500Y1239400D01*
X1397300Y1239800D01*
X1396900Y1239000D01*
X1397300Y1238200D01*
X1396500Y1238600D01*
X1395700Y1238200D01*
X1392200Y1241700D02*
X1392600Y1242500D01*
X1392200Y1243300D01*
X1393000Y1242900D01*
X1393800Y1243300D01*
X1393400Y1242500D01*
X1393800Y1241700D01*
X1393000Y1242100D01*
X1392200Y1241700D01*
X1395700D02*
X1396100Y1242500D01*
X1395700Y1243300D01*
X1396500Y1242900D01*
X1397300Y1243300D01*
X1396900Y1242500D01*
X1397300Y1241700D01*
X1396500Y1242100D01*
X1395700Y1241700D01*
X1398200Y1223200D02*
X1398600Y1224000D01*
X1398200Y1224800D01*
X1399000Y1224400D01*
X1399800Y1224800D01*
X1399400Y1224000D01*
X1399800Y1223200D01*
X1399000Y1223600D01*
X1398200Y1223200D01*
X1373282Y1233187D02*
X1373682Y1233988D01*
X1373282Y1234787D01*
X1374082Y1234387D01*
X1374882Y1234787D01*
X1374482Y1233988D01*
X1374882Y1233187D01*
X1374082Y1233587D01*
X1373282Y1233187D01*
X1381700Y1239700D02*
X1382100Y1240500D01*
X1381700Y1241300D01*
X1382500Y1240900D01*
X1383300Y1241300D01*
X1382900Y1240500D01*
X1383300Y1239700D01*
X1382500Y1240100D01*
X1381700Y1239700D01*
Y1243200D02*
X1382100Y1244000D01*
X1381700Y1244800D01*
X1382500Y1244400D01*
X1383300Y1244800D01*
X1382900Y1244000D01*
X1383300Y1243200D01*
X1382500Y1243600D01*
X1381700Y1243200D01*
X1378200Y1239700D02*
X1378600Y1240500D01*
X1378200Y1241300D01*
X1379000Y1240900D01*
X1379800Y1241300D01*
X1379400Y1240500D01*
X1379800Y1239700D01*
X1379000Y1240100D01*
X1378200Y1239700D01*
Y1243200D02*
X1378600Y1244000D01*
X1378200Y1244800D01*
X1379000Y1244400D01*
X1379800Y1244800D01*
X1379400Y1244000D01*
X1379800Y1243200D01*
X1379000Y1243600D01*
X1378200Y1243200D01*
X1374700Y1239700D02*
X1375100Y1240500D01*
X1374700Y1241300D01*
X1375500Y1240900D01*
X1376300Y1241300D01*
X1375900Y1240500D01*
X1376300Y1239700D01*
X1375500Y1240100D01*
X1374700Y1239700D01*
Y1243200D02*
X1375100Y1244000D01*
X1374700Y1244800D01*
X1375500Y1244400D01*
X1376300Y1244800D01*
X1375900Y1244000D01*
X1376300Y1243200D01*
X1375500Y1243600D01*
X1374700Y1243200D01*
X1381697Y1212926D02*
X1382097Y1213726D01*
X1381697Y1214526D01*
X1382497Y1214126D01*
X1383297Y1214526D01*
X1382897Y1213726D01*
X1383297Y1212926D01*
X1382497Y1213326D01*
X1381697Y1212926D01*
X1367700Y1243200D02*
X1368100Y1244000D01*
X1367700Y1244800D01*
X1368500Y1244400D01*
X1369300Y1244800D01*
X1368900Y1244000D01*
X1369300Y1243200D01*
X1368500Y1243600D01*
X1367700Y1243200D01*
X1371200D02*
X1371600Y1244000D01*
X1371200Y1244800D01*
X1372000Y1244400D01*
X1372800Y1244800D01*
X1372400Y1244000D01*
X1372800Y1243200D01*
X1372000Y1243600D01*
X1371200Y1243200D01*
Y1239700D02*
X1371600Y1240500D01*
X1371200Y1241300D01*
X1372000Y1240900D01*
X1372800Y1241300D01*
X1372400Y1240500D01*
X1372800Y1239700D01*
X1372000Y1240100D01*
X1371200Y1239700D01*
X1364200Y1243200D02*
X1364600Y1244000D01*
X1364200Y1244800D01*
X1365000Y1244400D01*
X1365800Y1244800D01*
X1365400Y1244000D01*
X1365800Y1243200D01*
X1365000Y1243600D01*
X1364200Y1243200D01*
X1360700D02*
X1361100Y1244000D01*
X1360700Y1244800D01*
X1361500Y1244400D01*
X1362300Y1244800D01*
X1361900Y1244000D01*
X1362300Y1243200D01*
X1361500Y1243600D01*
X1360700Y1243200D01*
Y1239700D02*
X1361100Y1240500D01*
X1360700Y1241300D01*
X1361500Y1240900D01*
X1362300Y1241300D01*
X1361900Y1240500D01*
X1362300Y1239700D01*
X1361500Y1240100D01*
X1360700Y1239700D01*
X1341200Y1235000D02*
X1341600Y1235800D01*
X1341200Y1236600D01*
X1342000Y1236200D01*
X1342800Y1236600D01*
X1342400Y1235800D01*
X1342800Y1235000D01*
X1342000Y1235400D01*
X1341200Y1235000D01*
Y1232700D02*
X1341600Y1233500D01*
X1341200Y1234300D01*
X1342000Y1233900D01*
X1342800Y1234300D01*
X1342400Y1233500D01*
X1342800Y1232700D01*
X1342000Y1233100D01*
X1341200Y1232700D01*
X1357200Y1239700D02*
X1357600Y1240500D01*
X1357200Y1241300D01*
X1358000Y1240900D01*
X1358800Y1241300D01*
X1358400Y1240500D01*
X1358800Y1239700D01*
X1358000Y1240100D01*
X1357200Y1239700D01*
Y1243200D02*
X1357600Y1244000D01*
X1357200Y1244800D01*
X1358000Y1244400D01*
X1358800Y1244800D01*
X1358400Y1244000D01*
X1358800Y1243200D01*
X1358000Y1243600D01*
X1357200Y1243200D01*
X1353700D02*
X1354100Y1244000D01*
X1353700Y1244800D01*
X1354500Y1244400D01*
X1355300Y1244800D01*
X1354900Y1244000D01*
X1355300Y1243200D01*
X1354500Y1243600D01*
X1353700Y1243200D01*
Y1239700D02*
X1354100Y1240500D01*
X1353700Y1241300D01*
X1354500Y1240900D01*
X1355300Y1241300D01*
X1354900Y1240500D01*
X1355300Y1239700D01*
X1354500Y1240100D01*
X1353700Y1239700D01*
X1396700Y1233200D02*
X1397100Y1234000D01*
X1396700Y1234800D01*
X1397500Y1234400D01*
X1398300Y1234800D01*
X1397900Y1234000D01*
X1398300Y1233200D01*
X1397500Y1233600D01*
X1396700Y1233200D01*
X1392200D02*
X1392600Y1234000D01*
X1392200Y1234800D01*
X1393000Y1234400D01*
X1393800Y1234800D01*
X1393400Y1234000D01*
X1393800Y1233200D01*
X1393000Y1233600D01*
X1392200Y1233200D01*
X1431441Y1218453D02*
X1431841Y1219253D01*
X1431441Y1220053D01*
X1432241Y1219653D01*
X1433041Y1220053D01*
X1432641Y1219253D01*
X1433041Y1218453D01*
X1432241Y1218853D01*
X1431441Y1218453D01*
X1334060Y1215342D02*
X1334460Y1216142D01*
X1334060Y1216942D01*
X1334860Y1216542D01*
X1335660Y1216942D01*
X1335260Y1216142D01*
X1335660Y1215342D01*
X1334860Y1215742D01*
X1334060Y1215342D01*
Y1218842D02*
X1334460Y1219642D01*
X1334060Y1220442D01*
X1334860Y1220042D01*
X1335660Y1220442D01*
X1335260Y1219642D01*
X1335660Y1218842D01*
X1334860Y1219242D01*
X1334060Y1218842D01*
X1336705Y1267483D02*
X1337105Y1268283D01*
X1336705Y1269083D01*
X1337505Y1268683D01*
X1338305Y1269083D01*
X1337905Y1268283D01*
X1338305Y1267483D01*
X1337505Y1267883D01*
X1336705Y1267483D01*
X1338051Y1275428D02*
X1338451Y1276228D01*
X1338051Y1277028D01*
X1338851Y1276628D01*
X1339651Y1277028D01*
X1339251Y1276228D01*
X1339651Y1275428D01*
X1338851Y1275828D01*
X1338051Y1275428D01*
X1338289Y1263928D02*
X1338689Y1264728D01*
X1338289Y1265528D01*
X1339089Y1265128D01*
X1339889Y1265528D01*
X1339489Y1264728D01*
X1339889Y1263928D01*
X1339089Y1264328D01*
X1338289Y1263928D01*
X1328700Y1243200D02*
X1329100Y1244000D01*
X1328700Y1244800D01*
X1329500Y1244400D01*
X1330300Y1244800D01*
X1329900Y1244000D01*
X1330300Y1243200D01*
X1329500Y1243600D01*
X1328700Y1243200D01*
Y1259700D02*
X1329100Y1260500D01*
X1328700Y1261300D01*
X1329500Y1260900D01*
X1330300Y1261300D01*
X1329900Y1260500D01*
X1330300Y1259700D01*
X1329500Y1260100D01*
X1328700Y1259700D01*
X1322200D02*
X1322600Y1260500D01*
X1322200Y1261300D01*
X1323000Y1260900D01*
X1323800Y1261300D01*
X1323400Y1260500D01*
X1323800Y1259700D01*
X1323000Y1260100D01*
X1322200Y1259700D01*
Y1243200D02*
X1322600Y1244000D01*
X1322200Y1244800D01*
X1323000Y1244400D01*
X1323800Y1244800D01*
X1323400Y1244000D01*
X1323800Y1243200D01*
X1323000Y1243600D01*
X1322200Y1243200D01*
X1318700Y1251280D02*
X1319100Y1252081D01*
X1318700Y1252880D01*
X1319500Y1252481D01*
X1320300Y1252880D01*
X1319900Y1252081D01*
X1320300Y1251280D01*
X1319500Y1251680D01*
X1318700Y1251280D01*
X1334700Y1259700D02*
X1335100Y1260500D01*
X1334700Y1261300D01*
X1335500Y1260900D01*
X1336300Y1261300D01*
X1335900Y1260500D01*
X1336300Y1259700D01*
X1335500Y1260100D01*
X1334700Y1259700D01*
Y1243200D02*
X1335100Y1244000D01*
X1334700Y1244800D01*
X1335500Y1244400D01*
X1336300Y1244800D01*
X1335900Y1244000D01*
X1336300Y1243200D01*
X1335500Y1243600D01*
X1334700Y1243200D01*
X1438200Y1259200D02*
X1438600Y1260000D01*
X1438200Y1260800D01*
X1439000Y1260400D01*
X1439800Y1260800D01*
X1439400Y1260000D01*
X1439800Y1259200D01*
X1439000Y1259600D01*
X1438200Y1259200D01*
X1453200Y1257700D02*
X1453600Y1258500D01*
X1453200Y1259300D01*
X1454000Y1258900D01*
X1454800Y1259300D01*
X1454400Y1258500D01*
X1454800Y1257700D01*
X1454000Y1258100D01*
X1453200Y1257700D01*
X1440700Y1259200D02*
X1441100Y1260000D01*
X1440700Y1260800D01*
X1441500Y1260400D01*
X1442300Y1260800D01*
X1441900Y1260000D01*
X1442300Y1259200D01*
X1441500Y1259600D01*
X1440700Y1259200D01*
X1540700Y1236700D02*
X1541100Y1237500D01*
X1540700Y1238300D01*
X1541500Y1237900D01*
X1542300Y1238300D01*
X1541900Y1237500D01*
X1542300Y1236700D01*
X1541500Y1237100D01*
X1540700Y1236700D01*
Y1234700D02*
X1541100Y1235500D01*
X1540700Y1236300D01*
X1541500Y1235900D01*
X1542300Y1236300D01*
X1541900Y1235500D01*
X1542300Y1234700D01*
X1541500Y1235100D01*
X1540700Y1234700D01*
Y1232700D02*
X1541100Y1233500D01*
X1540700Y1234300D01*
X1541500Y1233900D01*
X1542300Y1234300D01*
X1541900Y1233500D01*
X1542300Y1232700D01*
X1541500Y1233100D01*
X1540700Y1232700D01*
Y1226700D02*
X1541100Y1227500D01*
X1540700Y1228300D01*
X1541500Y1227900D01*
X1542300Y1228300D01*
X1541900Y1227500D01*
X1542300Y1226700D01*
X1541500Y1227100D01*
X1540700Y1226700D01*
Y1224700D02*
X1541100Y1225500D01*
X1540700Y1226300D01*
X1541500Y1225900D01*
X1542300Y1226300D01*
X1541900Y1225500D01*
X1542300Y1224700D01*
X1541500Y1225100D01*
X1540700Y1224700D01*
Y1222700D02*
X1541100Y1223500D01*
X1540700Y1224300D01*
X1541500Y1223900D01*
X1542300Y1224300D01*
X1541900Y1223500D01*
X1542300Y1222700D01*
X1541500Y1223100D01*
X1540700Y1222700D01*
X1507200Y1283200D02*
X1507600Y1284000D01*
X1507200Y1284800D01*
X1508000Y1284400D01*
X1508800Y1284800D01*
X1508400Y1284000D01*
X1508800Y1283200D01*
X1508000Y1283600D01*
X1507200Y1283200D01*
X1453200Y1284200D02*
X1453600Y1285000D01*
X1453200Y1285800D01*
X1454000Y1285400D01*
X1454800Y1285800D01*
X1454400Y1285000D01*
X1454800Y1284200D01*
X1454000Y1284600D01*
X1453200Y1284200D01*
X1450700D02*
X1451100Y1285000D01*
X1450700Y1285800D01*
X1451500Y1285400D01*
X1452300Y1285800D01*
X1451900Y1285000D01*
X1452300Y1284200D01*
X1451500Y1284600D01*
X1450700Y1284200D01*
X1453200Y1281200D02*
X1453600Y1282000D01*
X1453200Y1282800D01*
X1454000Y1282400D01*
X1454800Y1282800D01*
X1454400Y1282000D01*
X1454800Y1281200D01*
X1454000Y1281600D01*
X1453200Y1281200D01*
X1436200Y1300200D02*
X1436600Y1301000D01*
X1436200Y1301800D01*
X1437000Y1301400D01*
X1437800Y1301800D01*
X1437400Y1301000D01*
X1437800Y1300200D01*
X1437000Y1300600D01*
X1436200Y1300200D01*
Y1296200D02*
X1436600Y1297000D01*
X1436200Y1297800D01*
X1437000Y1297400D01*
X1437800Y1297800D01*
X1437400Y1297000D01*
X1437800Y1296200D01*
X1437000Y1296600D01*
X1436200Y1296200D01*
Y1298200D02*
X1436600Y1299000D01*
X1436200Y1299800D01*
X1437000Y1299400D01*
X1437800Y1299800D01*
X1437400Y1299000D01*
X1437800Y1298200D01*
X1437000Y1298600D01*
X1436200Y1298200D01*
X1434700Y1272700D02*
X1435100Y1273500D01*
X1434700Y1274300D01*
X1435500Y1273900D01*
X1436300Y1274300D01*
X1435900Y1273500D01*
X1436300Y1272700D01*
X1435500Y1273100D01*
X1434700Y1272700D01*
X1431200Y1279200D02*
X1431600Y1280000D01*
X1431200Y1280800D01*
X1432000Y1280400D01*
X1432800Y1280800D01*
X1432400Y1280000D01*
X1432800Y1279200D01*
X1432000Y1279600D01*
X1431200Y1279200D01*
Y1281700D02*
X1431600Y1282500D01*
X1431200Y1283300D01*
X1432000Y1282900D01*
X1432800Y1283300D01*
X1432400Y1282500D01*
X1432800Y1281700D01*
X1432000Y1282100D01*
X1431200Y1281700D01*
X1429200Y1279200D02*
X1429600Y1280000D01*
X1429200Y1280800D01*
X1430000Y1280400D01*
X1430800Y1280800D01*
X1430400Y1280000D01*
X1430800Y1279200D01*
X1430000Y1279600D01*
X1429200Y1279200D01*
Y1281700D02*
X1429600Y1282500D01*
X1429200Y1283300D01*
X1430000Y1282900D01*
X1430800Y1283300D01*
X1430400Y1282500D01*
X1430800Y1281700D01*
X1430000Y1282100D01*
X1429200Y1281700D01*
X1454700Y1298200D02*
X1455100Y1299000D01*
X1454700Y1299800D01*
X1455500Y1299400D01*
X1456300Y1299800D01*
X1455900Y1299000D01*
X1456300Y1298200D01*
X1455500Y1298600D01*
X1454700Y1298200D01*
Y1295700D02*
X1455100Y1296500D01*
X1454700Y1297300D01*
X1455500Y1296900D01*
X1456300Y1297300D01*
X1455900Y1296500D01*
X1456300Y1295700D01*
X1455500Y1296100D01*
X1454700Y1295700D01*
X1461700Y1279200D02*
X1462100Y1280000D01*
X1461700Y1280800D01*
X1462500Y1280400D01*
X1463300Y1280800D01*
X1462900Y1280000D01*
X1463300Y1279200D01*
X1462500Y1279600D01*
X1461700Y1279200D01*
X1464200D02*
X1464600Y1280000D01*
X1464200Y1280800D01*
X1465000Y1280400D01*
X1465800Y1280800D01*
X1465400Y1280000D01*
X1465800Y1279200D01*
X1465000Y1279600D01*
X1464200Y1279200D01*
X1471700D02*
X1472100Y1280000D01*
X1471700Y1280800D01*
X1472500Y1280400D01*
X1473300Y1280800D01*
X1472900Y1280000D01*
X1473300Y1279200D01*
X1472500Y1279600D01*
X1471700Y1279200D01*
Y1276700D02*
X1472100Y1277500D01*
X1471700Y1278300D01*
X1472500Y1277900D01*
X1473300Y1278300D01*
X1472900Y1277500D01*
X1473300Y1276700D01*
X1472500Y1277100D01*
X1471700Y1276700D01*
Y1274200D02*
X1472100Y1275000D01*
X1471700Y1275800D01*
X1472500Y1275400D01*
X1473300Y1275800D01*
X1472900Y1275000D01*
X1473300Y1274200D01*
X1472500Y1274600D01*
X1471700Y1274200D01*
X1457700Y1266200D02*
X1458100Y1267000D01*
X1457700Y1267800D01*
X1458500Y1267400D01*
X1459300Y1267800D01*
X1458900Y1267000D01*
X1459300Y1266200D01*
X1458500Y1266600D01*
X1457700Y1266200D01*
X1462200D02*
X1462600Y1267000D01*
X1462200Y1267800D01*
X1463000Y1267400D01*
X1463800Y1267800D01*
X1463400Y1267000D01*
X1463800Y1266200D01*
X1463000Y1266600D01*
X1462200Y1266200D01*
X1466700Y1257700D02*
X1467100Y1258500D01*
X1466700Y1259300D01*
X1467500Y1258900D01*
X1468300Y1259300D01*
X1467900Y1258500D01*
X1468300Y1257700D01*
X1467500Y1258100D01*
X1466700Y1257700D01*
X1471200Y1266200D02*
X1471600Y1267000D01*
X1471200Y1267800D01*
X1472000Y1267400D01*
X1472800Y1267800D01*
X1472400Y1267000D01*
X1472800Y1266200D01*
X1472000Y1266600D01*
X1471200Y1266200D01*
X1500200Y1278700D02*
X1500600Y1279500D01*
X1500200Y1280300D01*
X1501000Y1279900D01*
X1501800Y1280300D01*
X1501400Y1279500D01*
X1501800Y1278700D01*
X1501000Y1279100D01*
X1500200Y1278700D01*
X1499200Y1264200D02*
X1499600Y1265000D01*
X1499200Y1265800D01*
X1500000Y1265400D01*
X1500800Y1265800D01*
X1500400Y1265000D01*
X1500800Y1264200D01*
X1500000Y1264600D01*
X1499200Y1264200D01*
X1511700Y1254200D02*
X1512100Y1255000D01*
X1511700Y1255800D01*
X1512500Y1255400D01*
X1513300Y1255800D01*
X1512900Y1255000D01*
X1513300Y1254200D01*
X1512500Y1254600D01*
X1511700Y1254200D01*
X1508200Y1258700D02*
X1508600Y1259500D01*
X1508200Y1260300D01*
X1509000Y1259900D01*
X1509800Y1260300D01*
X1509400Y1259500D01*
X1509800Y1258700D01*
X1509000Y1259100D01*
X1508200Y1258700D01*
X1511720Y1258641D02*
X1512120Y1259441D01*
X1511720Y1260241D01*
X1512520Y1259841D01*
X1513320Y1260241D01*
X1512920Y1259441D01*
X1513320Y1258641D01*
X1512520Y1259041D01*
X1511720Y1258641D01*
X1509960Y1256421D02*
X1510360Y1257220D01*
X1509960Y1258020D01*
X1510760Y1257621D01*
X1511560Y1258020D01*
X1511160Y1257220D01*
X1511560Y1256421D01*
X1510760Y1256820D01*
X1509960Y1256421D01*
X1508200Y1254200D02*
X1508600Y1255000D01*
X1508200Y1255800D01*
X1509000Y1255400D01*
X1509800Y1255800D01*
X1509400Y1255000D01*
X1509800Y1254200D01*
X1509000Y1254600D01*
X1508200Y1254200D01*
X1498100Y1252600D02*
X1498500Y1253400D01*
X1498100Y1254200D01*
X1498900Y1253800D01*
X1499700Y1254200D01*
X1499300Y1253400D01*
X1499700Y1252600D01*
X1498900Y1253000D01*
X1498100Y1252600D01*
X1502700Y1281200D02*
X1503100Y1282000D01*
X1502700Y1282800D01*
X1503500Y1282400D01*
X1504300Y1282800D01*
X1503900Y1282000D01*
X1504300Y1281200D01*
X1503500Y1281600D01*
X1502700Y1281200D01*
X1510700Y1299200D02*
X1511100Y1300000D01*
X1510700Y1300800D01*
X1511500Y1300400D01*
X1512300Y1300800D01*
X1511900Y1300000D01*
X1512300Y1299200D01*
X1511500Y1299600D01*
X1510700Y1299200D01*
X1513700Y1293700D02*
X1514100Y1294500D01*
X1513700Y1295300D01*
X1514500Y1294900D01*
X1515300Y1295300D01*
X1514900Y1294500D01*
X1515300Y1293700D01*
X1514500Y1294100D01*
X1513700Y1293700D01*
X1502065Y1288897D02*
X1502465Y1289697D01*
X1502065Y1290497D01*
X1502865Y1290097D01*
X1503665Y1290497D01*
X1503265Y1289697D01*
X1503665Y1288897D01*
X1502865Y1289297D01*
X1502065Y1288897D01*
X1471200Y1294200D02*
X1471600Y1295000D01*
X1471200Y1295800D01*
X1472000Y1295400D01*
X1472800Y1295800D01*
X1472400Y1295000D01*
X1472800Y1294200D01*
X1472000Y1294600D01*
X1471200Y1294200D01*
Y1291700D02*
X1471600Y1292500D01*
X1471200Y1293300D01*
X1472000Y1292900D01*
X1472800Y1293300D01*
X1472400Y1292500D01*
X1472800Y1291700D01*
X1472000Y1292100D01*
X1471200Y1291700D01*
Y1289200D02*
X1471600Y1290000D01*
X1471200Y1290800D01*
X1472000Y1290400D01*
X1472800Y1290800D01*
X1472400Y1290000D01*
X1472800Y1289200D01*
X1472000Y1289600D01*
X1471200Y1289200D01*
Y1286700D02*
X1471600Y1287500D01*
X1471200Y1288300D01*
X1472000Y1287900D01*
X1472800Y1288300D01*
X1472400Y1287500D01*
X1472800Y1286700D01*
X1472000Y1287100D01*
X1471200Y1286700D01*
X1473700Y1284200D02*
X1474100Y1285000D01*
X1473700Y1285800D01*
X1474500Y1285400D01*
X1475300Y1285800D01*
X1474900Y1285000D01*
X1475300Y1284200D01*
X1474500Y1284600D01*
X1473700Y1284200D01*
X1471200D02*
X1471600Y1285000D01*
X1471200Y1285800D01*
X1472000Y1285400D01*
X1472800Y1285800D01*
X1472400Y1285000D01*
X1472800Y1284200D01*
X1472000Y1284600D01*
X1471200Y1284200D01*
X1488200Y1281700D02*
X1488600Y1282500D01*
X1488200Y1283300D01*
X1489000Y1282900D01*
X1489800Y1283300D01*
X1489400Y1282500D01*
X1489800Y1281700D01*
X1489000Y1282100D01*
X1488200Y1281700D01*
X1490700D02*
X1491100Y1282500D01*
X1490700Y1283300D01*
X1491500Y1282900D01*
X1492300Y1283300D01*
X1491900Y1282500D01*
X1492300Y1281700D01*
X1491500Y1282100D01*
X1490700Y1281700D01*
X1491200Y1278700D02*
X1491600Y1279500D01*
X1491200Y1280300D01*
X1492000Y1279900D01*
X1492800Y1280300D01*
X1492400Y1279500D01*
X1492800Y1278700D01*
X1492000Y1279100D01*
X1491200Y1278700D01*
X1519191Y1282209D02*
X1519591Y1283009D01*
X1519191Y1283809D01*
X1519991Y1283409D01*
X1520791Y1283809D01*
X1520391Y1283009D01*
X1520791Y1282209D01*
X1519991Y1282609D01*
X1519191Y1282209D01*
Y1279709D02*
X1519591Y1280509D01*
X1519191Y1281309D01*
X1519991Y1280909D01*
X1520791Y1281309D01*
X1520391Y1280509D01*
X1520791Y1279709D01*
X1519991Y1280109D01*
X1519191Y1279709D01*
X1529691Y1264709D02*
X1530091Y1265509D01*
X1529691Y1266309D01*
X1530491Y1265909D01*
X1531291Y1266309D01*
X1530891Y1265509D01*
X1531291Y1264709D01*
X1530491Y1265109D01*
X1529691Y1264709D01*
X1518691Y1269709D02*
X1519091Y1270509D01*
X1518691Y1271309D01*
X1519491Y1270909D01*
X1520291Y1271309D01*
X1519891Y1270509D01*
X1520291Y1269709D01*
X1519491Y1270109D01*
X1518691Y1269709D01*
X1525700Y1278700D02*
X1526100Y1279500D01*
X1525700Y1280300D01*
X1526500Y1279900D01*
X1527300Y1280300D01*
X1526900Y1279500D01*
X1527300Y1278700D01*
X1526500Y1279100D01*
X1525700Y1278700D01*
X1518648Y1273203D02*
X1519048Y1274003D01*
X1518648Y1274803D01*
X1519448Y1274403D01*
X1520248Y1274803D01*
X1519848Y1274003D01*
X1520248Y1273203D01*
X1519448Y1273603D01*
X1518648Y1273203D01*
X1500191Y1281209D02*
X1500591Y1282009D01*
X1500191Y1282809D01*
X1500991Y1282409D01*
X1501791Y1282809D01*
X1501391Y1282009D01*
X1501791Y1281209D01*
X1500991Y1281609D01*
X1500191Y1281209D01*
X1484191Y1255709D02*
X1484591Y1256509D01*
X1484191Y1257309D01*
X1484991Y1256909D01*
X1485791Y1257309D01*
X1485391Y1256509D01*
X1485791Y1255709D01*
X1484991Y1256109D01*
X1484191Y1255709D01*
X1481691D02*
X1482091Y1256509D01*
X1481691Y1257309D01*
X1482491Y1256909D01*
X1483291Y1257309D01*
X1482891Y1256509D01*
X1483291Y1255709D01*
X1482491Y1256109D01*
X1481691Y1255709D01*
X1479191D02*
X1479591Y1256509D01*
X1479191Y1257309D01*
X1479991Y1256909D01*
X1480791Y1257309D01*
X1480391Y1256509D01*
X1480791Y1255709D01*
X1479991Y1256109D01*
X1479191Y1255709D01*
X1495191Y1252709D02*
X1495591Y1253509D01*
X1495191Y1254309D01*
X1495991Y1253909D01*
X1496791Y1254309D01*
X1496391Y1253509D01*
X1496791Y1252709D01*
X1495991Y1253109D01*
X1495191Y1252709D01*
X1492700Y1252700D02*
X1493100Y1253500D01*
X1492700Y1254300D01*
X1493500Y1253900D01*
X1494300Y1254300D01*
X1493900Y1253500D01*
X1494300Y1252700D01*
X1493500Y1253100D01*
X1492700Y1252700D01*
X1491191Y1255709D02*
X1491591Y1256509D01*
X1491191Y1257309D01*
X1491991Y1256909D01*
X1492791Y1257309D01*
X1492391Y1256509D01*
X1492791Y1255709D01*
X1491991Y1256109D01*
X1491191Y1255709D01*
X1491789Y1271960D02*
X1492189Y1272760D01*
X1491789Y1273560D01*
X1492589Y1273160D01*
X1493389Y1273560D01*
X1492989Y1272760D01*
X1493389Y1271960D01*
X1492589Y1272360D01*
X1491789Y1271960D01*
Y1267460D02*
X1492189Y1268260D01*
X1491789Y1269060D01*
X1492589Y1268660D01*
X1493389Y1269060D01*
X1492989Y1268260D01*
X1493389Y1267460D01*
X1492589Y1267860D01*
X1491789Y1267460D01*
X1537700Y1291700D02*
X1538100Y1292500D01*
X1537700Y1293300D01*
X1538500Y1292900D01*
X1539300Y1293300D01*
X1538900Y1292500D01*
X1539300Y1291700D01*
X1538500Y1292100D01*
X1537700Y1291700D01*
X1527700Y1292700D02*
X1528100Y1293500D01*
X1527700Y1294300D01*
X1528500Y1293900D01*
X1529300Y1294300D01*
X1528900Y1293500D01*
X1529300Y1292700D01*
X1528500Y1293100D01*
X1527700Y1292700D01*
X1525587Y1289935D02*
X1525987Y1290736D01*
X1525587Y1291535D01*
X1526387Y1291136D01*
X1527187Y1291535D01*
X1526787Y1290736D01*
X1527187Y1289935D01*
X1526387Y1290335D01*
X1525587Y1289935D01*
X1475700Y1244200D02*
X1476100Y1245000D01*
X1475700Y1245800D01*
X1476500Y1245400D01*
X1477300Y1245800D01*
X1476900Y1245000D01*
X1477300Y1244200D01*
X1476500Y1244600D01*
X1475700Y1244200D01*
X1487200Y1243200D02*
X1487600Y1244000D01*
X1487200Y1244800D01*
X1488000Y1244400D01*
X1488800Y1244800D01*
X1488400Y1244000D01*
X1488800Y1243200D01*
X1488000Y1243600D01*
X1487200Y1243200D01*
X1469700Y1243700D02*
X1470100Y1244500D01*
X1469700Y1245300D01*
X1470500Y1244900D01*
X1471300Y1245300D01*
X1470900Y1244500D01*
X1471300Y1243700D01*
X1470500Y1244100D01*
X1469700Y1243700D01*
Y1241200D02*
X1470100Y1242000D01*
X1469700Y1242800D01*
X1470500Y1242400D01*
X1471300Y1242800D01*
X1470900Y1242000D01*
X1471300Y1241200D01*
X1470500Y1241600D01*
X1469700Y1241200D01*
X1483700Y1243200D02*
X1484100Y1244000D01*
X1483700Y1244800D01*
X1484500Y1244400D01*
X1485300Y1244800D01*
X1484900Y1244000D01*
X1485300Y1243200D01*
X1484500Y1243600D01*
X1483700Y1243200D01*
X1473415Y1257920D02*
X1473815Y1258720D01*
X1473415Y1259520D01*
X1474215Y1259120D01*
X1475015Y1259520D01*
X1474615Y1258720D01*
X1475015Y1257920D01*
X1474215Y1258320D01*
X1473415Y1257920D01*
X1456200Y1251700D02*
X1456600Y1252500D01*
X1456200Y1253300D01*
X1457000Y1252900D01*
X1457800Y1253300D01*
X1457400Y1252500D01*
X1457800Y1251700D01*
X1457000Y1252100D01*
X1456200Y1251700D01*
X1468200Y1235700D02*
X1468600Y1236500D01*
X1468200Y1237300D01*
X1469000Y1236900D01*
X1469800Y1237300D01*
X1469400Y1236500D01*
X1469800Y1235700D01*
X1469000Y1236100D01*
X1468200Y1235700D01*
Y1233200D02*
X1468600Y1234000D01*
X1468200Y1234800D01*
X1469000Y1234400D01*
X1469800Y1234800D01*
X1469400Y1234000D01*
X1469800Y1233200D01*
X1469000Y1233600D01*
X1468200Y1233200D01*
Y1230200D02*
X1468600Y1231000D01*
X1468200Y1231800D01*
X1469000Y1231400D01*
X1469800Y1231800D01*
X1469400Y1231000D01*
X1469800Y1230200D01*
X1469000Y1230600D01*
X1468200Y1230200D01*
X1520173Y1233928D02*
X1520572Y1234728D01*
X1520173Y1235528D01*
X1520973Y1235128D01*
X1521772Y1235528D01*
X1521373Y1234728D01*
X1521772Y1233928D01*
X1520973Y1234328D01*
X1520173Y1233928D01*
X1520150Y1220451D02*
X1520550Y1221251D01*
X1520150Y1222051D01*
X1520950Y1221651D01*
X1521750Y1222051D01*
X1521350Y1221251D01*
X1521750Y1220451D01*
X1520950Y1220851D01*
X1520150Y1220451D01*
X1500255Y1244755D02*
X1500655Y1245555D01*
X1500255Y1246355D01*
X1501055Y1245955D01*
X1501855Y1246355D01*
X1501455Y1245555D01*
X1501855Y1244755D01*
X1501055Y1245155D01*
X1500255Y1244755D01*
X1505318Y1242464D02*
X1505718Y1243264D01*
X1505318Y1244064D01*
X1506118Y1243664D01*
X1506918Y1244064D01*
X1506518Y1243264D01*
X1506918Y1242464D01*
X1506118Y1242864D01*
X1505318Y1242464D01*
X1513802Y1222950D02*
X1514202Y1223750D01*
X1513802Y1224550D01*
X1514602Y1224150D01*
X1515402Y1224550D01*
X1515002Y1223750D01*
X1515402Y1222950D01*
X1514602Y1223350D01*
X1513802Y1222950D01*
X1281794Y1336131D02*
Y1335732D01*
X1282594D01*
Y1336131D01*
X1282994D01*
Y1336932D01*
X1282594D01*
Y1337331D01*
X1281794D01*
Y1336932D01*
X1281394D01*
Y1336131D01*
X1281794D01*
X1551479D02*
Y1335732D01*
X1552279D01*
Y1336131D01*
X1552679D01*
Y1336932D01*
X1552279D01*
Y1337331D01*
X1551479D01*
Y1336932D01*
X1551079D01*
Y1336131D01*
X1551479D01*
Y1181525D02*
Y1181125D01*
X1552279D01*
Y1181525D01*
X1552679D01*
Y1182325D01*
X1552279D01*
Y1182725D01*
X1551479D01*
Y1182325D01*
X1551079D01*
Y1181525D01*
X1551479D01*
D117*
X1539809Y1242369D02*
G03*
X1539809Y1242369I-800J0D01*
G01*
Y1219613D02*
G03*
X1539809Y1219613I-800J0D01*
G01*
X1539868Y1298836D02*
G03*
X1539868Y1298836I-800J0D01*
G01*
Y1276080D02*
G03*
X1539868Y1276080I-800J0D01*
G01*
M02*
