M48
;Layer_Color=9474304
;FILE_FORMAT=2:5
INCH,LZ
;TYPE=PLATED
T1F00S00C0.00800
T3F00S00C0.02559
T4F00S00C0.03543
T5F00S00C0.15748
%
T01
X1558Y12185
Y12285
Y12385
X1553Y12435
Y12335
Y12235
X1548Y12285
X15415Y12275
Y12255
Y12235
Y12335
Y12355
Y12375
X1548Y12385
Y12185
X15275Y12155
X1525
Y1218
Y1213
X15275
X153
X152095Y1221251
X1514602Y122375
X1513Y12315
Y12365
X1516
X1520973Y1234728
X1525Y12435
Y1246
Y12485
X15275
X153
X15275Y1246
X1515557Y1249129
X1506118Y1243264
X15065Y12365
Y12315
X1501Y1222
X14945Y1219
X1488Y12245
X149Y1231
X1488Y1244
X14845
X14765Y1245
X1473
X14705Y12445
Y1242
X1469Y12365
Y1234
Y1231
X1457Y1234
Y12395
X14525Y12415
X1448
Y1237
X14525
X1450473Y1232133
X1450158Y1246496
X1418Y1248
X14145
Y12445
X1418
X1423Y12345
Y12315
X1417Y12245
Y1222
X1432241Y1219253
X1438Y1216
X1448Y11945
X14885Y1198
X1501055Y1245555
X13965Y1246
Y12495
X1393Y1246
Y12425
Y1239
X13965
Y12425
X13975Y1234
X1393
X1399Y1224
X1402319Y1224499
X1406Y1225
Y12275
X13825Y12405
Y1244
X1379
Y12405
X13755
Y1244
X1372
X13685
X1365
X13615
Y12405
X1358
Y1244
X13545
Y12405
X1347Y12325
X1342Y12335
Y12358
X1343957Y1224117
X1335043Y1223883
X133486Y1219642
Y1216142
X1345Y12135
X13695Y12125
X1372
X1382497Y1213726
X1374082Y1233988
X1373974Y1237026
X1372Y12405
X13685Y12495
X13355Y1244
X13295
X1323
X1314Y12335
X1297883Y1239478
X12785Y1241
Y12375
X1284272Y1231228
X12845Y12475
X1299Y1217
Y12035
X1306Y12
X1298Y1256
X12785Y12545
Y1258
X1274784Y12735
X1319558Y127167
X1325Y1272
X1323Y12605
X13295
X13355
X1339089Y1264728
X1337505Y1268283
X1338851Y1276228
X133536Y128186
X1330942Y1281942
X13215Y1283
X13245Y1292
X1328
Y12955
X13245
X13085Y1294
Y12975
X1305
X13265Y1326
X1355Y1284
Y12805
X13615Y1278
X13685
Y12745
Y1271
X1372Y12675
Y12605
X13685Y12565
Y1253
X1358Y12535
Y1257
X13615
Y12605
Y1264
Y12675
X1358
Y1264
Y12605
Y1271
X1372Y1278
X1382Y1284
X1381Y1294
Y13025
X1395Y1314
X13985Y1284
X14015
X1403096Y1278096
X13965Y12775
X1393
Y1281
Y1274
X13965
Y12635
Y126
X1393
X13965Y12565
Y1253
X1386Y1251
Y1258
X1379Y1251
X13195Y1252081
X14145Y12515
X1418
X14215Y1256
X1425
X14297Y1255668
X1439Y126
X14415
X145Y12585
X1454
X1457Y12525
X1464Y12505
X14675Y12585
X1474215Y125872
X1479991Y1256509
X1482491
X1484991
X1491991
X14935Y12535
X1495991Y1253509
X14989Y12534
X1509Y1255
X15125
X151076Y125722
X151252Y1259441
X1509Y12595
X1511Y1266
X152Y12655
X1519491Y1270509
X1519448Y1274003
X1519991Y1280509
Y1283009
X15265Y12795
X1526387Y1290736
X15285Y12935
X15385Y12925
X1553059Y1289967
Y1279967
X1558059Y1284967
Y1294967
X1553059Y1299967
X1558059Y1274967
X1537Y12665
X15345
X1530491Y1265509
X1539Y1261
X1510371Y127526
X1508Y1284
X15035Y1282
X1500991Y1282009
X1501Y12795
X1492
X14915Y12825
X1489
X1482383Y1276728
X14725Y12775
Y128
Y1275
X1472Y1267
X1463
X14585
X14625Y128
X1465
X146Y1287
X14575
X1454Y1285
X14515
X1454Y1282
X1446383Y1276728
X14355Y1276
X1433
X1434Y128
X1436
Y12825
X1434
X1432
X143
Y128
X1432
X1426Y12795
Y1276
X14225
X1422Y1287
X1427
Y1299
X1422
X1437
Y1301
Y1297
X14385Y1306
Y1311
X14485
Y1306
X14585
Y1311
X14685
Y1306
X14785
Y1311
X14885
Y1306
X14985
X15085
Y1311
X15115Y13
Y12945
X15145
X1502865Y1289697
X1499907Y1270569
X15Y1265
X14935Y12655
Y12635
Y12615
X1492589Y126826
Y127276
X14745Y1285
X1472
Y12875
Y129
Y12925
Y1295
X14555Y12965
Y1299
X144Y1283
X14355Y12735
X141275Y128208
X14155Y12885
X14085
X14065Y1293
X1411458Y1326542
X1474458Y1326042
X1490458Y1325542
X15215Y13045
X15265
X153Y1307
X1412936Y125665
T03
X1539009Y1219613
Y1242369
X1539068Y127608
Y1298836
T04
X1412383Y1175228
X1422383
X1432383
X1442383
X1452383
X1462383
X1472383
X1482383
X1492383
X1502383
X1512383
X1522383
X1532383
Y1185228
X1522383
X1512383
X1502383
X1492383
X1482383
X1472383
X1462383
X1452383
X1442383
X1432383
X1422383
X1412383
X1402383
Y1175228
X1392383
Y1185228
X1382383
Y1175228
X1372383
Y1185228
X1362383
Y1175228
X1352383
Y1185228
X1342383
Y1175228
X1332383
X1322383
X1312383
X1302383
Y1185228
X1312383
X1322383
X1332383
X1291883Y1285228
Y1295228
Y1305228
Y1315228
X1302383Y1333228
X1312383
X1322383
X1332383
X1342383
X1352383
X1362383
X1372383
X1382383
X1392383
X1402383
Y1343228
X1392383
X1382383
X1372383
X1362383
X1352383
X1342383
X1332383
X1322383
X1312383
X1302383
X1412383
X1422383
X1432383
X1442383
X1452383
X1462383
X1472383
X1482383
X1492383
X1502383
X1512383
X1522383
X1532383
Y1333228
X1522383
X1512383
X1502383
X1492383
X1482383
X1472383
X1462383
X1452383
X1442383
X1432383
X1422383
X1412383
T05
X1551879Y1181925
X1282194
Y1336532
X1551879
M30
