G04*
G04 #@! TF.GenerationSoftware,Altium Limited,Altium Designer,21.1.1 (26)*
G04*
G04 Layer_Color=128*
%FSLAX25Y25*%
%MOIN*%
G70*
G04*
G04 #@! TF.SameCoordinates,7EEBE310-2877-491A-A4CC-80A9302AE9BF*
G04*
G04*
G04 #@! TF.FilePolarity,Positive*
G04*
G01*
G75*
%ADD116C,0.00200*%
D116*
X1290112Y1315228D02*
X1293655D01*
X1291883Y1313457D02*
Y1317000D01*
X1290112Y1305228D02*
X1293655D01*
X1291883Y1303457D02*
Y1307000D01*
X1290112Y1295228D02*
X1293655D01*
X1291883Y1293457D02*
Y1297000D01*
X1290112Y1285228D02*
X1293655D01*
X1291883Y1283457D02*
Y1287000D01*
X1530612Y1185228D02*
X1534155D01*
X1532383Y1183457D02*
Y1187000D01*
X1530612Y1175228D02*
X1534155D01*
X1532383Y1173457D02*
Y1177000D01*
X1520611Y1185228D02*
X1524155D01*
X1522383Y1183457D02*
Y1187000D01*
X1520611Y1175228D02*
X1524155D01*
X1522383Y1173457D02*
Y1177000D01*
X1510612Y1185228D02*
X1514155D01*
X1512383Y1183457D02*
Y1187000D01*
X1510612Y1175228D02*
X1514155D01*
X1512383Y1173457D02*
Y1177000D01*
X1500611Y1185228D02*
X1504155D01*
X1502383Y1183457D02*
Y1187000D01*
X1500611Y1175228D02*
X1504155D01*
X1502383Y1173457D02*
Y1177000D01*
X1490611Y1185228D02*
X1494155D01*
X1492383Y1183457D02*
Y1187000D01*
X1490611Y1175228D02*
X1494155D01*
X1492383Y1173457D02*
Y1177000D01*
X1480612Y1185228D02*
X1484155D01*
X1482383Y1183457D02*
Y1187000D01*
X1480612Y1175228D02*
X1484155D01*
X1482383Y1173457D02*
Y1177000D01*
X1470611Y1185228D02*
X1474155D01*
X1472383Y1183457D02*
Y1187000D01*
X1470611Y1175228D02*
X1474155D01*
X1472383Y1173457D02*
Y1177000D01*
X1460612Y1185228D02*
X1464155D01*
X1462383Y1183457D02*
Y1187000D01*
X1460612Y1175228D02*
X1464155D01*
X1462383Y1173457D02*
Y1177000D01*
X1450611Y1185228D02*
X1454155D01*
X1452383Y1183457D02*
Y1187000D01*
X1450611Y1175228D02*
X1454155D01*
X1452383Y1173457D02*
Y1177000D01*
X1440611Y1185228D02*
X1444155D01*
X1442383Y1183457D02*
Y1187000D01*
X1440611Y1175228D02*
X1444155D01*
X1442383Y1173457D02*
Y1177000D01*
X1430612Y1185228D02*
X1434155D01*
X1432383Y1183457D02*
Y1187000D01*
X1430612Y1175228D02*
X1434155D01*
X1432383Y1173457D02*
Y1177000D01*
X1420611Y1185228D02*
X1424155D01*
X1422383Y1183457D02*
Y1187000D01*
X1420611Y1175228D02*
X1424155D01*
X1422383Y1173457D02*
Y1177000D01*
X1410612Y1185228D02*
X1414155D01*
X1412383Y1183457D02*
Y1187000D01*
X1410612Y1175228D02*
X1414155D01*
X1412383Y1173457D02*
Y1177000D01*
X1400611Y1185228D02*
X1404155D01*
X1402383Y1183457D02*
Y1187000D01*
X1400611Y1175228D02*
X1404155D01*
X1402383Y1173457D02*
Y1177000D01*
X1390611Y1185228D02*
X1394155D01*
X1392383Y1183457D02*
Y1187000D01*
X1390611Y1175228D02*
X1394155D01*
X1392383Y1173457D02*
Y1177000D01*
X1380612Y1185228D02*
X1384155D01*
X1382383Y1183457D02*
Y1187000D01*
X1380612Y1175228D02*
X1384155D01*
X1382383Y1173457D02*
Y1177000D01*
X1370611Y1185228D02*
X1374155D01*
X1372383Y1183457D02*
Y1187000D01*
X1370611Y1175228D02*
X1374155D01*
X1372383Y1173457D02*
Y1177000D01*
X1360612Y1185228D02*
X1364155D01*
X1362383Y1183457D02*
Y1187000D01*
X1360612Y1175228D02*
X1364155D01*
X1362383Y1173457D02*
Y1177000D01*
X1350611Y1185228D02*
X1354155D01*
X1352383Y1183457D02*
Y1187000D01*
X1350611Y1175228D02*
X1354155D01*
X1352383Y1173457D02*
Y1177000D01*
X1340611Y1185228D02*
X1344155D01*
X1342383Y1183457D02*
Y1187000D01*
X1340611Y1175228D02*
X1344155D01*
X1342383Y1173457D02*
Y1177000D01*
X1530612Y1343228D02*
X1534155D01*
X1532383Y1341457D02*
Y1345000D01*
X1530612Y1333228D02*
X1534155D01*
X1532383Y1331457D02*
Y1335000D01*
X1520611Y1343228D02*
X1524155D01*
X1522383Y1341457D02*
Y1345000D01*
X1520611Y1333228D02*
X1524155D01*
X1522383Y1331457D02*
Y1335000D01*
X1510612Y1343228D02*
X1514155D01*
X1512383Y1341457D02*
Y1345000D01*
X1510612Y1333228D02*
X1514155D01*
X1512383Y1331457D02*
Y1335000D01*
X1500611Y1343228D02*
X1504155D01*
X1502383Y1341457D02*
Y1345000D01*
X1500611Y1333228D02*
X1504155D01*
X1502383Y1331457D02*
Y1335000D01*
X1490611Y1343228D02*
X1494155D01*
X1492383Y1341457D02*
Y1345000D01*
X1490611Y1333228D02*
X1494155D01*
X1492383Y1331457D02*
Y1335000D01*
X1480612Y1343228D02*
X1484155D01*
X1482383Y1341457D02*
Y1345000D01*
X1480612Y1333228D02*
X1484155D01*
X1482383Y1331457D02*
Y1335000D01*
X1470611Y1343228D02*
X1474155D01*
X1472383Y1341457D02*
Y1345000D01*
X1470611Y1333228D02*
X1474155D01*
X1472383Y1331457D02*
Y1335000D01*
X1460612Y1343228D02*
X1464155D01*
X1462383Y1341457D02*
Y1345000D01*
X1460612Y1333228D02*
X1464155D01*
X1462383Y1331457D02*
Y1335000D01*
X1450611Y1343228D02*
X1454155D01*
X1452383Y1341457D02*
Y1345000D01*
X1450611Y1333228D02*
X1454155D01*
X1452383Y1331457D02*
Y1335000D01*
X1440611Y1343228D02*
X1444155D01*
X1442383Y1341457D02*
Y1345000D01*
X1440611Y1333228D02*
X1444155D01*
X1442383Y1331457D02*
Y1335000D01*
X1430612Y1343228D02*
X1434155D01*
X1432383Y1341457D02*
Y1345000D01*
X1430612Y1333228D02*
X1434155D01*
X1432383Y1331457D02*
Y1335000D01*
X1420611Y1343228D02*
X1424155D01*
X1422383Y1341457D02*
Y1345000D01*
X1420611Y1333228D02*
X1424155D01*
X1422383Y1331457D02*
Y1335000D01*
X1410612Y1343228D02*
X1414155D01*
X1412383Y1341457D02*
Y1345000D01*
X1410612Y1333228D02*
X1414155D01*
X1412383Y1331457D02*
Y1335000D01*
X1400611Y1343228D02*
X1404155D01*
X1402383Y1341457D02*
Y1345000D01*
X1400611Y1333228D02*
X1404155D01*
X1402383Y1331457D02*
Y1335000D01*
X1390611Y1343228D02*
X1394155D01*
X1392383Y1341457D02*
Y1345000D01*
X1390611Y1333228D02*
X1394155D01*
X1392383Y1331457D02*
Y1335000D01*
X1380612Y1343228D02*
X1384155D01*
X1382383Y1341457D02*
Y1345000D01*
X1380612Y1333228D02*
X1384155D01*
X1382383Y1331457D02*
Y1335000D01*
X1370611Y1343228D02*
X1374155D01*
X1372383Y1341457D02*
Y1345000D01*
X1370611Y1333228D02*
X1374155D01*
X1372383Y1331457D02*
Y1335000D01*
X1360612Y1343228D02*
X1364155D01*
X1362383Y1341457D02*
Y1345000D01*
X1360612Y1333228D02*
X1364155D01*
X1362383Y1331457D02*
Y1335000D01*
X1350611Y1343228D02*
X1354155D01*
X1352383Y1341457D02*
Y1345000D01*
X1350611Y1333228D02*
X1354155D01*
X1352383Y1331457D02*
Y1335000D01*
X1340611Y1343228D02*
X1344155D01*
X1342383Y1341457D02*
Y1345000D01*
X1340611Y1333228D02*
X1344155D01*
X1342383Y1331457D02*
Y1335000D01*
X1300611Y1185228D02*
X1304155D01*
X1302383Y1183457D02*
Y1187000D01*
X1300611Y1175228D02*
X1304155D01*
X1302383Y1173457D02*
Y1177000D01*
X1310612Y1175228D02*
X1314155D01*
X1312383Y1173457D02*
Y1177000D01*
X1310612Y1185228D02*
X1314155D01*
X1312383Y1183457D02*
Y1187000D01*
X1320611Y1175228D02*
X1324155D01*
X1322383Y1173457D02*
Y1177000D01*
X1320611Y1185228D02*
X1324155D01*
X1322383Y1183457D02*
Y1187000D01*
X1330612Y1175228D02*
X1334155D01*
X1332383Y1173457D02*
Y1177000D01*
X1330612Y1185228D02*
X1334155D01*
X1332383Y1183457D02*
Y1187000D01*
X1330612Y1333228D02*
X1334155D01*
X1332383Y1331457D02*
Y1335000D01*
X1330612Y1343228D02*
X1334155D01*
X1332383Y1341457D02*
Y1345000D01*
X1320611Y1343228D02*
X1324155D01*
X1322383Y1341457D02*
Y1345000D01*
X1320611Y1333228D02*
X1324155D01*
X1322383Y1331457D02*
Y1335000D01*
X1310612Y1343228D02*
X1314155D01*
X1312383Y1341457D02*
Y1345000D01*
X1310612Y1333228D02*
X1314155D01*
X1312383Y1331457D02*
Y1335000D01*
X1300611Y1343228D02*
X1304155D01*
X1302383Y1341457D02*
Y1345000D01*
X1300611Y1333228D02*
X1304155D01*
X1302383Y1331457D02*
Y1335000D01*
X1537730Y1242369D02*
X1540289D01*
X1539009Y1241089D02*
Y1243648D01*
X1537730Y1219613D02*
X1540289D01*
X1539009Y1218333D02*
Y1220892D01*
X1551017Y1247999D02*
X1555741D01*
X1553379Y1245636D02*
Y1250361D01*
X1551017Y1213983D02*
X1555741D01*
X1553379Y1211621D02*
Y1216345D01*
X1533576Y1247999D02*
X1540269D01*
X1536923Y1244652D02*
Y1251345D01*
X1533576Y1213983D02*
X1540269D01*
X1536923Y1210637D02*
Y1217329D01*
X1537789Y1298836D02*
X1540348D01*
X1539068Y1297556D02*
Y1300115D01*
X1537789Y1276080D02*
X1540348D01*
X1539068Y1274800D02*
Y1277360D01*
X1551076Y1304466D02*
X1555801D01*
X1553438Y1302104D02*
Y1306828D01*
X1551076Y1270450D02*
X1555801D01*
X1553438Y1268088D02*
Y1272812D01*
X1533635Y1304466D02*
X1540328D01*
X1536982Y1301119D02*
Y1307812D01*
X1533635Y1270450D02*
X1540328D01*
X1536982Y1267104D02*
Y1273797D01*
X1474058Y1326042D02*
X1474858D01*
X1474458Y1325642D02*
Y1326442D01*
X1490058Y1325542D02*
X1490858D01*
X1490458Y1325142D02*
Y1325942D01*
X1411058Y1326542D02*
X1411858D01*
X1411458Y1326142D02*
Y1326942D01*
X1515157Y1249129D02*
X1515957D01*
X1515557Y1248728D02*
Y1249529D01*
X1515600Y1236500D02*
X1516400D01*
X1516000Y1236100D02*
Y1236900D01*
X1447600Y1194500D02*
X1448400D01*
X1448000Y1194100D02*
Y1194900D01*
X1406100Y1293000D02*
X1406900D01*
X1406500Y1292600D02*
Y1293400D01*
X1488100Y1198000D02*
X1488900D01*
X1488500Y1197600D02*
Y1198400D01*
X1305600Y1200000D02*
X1306400D01*
X1306000Y1199600D02*
Y1200400D01*
X1326100Y1326000D02*
X1326900D01*
X1326500Y1325600D02*
Y1326400D01*
X1394600Y1314000D02*
X1395400D01*
X1395000Y1313600D02*
Y1314400D01*
X1346600Y1232500D02*
X1347400D01*
X1347000Y1232100D02*
Y1232900D01*
X1552659Y1279967D02*
X1553459D01*
X1553059Y1279567D02*
Y1280367D01*
X1552659Y1289967D02*
X1553459D01*
X1553059Y1289567D02*
Y1290367D01*
X1552659Y1299967D02*
X1553459D01*
X1553059Y1299567D02*
Y1300367D01*
X1557659Y1294967D02*
X1558459D01*
X1558059Y1294567D02*
Y1295367D01*
X1557659Y1284967D02*
X1558459D01*
X1558059Y1284567D02*
Y1285367D01*
X1557659Y1274967D02*
X1558459D01*
X1558059Y1274567D02*
Y1275367D01*
X1557600Y1218500D02*
X1558400D01*
X1558000Y1218100D02*
Y1218900D01*
X1557600Y1228500D02*
X1558400D01*
X1558000Y1228100D02*
Y1228900D01*
X1557600Y1238500D02*
X1558400D01*
X1558000Y1238100D02*
Y1238900D01*
X1552600Y1243500D02*
X1553400D01*
X1553000Y1243100D02*
Y1243900D01*
X1552600Y1233500D02*
X1553400D01*
X1553000Y1233100D02*
Y1233900D01*
X1552600Y1223500D02*
X1553400D01*
X1553000Y1223100D02*
Y1223900D01*
X1547600Y1238500D02*
X1548400D01*
X1548000Y1238100D02*
Y1238900D01*
X1547600Y1228500D02*
X1548400D01*
X1548000Y1228100D02*
Y1228900D01*
X1547600Y1218500D02*
X1548400D01*
X1548000Y1218100D02*
Y1218900D01*
X1438100Y1311000D02*
X1438900D01*
X1438500Y1310600D02*
Y1311400D01*
X1458100Y1311000D02*
X1458900D01*
X1458500Y1310600D02*
Y1311400D01*
X1468100Y1311000D02*
X1468900D01*
X1468500Y1310600D02*
Y1311400D01*
X1488100Y1311000D02*
X1488900D01*
X1488500Y1310600D02*
Y1311400D01*
X1439600Y1283000D02*
X1440400D01*
X1440000Y1282600D02*
Y1283400D01*
X1274320Y1181925D02*
X1290068D01*
X1282194Y1174051D02*
Y1189799D01*
X1297483Y1239478D02*
X1298283D01*
X1297883Y1239078D02*
Y1239878D01*
X1435600Y1282500D02*
X1436400D01*
X1436000Y1282100D02*
Y1282900D01*
X1435600Y1280000D02*
X1436400D01*
X1436000Y1279600D02*
Y1280400D01*
X1433600Y1282500D02*
X1434400D01*
X1434000Y1282100D02*
Y1282900D01*
X1433600Y1280000D02*
X1434400D01*
X1434000Y1279600D02*
Y1280400D01*
X1432600Y1276000D02*
X1433400D01*
X1433000Y1275600D02*
Y1276400D01*
X1435100Y1276000D02*
X1435900D01*
X1435500Y1275600D02*
Y1276400D01*
X1510600Y1266000D02*
X1511400D01*
X1511000Y1265600D02*
Y1266400D01*
X1489600Y1231000D02*
X1490400D01*
X1490000Y1230600D02*
Y1231400D01*
X1499507Y1270569D02*
X1500307D01*
X1499907Y1270169D02*
Y1270969D01*
X1509971Y1275260D02*
X1510771D01*
X1510371Y1274860D02*
Y1275660D01*
X1445983Y1276728D02*
X1446783D01*
X1446383Y1276328D02*
Y1277128D01*
X1481983Y1276728D02*
X1482783D01*
X1482383Y1276328D02*
Y1277128D01*
X1371600Y1212500D02*
X1372400D01*
X1372000Y1212100D02*
Y1212900D01*
X1369100Y1212500D02*
X1369900D01*
X1369500Y1212100D02*
Y1212900D01*
X1368100Y1249500D02*
X1368900D01*
X1368500Y1249100D02*
Y1249900D01*
X1457100Y1287000D02*
X1457900D01*
X1457500Y1286600D02*
Y1287400D01*
X1459600Y1287000D02*
X1460400D01*
X1460000Y1286600D02*
Y1287400D01*
X1538600Y1261000D02*
X1539400D01*
X1539000Y1260600D02*
Y1261400D01*
X1519600Y1265500D02*
X1520400D01*
X1520000Y1265100D02*
Y1265900D01*
X1449758Y1246496D02*
X1450558D01*
X1450158Y1246096D02*
Y1246896D01*
X1450073Y1232133D02*
X1450873D01*
X1450473Y1231733D02*
Y1232533D01*
X1452100Y1241500D02*
X1452900D01*
X1452500Y1241100D02*
Y1241900D01*
X1447600Y1241500D02*
X1448400D01*
X1448000Y1241100D02*
Y1241900D01*
X1452100Y1237000D02*
X1452900D01*
X1452500Y1236600D02*
Y1237400D01*
X1447600Y1237000D02*
X1448400D01*
X1448000Y1236600D02*
Y1237400D01*
X1456600Y1239500D02*
X1457400D01*
X1457000Y1239100D02*
Y1239900D01*
X1456600Y1234000D02*
X1457400D01*
X1457000Y1233600D02*
Y1234400D01*
X1422600Y1231500D02*
X1423400D01*
X1423000Y1231100D02*
Y1231900D01*
X1422600Y1234500D02*
X1423400D01*
X1423000Y1234100D02*
Y1234900D01*
X1437600Y1216000D02*
X1438400D01*
X1438000Y1215600D02*
Y1216400D01*
X1449600Y1258500D02*
X1450400D01*
X1450000Y1258100D02*
Y1258900D01*
X1313600Y1233500D02*
X1314400D01*
X1314000Y1233100D02*
Y1233900D01*
X1278100Y1254500D02*
X1278900D01*
X1278500Y1254100D02*
Y1254900D01*
X1278100Y1258000D02*
X1278900D01*
X1278500Y1257600D02*
Y1258400D01*
X1278100Y1241000D02*
X1278900D01*
X1278500Y1240600D02*
Y1241400D01*
X1278100Y1237500D02*
X1278900D01*
X1278500Y1237100D02*
Y1237900D01*
X1274384Y1273500D02*
X1275183D01*
X1274784Y1273100D02*
Y1273900D01*
X1381600Y1284000D02*
X1382400D01*
X1382000Y1283600D02*
Y1284400D01*
X1385600Y1258000D02*
X1386400D01*
X1386000Y1257600D02*
Y1258400D01*
X1371600Y1260500D02*
X1372400D01*
X1372000Y1260100D02*
Y1260900D01*
X1371600Y1267500D02*
X1372400D01*
X1372000Y1267100D02*
Y1267900D01*
X1385600Y1251000D02*
X1386400D01*
X1386000Y1250600D02*
Y1251400D01*
X1378600Y1251000D02*
X1379400D01*
X1379000Y1250600D02*
Y1251400D01*
X1405600Y1227500D02*
X1406400D01*
X1406000Y1227100D02*
Y1227900D01*
X1405600Y1225000D02*
X1406400D01*
X1406000Y1224600D02*
Y1225400D01*
X1416600Y1224500D02*
X1417400D01*
X1417000Y1224100D02*
Y1224900D01*
X1416600Y1222000D02*
X1417400D01*
X1417000Y1221600D02*
Y1222400D01*
X1536600Y1266500D02*
X1537400D01*
X1537000Y1266100D02*
Y1266900D01*
X1534100Y1266500D02*
X1534900D01*
X1534500Y1266100D02*
Y1266900D01*
X1529600Y1307000D02*
X1530400D01*
X1530000Y1306600D02*
Y1307400D01*
X1524600Y1248500D02*
X1525400D01*
X1525000Y1248100D02*
Y1248900D01*
X1524600Y1246000D02*
X1525400D01*
X1525000Y1245600D02*
Y1246400D01*
X1524600Y1243500D02*
X1525400D01*
X1525000Y1243100D02*
Y1243900D01*
X1527100Y1248500D02*
X1527900D01*
X1527500Y1248100D02*
Y1248900D01*
X1529600Y1248500D02*
X1530400D01*
X1530000Y1248100D02*
Y1248900D01*
X1527100Y1246000D02*
X1527900D01*
X1527500Y1245600D02*
Y1246400D01*
X1527100Y1215500D02*
X1527900D01*
X1527500Y1215100D02*
Y1215900D01*
X1524600Y1218000D02*
X1525400D01*
X1525000Y1217600D02*
Y1218400D01*
X1524600Y1215500D02*
X1525400D01*
X1525000Y1215100D02*
Y1215900D01*
X1529600Y1213000D02*
X1530400D01*
X1530000Y1212600D02*
Y1213400D01*
X1527100Y1213000D02*
X1527900D01*
X1527500Y1212600D02*
Y1213400D01*
X1524600Y1213000D02*
X1525400D01*
X1525000Y1212600D02*
Y1213400D01*
X1487600Y1224500D02*
X1488400D01*
X1488000Y1224100D02*
Y1224900D01*
X1500600Y1222000D02*
X1501400D01*
X1501000Y1221600D02*
Y1222400D01*
X1472600Y1245000D02*
X1473400D01*
X1473000Y1244600D02*
Y1245400D01*
X1463600Y1250500D02*
X1464400D01*
X1464000Y1250100D02*
Y1250900D01*
X1308100Y1294000D02*
X1308900D01*
X1308500Y1293600D02*
Y1294400D01*
X1324100Y1292000D02*
X1324900D01*
X1324500Y1291600D02*
Y1292400D01*
X1327600Y1292000D02*
X1328400D01*
X1328000Y1291600D02*
Y1292400D01*
X1324100Y1295500D02*
X1324900D01*
X1324500Y1295100D02*
Y1295900D01*
X1327600Y1295500D02*
X1328400D01*
X1328000Y1295100D02*
Y1295900D01*
X1298600Y1217000D02*
X1299400D01*
X1299000Y1216600D02*
Y1217400D01*
X1298600Y1203500D02*
X1299400D01*
X1299000Y1203100D02*
Y1203900D01*
X1283872Y1231228D02*
X1284672D01*
X1284272Y1230828D02*
Y1231628D01*
X1284100Y1247500D02*
X1284900D01*
X1284500Y1247100D02*
Y1247900D01*
X1297600Y1256000D02*
X1298400D01*
X1298000Y1255600D02*
Y1256400D01*
X1493100Y1265500D02*
X1493900D01*
X1493500Y1265100D02*
Y1265900D01*
X1493100Y1263500D02*
X1493900D01*
X1493500Y1263100D02*
Y1263900D01*
X1493100Y1261500D02*
X1493900D01*
X1493500Y1261100D02*
Y1261900D01*
X1426600Y1299000D02*
X1427400D01*
X1427000Y1298600D02*
Y1299400D01*
X1421600Y1299000D02*
X1422400D01*
X1422000Y1298600D02*
Y1299400D01*
X1498100Y1306000D02*
X1498900D01*
X1498500Y1305600D02*
Y1306400D01*
X1488100Y1306000D02*
X1488900D01*
X1488500Y1305600D02*
Y1306400D01*
X1468100Y1306000D02*
X1468900D01*
X1468500Y1305600D02*
Y1306400D01*
X1458100Y1306000D02*
X1458900D01*
X1458500Y1305600D02*
Y1306400D01*
X1438100Y1306000D02*
X1438900D01*
X1438500Y1305600D02*
Y1306400D01*
X1512600Y1231500D02*
X1513400D01*
X1513000Y1231100D02*
Y1231900D01*
X1512600Y1236500D02*
X1513400D01*
X1513000Y1236100D02*
Y1236900D01*
X1506100Y1231500D02*
X1506900D01*
X1506500Y1231100D02*
Y1231900D01*
X1506100Y1236500D02*
X1506900D01*
X1506500Y1236100D02*
Y1236900D01*
X1521100Y1304500D02*
X1521900D01*
X1521500Y1304100D02*
Y1304900D01*
X1526100Y1304500D02*
X1526900D01*
X1526500Y1304100D02*
Y1304900D01*
X1508100Y1306000D02*
X1508900D01*
X1508500Y1305600D02*
Y1306400D01*
X1508100Y1311000D02*
X1508900D01*
X1508500Y1310600D02*
Y1311400D01*
X1478100Y1306000D02*
X1478900D01*
X1478500Y1305600D02*
Y1306400D01*
X1478100Y1311000D02*
X1478900D01*
X1478500Y1310600D02*
Y1311400D01*
X1448100Y1306000D02*
X1448900D01*
X1448500Y1305600D02*
Y1306400D01*
X1448100Y1311000D02*
X1448900D01*
X1448500Y1310600D02*
Y1311400D01*
X1421600Y1287000D02*
X1422400D01*
X1422000Y1286600D02*
Y1287400D01*
X1426600Y1287000D02*
X1427400D01*
X1427000Y1286600D02*
Y1287400D01*
X1424600Y1256000D02*
X1425400D01*
X1425000Y1255600D02*
Y1256400D01*
X1334643Y1223883D02*
X1335443D01*
X1335043Y1223483D02*
Y1224283D01*
X1343557Y1224117D02*
X1344357D01*
X1343957Y1223717D02*
Y1224517D01*
X1344600Y1213500D02*
X1345400D01*
X1345000Y1213100D02*
Y1213900D01*
X1380600Y1302500D02*
X1381400D01*
X1381000Y1302100D02*
Y1302900D01*
X1308100Y1297500D02*
X1308900D01*
X1308500Y1297100D02*
Y1297900D01*
X1304600Y1297500D02*
X1305400D01*
X1305000Y1297100D02*
Y1297900D01*
X1368100Y1256500D02*
X1368900D01*
X1368500Y1256100D02*
Y1256900D01*
X1368100Y1253000D02*
X1368900D01*
X1368500Y1252600D02*
Y1253400D01*
X1408100Y1288500D02*
X1408900D01*
X1408500Y1288100D02*
Y1288900D01*
X1511100Y1294500D02*
X1511900D01*
X1511500Y1294100D02*
Y1294900D01*
X1422100Y1276000D02*
X1422900D01*
X1422500Y1275600D02*
Y1276400D01*
X1392600Y1260000D02*
X1393400D01*
X1393000Y1259600D02*
Y1260400D01*
X1396100Y1256500D02*
X1396900D01*
X1396500Y1256100D02*
Y1256900D01*
X1380600Y1294000D02*
X1381400D01*
X1381000Y1293600D02*
Y1294400D01*
X1368100Y1271000D02*
X1368900D01*
X1368500Y1270600D02*
Y1271400D01*
X1361100Y1278000D02*
X1361900D01*
X1361500Y1277600D02*
Y1278400D01*
X1368100Y1278000D02*
X1368900D01*
X1368500Y1277600D02*
Y1278400D01*
X1368100Y1274500D02*
X1368900D01*
X1368500Y1274100D02*
Y1274900D01*
X1371600Y1278000D02*
X1372400D01*
X1372000Y1277600D02*
Y1278400D01*
X1402696Y1278096D02*
X1403496D01*
X1403096Y1277696D02*
Y1278496D01*
X1357600Y1253500D02*
X1358400D01*
X1358000Y1253100D02*
Y1253900D01*
X1398100Y1284000D02*
X1398900D01*
X1398500Y1283600D02*
Y1284400D01*
X1401100Y1284000D02*
X1401900D01*
X1401500Y1283600D02*
Y1284400D01*
X1415100Y1288500D02*
X1415900D01*
X1415500Y1288100D02*
Y1288900D01*
X1412350Y1282080D02*
X1413150D01*
X1412750Y1281680D02*
Y1282480D01*
X1425600Y1276000D02*
X1426400D01*
X1426000Y1275600D02*
Y1276400D01*
X1425600Y1279500D02*
X1426400D01*
X1426000Y1279100D02*
Y1279900D01*
X1429300Y1255668D02*
X1430100D01*
X1429700Y1255268D02*
Y1256068D01*
X1392600Y1281000D02*
X1393400D01*
X1393000Y1280600D02*
Y1281400D01*
X1357600Y1271000D02*
X1358400D01*
X1358000Y1270600D02*
Y1271400D01*
X1354600Y1284000D02*
X1355400D01*
X1355000Y1283600D02*
Y1284400D01*
X1354600Y1280500D02*
X1355400D01*
X1355000Y1280100D02*
Y1280900D01*
X1334960Y1281860D02*
X1335760D01*
X1335360Y1281460D02*
Y1282260D01*
X1361100Y1267500D02*
X1361900D01*
X1361500Y1267100D02*
Y1267900D01*
X1357600Y1267500D02*
X1358400D01*
X1358000Y1267100D02*
Y1267900D01*
X1361100Y1264000D02*
X1361900D01*
X1361500Y1263600D02*
Y1264400D01*
X1361100Y1260500D02*
X1361900D01*
X1361500Y1260100D02*
Y1260900D01*
X1361100Y1257000D02*
X1361900D01*
X1361500Y1256600D02*
Y1257400D01*
X1357600Y1264000D02*
X1358400D01*
X1358000Y1263600D02*
Y1264400D01*
X1357600Y1260500D02*
X1358400D01*
X1358000Y1260100D02*
Y1260900D01*
X1357600Y1257000D02*
X1358400D01*
X1358000Y1256600D02*
Y1257400D01*
X1321100Y1283000D02*
X1321900D01*
X1321500Y1282600D02*
Y1283400D01*
X1324600Y1272000D02*
X1325400D01*
X1325000Y1271600D02*
Y1272400D01*
X1319158Y1271670D02*
X1319958D01*
X1319558Y1271270D02*
Y1272070D01*
X1330542Y1281942D02*
X1331342D01*
X1330942Y1281542D02*
Y1282342D01*
X1494100Y1219000D02*
X1494900D01*
X1494500Y1218600D02*
Y1219400D01*
X1396100Y1253000D02*
X1396900D01*
X1396500Y1252600D02*
Y1253400D01*
X1421100Y1256000D02*
X1421900D01*
X1421500Y1255600D02*
Y1256400D01*
X1412536Y1256650D02*
X1413336D01*
X1412936Y1256250D02*
Y1257050D01*
X1396100Y1249500D02*
X1396900D01*
X1396500Y1249100D02*
Y1249900D01*
X1401919Y1224499D02*
X1402719D01*
X1402319Y1224099D02*
Y1224899D01*
X1373574Y1237026D02*
X1374374D01*
X1373974Y1236626D02*
Y1237426D01*
X1396100Y1277500D02*
X1396900D01*
X1396500Y1277100D02*
Y1277900D01*
X1392600Y1277500D02*
X1393400D01*
X1393000Y1277100D02*
Y1277900D01*
X1392600Y1274000D02*
X1393400D01*
X1393000Y1273600D02*
Y1274400D01*
X1396100Y1274000D02*
X1396900D01*
X1396500Y1273600D02*
Y1274400D01*
X1396100Y1263500D02*
X1396900D01*
X1396500Y1263100D02*
Y1263900D01*
X1396100Y1260000D02*
X1396900D01*
X1396500Y1259600D02*
Y1260400D01*
X1417600Y1248000D02*
X1418400D01*
X1418000Y1247600D02*
Y1248400D01*
X1414100Y1248000D02*
X1414900D01*
X1414500Y1247600D02*
Y1248400D01*
X1417600Y1244500D02*
X1418400D01*
X1418000Y1244100D02*
Y1244900D01*
X1414100Y1244500D02*
X1414900D01*
X1414500Y1244100D02*
Y1244900D01*
X1414100Y1251500D02*
X1414900D01*
X1414500Y1251100D02*
Y1251900D01*
X1417600Y1251500D02*
X1418400D01*
X1418000Y1251100D02*
Y1251900D01*
X1396100Y1246000D02*
X1396900D01*
X1396500Y1245600D02*
Y1246400D01*
X1392600Y1246000D02*
X1393400D01*
X1393000Y1245600D02*
Y1246400D01*
X1392600Y1239000D02*
X1393400D01*
X1393000Y1238600D02*
Y1239400D01*
X1396100Y1239000D02*
X1396900D01*
X1396500Y1238600D02*
Y1239400D01*
X1392600Y1242500D02*
X1393400D01*
X1393000Y1242100D02*
Y1242900D01*
X1396100Y1242500D02*
X1396900D01*
X1396500Y1242100D02*
Y1242900D01*
X1398600Y1224000D02*
X1399400D01*
X1399000Y1223600D02*
Y1224400D01*
X1373682Y1233988D02*
X1374482D01*
X1374082Y1233587D02*
Y1234387D01*
X1382100Y1240500D02*
X1382900D01*
X1382500Y1240100D02*
Y1240900D01*
X1382100Y1244000D02*
X1382900D01*
X1382500Y1243600D02*
Y1244400D01*
X1378600Y1240500D02*
X1379400D01*
X1379000Y1240100D02*
Y1240900D01*
X1378600Y1244000D02*
X1379400D01*
X1379000Y1243600D02*
Y1244400D01*
X1375100Y1240500D02*
X1375900D01*
X1375500Y1240100D02*
Y1240900D01*
X1375100Y1244000D02*
X1375900D01*
X1375500Y1243600D02*
Y1244400D01*
X1382097Y1213726D02*
X1382897D01*
X1382497Y1213326D02*
Y1214126D01*
X1368100Y1244000D02*
X1368900D01*
X1368500Y1243600D02*
Y1244400D01*
X1371600Y1244000D02*
X1372400D01*
X1372000Y1243600D02*
Y1244400D01*
X1371600Y1240500D02*
X1372400D01*
X1372000Y1240100D02*
Y1240900D01*
X1364600Y1244000D02*
X1365400D01*
X1365000Y1243600D02*
Y1244400D01*
X1361100Y1244000D02*
X1361900D01*
X1361500Y1243600D02*
Y1244400D01*
X1361100Y1240500D02*
X1361900D01*
X1361500Y1240100D02*
Y1240900D01*
X1341600Y1235800D02*
X1342400D01*
X1342000Y1235400D02*
Y1236200D01*
X1341600Y1233500D02*
X1342400D01*
X1342000Y1233100D02*
Y1233900D01*
X1357600Y1240500D02*
X1358400D01*
X1358000Y1240100D02*
Y1240900D01*
X1357600Y1244000D02*
X1358400D01*
X1358000Y1243600D02*
Y1244400D01*
X1354100Y1244000D02*
X1354900D01*
X1354500Y1243600D02*
Y1244400D01*
X1354100Y1240500D02*
X1354900D01*
X1354500Y1240100D02*
Y1240900D01*
X1397100Y1234000D02*
X1397900D01*
X1397500Y1233600D02*
Y1234400D01*
X1392600Y1234000D02*
X1393400D01*
X1393000Y1233600D02*
Y1234400D01*
X1431841Y1219253D02*
X1432641D01*
X1432241Y1218853D02*
Y1219653D01*
X1334460Y1216142D02*
X1335260D01*
X1334860Y1215742D02*
Y1216542D01*
X1334460Y1219642D02*
X1335260D01*
X1334860Y1219242D02*
Y1220042D01*
X1337105Y1268283D02*
X1337905D01*
X1337505Y1267883D02*
Y1268683D01*
X1338451Y1276228D02*
X1339251D01*
X1338851Y1275828D02*
Y1276628D01*
X1338689Y1264728D02*
X1339489D01*
X1339089Y1264328D02*
Y1265128D01*
X1329100Y1244000D02*
X1329900D01*
X1329500Y1243600D02*
Y1244400D01*
X1329100Y1260500D02*
X1329900D01*
X1329500Y1260100D02*
Y1260900D01*
X1322600Y1260500D02*
X1323400D01*
X1323000Y1260100D02*
Y1260900D01*
X1322600Y1244000D02*
X1323400D01*
X1323000Y1243600D02*
Y1244400D01*
X1319100Y1252081D02*
X1319900D01*
X1319500Y1251680D02*
Y1252481D01*
X1335100Y1260500D02*
X1335900D01*
X1335500Y1260100D02*
Y1260900D01*
X1335100Y1244000D02*
X1335900D01*
X1335500Y1243600D02*
Y1244400D01*
X1438600Y1260000D02*
X1439400D01*
X1439000Y1259600D02*
Y1260400D01*
X1453600Y1258500D02*
X1454400D01*
X1454000Y1258100D02*
Y1258900D01*
X1441100Y1260000D02*
X1441900D01*
X1441500Y1259600D02*
Y1260400D01*
X1541100Y1237500D02*
X1541900D01*
X1541500Y1237100D02*
Y1237900D01*
X1541100Y1235500D02*
X1541900D01*
X1541500Y1235100D02*
Y1235900D01*
X1541100Y1233500D02*
X1541900D01*
X1541500Y1233100D02*
Y1233900D01*
X1541100Y1227500D02*
X1541900D01*
X1541500Y1227100D02*
Y1227900D01*
X1541100Y1225500D02*
X1541900D01*
X1541500Y1225100D02*
Y1225900D01*
X1541100Y1223500D02*
X1541900D01*
X1541500Y1223100D02*
Y1223900D01*
X1507600Y1284000D02*
X1508400D01*
X1508000Y1283600D02*
Y1284400D01*
X1453600Y1285000D02*
X1454400D01*
X1454000Y1284600D02*
Y1285400D01*
X1451100Y1285000D02*
X1451900D01*
X1451500Y1284600D02*
Y1285400D01*
X1453600Y1282000D02*
X1454400D01*
X1454000Y1281600D02*
Y1282400D01*
X1436600Y1301000D02*
X1437400D01*
X1437000Y1300600D02*
Y1301400D01*
X1436600Y1297000D02*
X1437400D01*
X1437000Y1296600D02*
Y1297400D01*
X1436600Y1299000D02*
X1437400D01*
X1437000Y1298600D02*
Y1299400D01*
X1435100Y1273500D02*
X1435900D01*
X1435500Y1273100D02*
Y1273900D01*
X1431600Y1280000D02*
X1432400D01*
X1432000Y1279600D02*
Y1280400D01*
X1431600Y1282500D02*
X1432400D01*
X1432000Y1282100D02*
Y1282900D01*
X1429600Y1280000D02*
X1430400D01*
X1430000Y1279600D02*
Y1280400D01*
X1429600Y1282500D02*
X1430400D01*
X1430000Y1282100D02*
Y1282900D01*
X1455100Y1299000D02*
X1455900D01*
X1455500Y1298600D02*
Y1299400D01*
X1455100Y1296500D02*
X1455900D01*
X1455500Y1296100D02*
Y1296900D01*
X1462100Y1280000D02*
X1462900D01*
X1462500Y1279600D02*
Y1280400D01*
X1464600Y1280000D02*
X1465400D01*
X1465000Y1279600D02*
Y1280400D01*
X1472100Y1280000D02*
X1472900D01*
X1472500Y1279600D02*
Y1280400D01*
X1472100Y1277500D02*
X1472900D01*
X1472500Y1277100D02*
Y1277900D01*
X1472100Y1275000D02*
X1472900D01*
X1472500Y1274600D02*
Y1275400D01*
X1458100Y1267000D02*
X1458900D01*
X1458500Y1266600D02*
Y1267400D01*
X1462600Y1267000D02*
X1463400D01*
X1463000Y1266600D02*
Y1267400D01*
X1467100Y1258500D02*
X1467900D01*
X1467500Y1258100D02*
Y1258900D01*
X1471600Y1267000D02*
X1472400D01*
X1472000Y1266600D02*
Y1267400D01*
X1500600Y1279500D02*
X1501400D01*
X1501000Y1279100D02*
Y1279900D01*
X1499600Y1265000D02*
X1500400D01*
X1500000Y1264600D02*
Y1265400D01*
X1512100Y1255000D02*
X1512900D01*
X1512500Y1254600D02*
Y1255400D01*
X1508600Y1259500D02*
X1509400D01*
X1509000Y1259100D02*
Y1259900D01*
X1512120Y1259441D02*
X1512920D01*
X1512520Y1259041D02*
Y1259841D01*
X1510360Y1257220D02*
X1511160D01*
X1510760Y1256820D02*
Y1257621D01*
X1508600Y1255000D02*
X1509400D01*
X1509000Y1254600D02*
Y1255400D01*
X1498500Y1253400D02*
X1499300D01*
X1498900Y1253000D02*
Y1253800D01*
X1503100Y1282000D02*
X1503900D01*
X1503500Y1281600D02*
Y1282400D01*
X1511100Y1300000D02*
X1511900D01*
X1511500Y1299600D02*
Y1300400D01*
X1514100Y1294500D02*
X1514900D01*
X1514500Y1294100D02*
Y1294900D01*
X1502465Y1289697D02*
X1503265D01*
X1502865Y1289297D02*
Y1290097D01*
X1471600Y1295000D02*
X1472400D01*
X1472000Y1294600D02*
Y1295400D01*
X1471600Y1292500D02*
X1472400D01*
X1472000Y1292100D02*
Y1292900D01*
X1471600Y1290000D02*
X1472400D01*
X1472000Y1289600D02*
Y1290400D01*
X1471600Y1287500D02*
X1472400D01*
X1472000Y1287100D02*
Y1287900D01*
X1474100Y1285000D02*
X1474900D01*
X1474500Y1284600D02*
Y1285400D01*
X1471600Y1285000D02*
X1472400D01*
X1472000Y1284600D02*
Y1285400D01*
X1488600Y1282500D02*
X1489400D01*
X1489000Y1282100D02*
Y1282900D01*
X1491100Y1282500D02*
X1491900D01*
X1491500Y1282100D02*
Y1282900D01*
X1491600Y1279500D02*
X1492400D01*
X1492000Y1279100D02*
Y1279900D01*
X1519591Y1283009D02*
X1520391D01*
X1519991Y1282609D02*
Y1283409D01*
X1519591Y1280509D02*
X1520391D01*
X1519991Y1280109D02*
Y1280909D01*
X1530091Y1265509D02*
X1530891D01*
X1530491Y1265109D02*
Y1265909D01*
X1519091Y1270509D02*
X1519891D01*
X1519491Y1270109D02*
Y1270909D01*
X1526100Y1279500D02*
X1526900D01*
X1526500Y1279100D02*
Y1279900D01*
X1519048Y1274003D02*
X1519848D01*
X1519448Y1273603D02*
Y1274403D01*
X1500591Y1282009D02*
X1501391D01*
X1500991Y1281609D02*
Y1282409D01*
X1484591Y1256509D02*
X1485391D01*
X1484991Y1256109D02*
Y1256909D01*
X1482091Y1256509D02*
X1482891D01*
X1482491Y1256109D02*
Y1256909D01*
X1479591Y1256509D02*
X1480391D01*
X1479991Y1256109D02*
Y1256909D01*
X1495591Y1253509D02*
X1496391D01*
X1495991Y1253109D02*
Y1253909D01*
X1493100Y1253500D02*
X1493900D01*
X1493500Y1253100D02*
Y1253900D01*
X1491591Y1256509D02*
X1492391D01*
X1491991Y1256109D02*
Y1256909D01*
X1492189Y1272760D02*
X1492989D01*
X1492589Y1272360D02*
Y1273160D01*
X1492189Y1268260D02*
X1492989D01*
X1492589Y1267860D02*
Y1268660D01*
X1538100Y1292500D02*
X1538900D01*
X1538500Y1292100D02*
Y1292900D01*
X1528100Y1293500D02*
X1528900D01*
X1528500Y1293100D02*
Y1293900D01*
X1525987Y1290736D02*
X1526787D01*
X1526387Y1290335D02*
Y1291136D01*
X1476100Y1245000D02*
X1476900D01*
X1476500Y1244600D02*
Y1245400D01*
X1487600Y1244000D02*
X1488400D01*
X1488000Y1243600D02*
Y1244400D01*
X1470100Y1244500D02*
X1470900D01*
X1470500Y1244100D02*
Y1244900D01*
X1470100Y1242000D02*
X1470900D01*
X1470500Y1241600D02*
Y1242400D01*
X1484100Y1244000D02*
X1484900D01*
X1484500Y1243600D02*
Y1244400D01*
X1473815Y1258720D02*
X1474615D01*
X1474215Y1258320D02*
Y1259120D01*
X1456600Y1252500D02*
X1457400D01*
X1457000Y1252100D02*
Y1252900D01*
X1468600Y1236500D02*
X1469400D01*
X1469000Y1236100D02*
Y1236900D01*
X1468600Y1234000D02*
X1469400D01*
X1469000Y1233600D02*
Y1234400D01*
X1468600Y1231000D02*
X1469400D01*
X1469000Y1230600D02*
Y1231400D01*
X1520572Y1234728D02*
X1521373D01*
X1520973Y1234328D02*
Y1235128D01*
X1520550Y1221251D02*
X1521350D01*
X1520950Y1220851D02*
Y1221651D01*
X1500655Y1245555D02*
X1501455D01*
X1501055Y1245155D02*
Y1245955D01*
X1505718Y1243264D02*
X1506518D01*
X1506118Y1242864D02*
Y1243664D01*
X1514202Y1223750D02*
X1515002D01*
X1514602Y1223350D02*
Y1224150D01*
X1274320Y1336532D02*
X1290068D01*
X1282194Y1328658D02*
Y1344405D01*
X1544005Y1336532D02*
X1559753D01*
X1551879Y1328658D02*
Y1344405D01*
X1544005Y1181925D02*
X1559753D01*
X1551879Y1174051D02*
Y1189799D01*
M02*
