G04*
G04 #@! TF.GenerationSoftware,Altium Limited,Altium Designer,21.1.1 (26)*
G04*
G04 Layer_Color=32768*
%FSLAX25Y25*%
%MOIN*%
G70*
G04*
G04 #@! TF.SameCoordinates,DA73CDCF-2591-419C-BC5F-B2C7988706A4*
G04*
G04*
G04 #@! TF.FilePolarity,Positive*
G04*
G01*
G75*
%ADD21C,0.00394*%
%ADD113C,0.00100*%
%ADD114C,0.00197*%
%ADD115C,0.00158*%
%ADD116C,0.00200*%
D21*
X1344546Y1292728D02*
X1411546D01*
X1344546Y1225728D02*
Y1292728D01*
Y1225728D02*
X1411546D01*
Y1292728D01*
D113*
X1431883Y1267928D02*
G03*
X1431883Y1267928I-500J0D01*
G01*
X1436212Y1213429D02*
G03*
X1436212Y1213429I-500J0D01*
G01*
X1510371Y1296729D02*
G03*
X1510371Y1296729I-500J0D01*
G01*
X1505871D02*
G03*
X1505871Y1296729I-500J0D01*
G01*
X1519500Y1289500D02*
G03*
X1519500Y1289500I-500J0D01*
G01*
X1515000Y1296729D02*
G03*
X1515000Y1296729I-500J0D01*
G01*
X1458883Y1263000D02*
G03*
X1458883Y1263000I-500J0D01*
G01*
X1463383D02*
G03*
X1463383Y1263000I-500J0D01*
G01*
X1472500Y1262729D02*
G03*
X1472500Y1262729I-500J0D01*
G01*
X1467883Y1262957D02*
G03*
X1467883Y1262957I-500J0D01*
G01*
X1477000Y1263000D02*
G03*
X1477000Y1263000I-500J0D01*
G01*
X1454383Y1262957D02*
G03*
X1454383Y1262957I-500J0D01*
G01*
X1497000Y1260441D02*
G03*
X1497000Y1260441I-500J0D01*
G01*
X1496696Y1277228D02*
G03*
X1496696Y1277228I-500J0D01*
G01*
X1496500Y1268260D02*
G03*
X1496500Y1268260I-500J0D01*
G01*
Y1272760D02*
G03*
X1496500Y1272760I-500J0D01*
G01*
X1496696Y1281728D02*
G03*
X1496696Y1281728I-500J0D01*
G01*
X1275283Y1264728D02*
G03*
X1275283Y1264728I-500J0D01*
G01*
Y1272228D02*
G03*
X1275283Y1272228I-500J0D01*
G01*
X1431612Y1258929D02*
G03*
X1431612Y1258929I-500J0D01*
G01*
X1431788Y1263286D02*
G03*
X1431788Y1263286I-500J0D01*
G01*
X1519000Y1260425D02*
G03*
X1519000Y1260425I-500J0D01*
G01*
X1504501Y1240000D02*
G03*
X1504501Y1240000I-500J0D01*
G01*
X1285000Y1203500D02*
G03*
X1285000Y1203500I-500J0D01*
G01*
Y1217000D02*
G03*
X1285000Y1217000I-500J0D01*
G01*
X1525100Y1272728D02*
G03*
X1525100Y1272728I-500J0D01*
G01*
X1524904Y1277260D02*
G03*
X1524904Y1277260I-500J0D01*
G01*
X1525100Y1281760D02*
G03*
X1525100Y1281760I-500J0D01*
G01*
X1524904Y1268229D02*
G03*
X1524904Y1268229I-500J0D01*
G01*
X1525100Y1263729D02*
G03*
X1525100Y1263729I-500J0D01*
G01*
X1525271Y1259500D02*
G03*
X1525271Y1259500I-500J0D01*
G01*
X1504501Y1220500D02*
G03*
X1504501Y1220500I-500J0D01*
G01*
X1504500Y1227000D02*
G03*
X1504500Y1227000I-500J0D01*
G01*
X1302500Y1299729D02*
G03*
X1302500Y1299729I-500J0D01*
G01*
X1302500Y1292271D02*
G03*
X1302500Y1292271I-500J0D01*
G01*
X1452612Y1249229D02*
G03*
X1452612Y1249229I-500J0D01*
G01*
Y1253729D02*
G03*
X1452612Y1253729I-500J0D01*
G01*
X1524883Y1239229D02*
G03*
X1524883Y1239229I-500J0D01*
G01*
Y1221229D02*
G03*
X1524883Y1221229I-500J0D01*
G01*
X1525079Y1234728D02*
G03*
X1525079Y1234728I-500J0D01*
G01*
X1524883Y1230229D02*
G03*
X1524883Y1230229I-500J0D01*
G01*
Y1225729D02*
G03*
X1524883Y1225729I-500J0D01*
G01*
X1504500Y1246529D02*
G03*
X1504500Y1246529I-500J0D01*
G01*
X1522884Y1300500D02*
G03*
X1522884Y1300500I-500J0D01*
G01*
X1510371Y1289335D02*
G03*
X1510371Y1289335I-500J0D01*
G01*
X1505871D02*
G03*
X1505871Y1289335I-500J0D01*
G01*
X1514871D02*
G03*
X1514871Y1289335I-500J0D01*
G01*
X1526383Y1300500D02*
G03*
X1526383Y1300500I-500J0D01*
G01*
X1461824Y1283728D02*
G03*
X1461824Y1283728I-500J0D01*
G01*
X1381583Y1298303D02*
G03*
X1381583Y1298303I-500J0D01*
G01*
X1377155Y1221728D02*
G03*
X1377155Y1221728I-500J0D01*
G01*
X1404455Y1222031D02*
G03*
X1404455Y1222031I-500J0D01*
G01*
X1417655Y1256128D02*
G03*
X1417655Y1256128I-500J0D01*
G01*
X1335883Y1278000D02*
G03*
X1335883Y1278000I-500J0D01*
G01*
X1340000Y1224000D02*
G03*
X1340000Y1224000I-500J0D01*
G01*
X1352912Y1296729D02*
G03*
X1352912Y1296729I-500J0D01*
G01*
X1415884Y1284600D02*
G03*
X1415884Y1284600I-500J0D01*
G01*
X1335884Y1266500D02*
G03*
X1335884Y1266500I-500J0D01*
G01*
X1345383Y1217957D02*
G03*
X1345383Y1217957I-500J0D01*
G01*
X1363383Y1217457D02*
G03*
X1363383Y1217457I-500J0D01*
G01*
X1367383Y1217457D02*
G03*
X1367383Y1217457I-500J0D01*
G01*
X1371383D02*
G03*
X1371383Y1217457I-500J0D01*
G01*
X1335884Y1256500D02*
G03*
X1335884Y1256500I-500J0D01*
G01*
X1335883Y1247957D02*
G03*
X1335883Y1247957I-500J0D01*
G01*
X1275383Y1253728D02*
G03*
X1275383Y1253728I-500J0D01*
G01*
X1331384Y1278000D02*
G03*
X1331384Y1278000I-500J0D01*
G01*
X1331383Y1266457D02*
G03*
X1331383Y1266457I-500J0D01*
G01*
X1275383Y1234728D02*
G03*
X1275383Y1234728I-500J0D01*
G01*
X1499271Y1219000D02*
G03*
X1499271Y1219000I-500J0D01*
G01*
X1433500Y1286000D02*
G03*
X1433500Y1286000I-500J0D01*
G01*
X1469384Y1283653D02*
G03*
X1469384Y1283653I-500J0D01*
G01*
X1339883Y1216228D02*
G03*
X1339883Y1216228I-500J0D01*
G01*
Y1219728D02*
G03*
X1339883Y1219728I-500J0D01*
G01*
X1275383Y1246228D02*
G03*
X1275383Y1246228I-500J0D01*
G01*
Y1227228D02*
G03*
X1275383Y1227228I-500J0D01*
G01*
X1425212Y1213429D02*
G03*
X1425212Y1213429I-500J0D01*
G01*
X1452808Y1224728D02*
G03*
X1452808Y1224728I-500J0D01*
G01*
Y1220228D02*
G03*
X1452808Y1220228I-500J0D01*
G01*
Y1215728D02*
G03*
X1452808Y1215728I-500J0D01*
G01*
X1452612Y1229229D02*
G03*
X1452612Y1229229I-500J0D01*
G01*
X1431383Y1267141D02*
Y1268716D01*
X1430596Y1267928D02*
X1432171D01*
X1434924Y1213429D02*
X1436499D01*
X1435712Y1212641D02*
Y1214216D01*
X1509084Y1296729D02*
X1510658D01*
X1509871Y1295941D02*
Y1297516D01*
X1504584Y1296729D02*
X1506158D01*
X1505371Y1295941D02*
Y1297516D01*
X1519000Y1288713D02*
Y1290287D01*
X1518213Y1289500D02*
X1519787D01*
X1514500Y1295941D02*
Y1297516D01*
X1513712Y1296729D02*
X1515287D01*
X1457596Y1263000D02*
X1459171D01*
X1458383Y1262212D02*
Y1263787D01*
X1462096Y1263000D02*
X1463671D01*
X1462883Y1262212D02*
Y1263787D01*
X1471212Y1262729D02*
X1472787D01*
X1472000Y1261941D02*
Y1263516D01*
X1467383Y1262170D02*
Y1263744D01*
X1466595Y1262957D02*
X1468170D01*
X1475713Y1263000D02*
X1477287D01*
X1476500Y1262213D02*
Y1263787D01*
X1453883Y1262170D02*
Y1263744D01*
X1453095Y1262957D02*
X1454670D01*
X1496500Y1259654D02*
Y1261229D01*
X1495712Y1260441D02*
X1497287D01*
X1496196Y1276441D02*
Y1278015D01*
X1495409Y1277228D02*
X1496984D01*
X1496000Y1267473D02*
Y1269048D01*
X1495213Y1268260D02*
X1496787D01*
X1496000Y1271973D02*
Y1273548D01*
X1495213Y1272760D02*
X1496787D01*
X1496196Y1280941D02*
Y1282515D01*
X1495409Y1281728D02*
X1496984D01*
X1273996Y1264728D02*
X1275571D01*
X1274783Y1263941D02*
Y1265516D01*
Y1271441D02*
Y1273016D01*
X1273996Y1272228D02*
X1275571D01*
X1430324Y1258929D02*
X1431899D01*
X1431112Y1258141D02*
Y1259716D01*
X1430501Y1263286D02*
X1432076D01*
X1431288Y1262499D02*
Y1264074D01*
X1518500Y1259638D02*
Y1261212D01*
X1517713Y1260425D02*
X1519288D01*
X1504001Y1239213D02*
Y1240787D01*
X1503213Y1240000D02*
X1504788D01*
X1284500Y1202713D02*
Y1204287D01*
X1283713Y1203500D02*
X1285287D01*
X1284500Y1216213D02*
Y1217787D01*
X1283713Y1217000D02*
X1285287D01*
X1524600Y1271941D02*
Y1273516D01*
X1523813Y1272728D02*
X1525387D01*
X1523616Y1277260D02*
X1525191D01*
X1524404Y1276473D02*
Y1278048D01*
X1524600Y1280973D02*
Y1282548D01*
X1523813Y1281760D02*
X1525387D01*
X1523616Y1268229D02*
X1525191D01*
X1524404Y1267441D02*
Y1269016D01*
X1524600Y1262941D02*
Y1264516D01*
X1523813Y1263729D02*
X1525387D01*
X1523984Y1259500D02*
X1525559D01*
X1524771Y1258712D02*
Y1260287D01*
X1504001Y1219713D02*
Y1221287D01*
X1503213Y1220500D02*
X1504788D01*
X1504000Y1226213D02*
Y1227787D01*
X1503213Y1227000D02*
X1504787D01*
X1302000Y1298941D02*
Y1300516D01*
X1301212Y1299729D02*
X1302787D01*
X1302000Y1291484D02*
Y1293059D01*
X1301213Y1292271D02*
X1302788D01*
X1452112Y1248441D02*
Y1250016D01*
X1451324Y1249229D02*
X1452899D01*
X1452112Y1252941D02*
Y1254516D01*
X1451324Y1253729D02*
X1452899D01*
X1523596Y1239229D02*
X1525171D01*
X1524383Y1238441D02*
Y1240016D01*
X1523596Y1221229D02*
X1525171D01*
X1524383Y1220441D02*
Y1222016D01*
X1523792Y1234728D02*
X1525367D01*
X1524579Y1233941D02*
Y1235515D01*
X1523596Y1230229D02*
X1525171D01*
X1524383Y1229441D02*
Y1231016D01*
X1523596Y1225729D02*
X1525171D01*
X1524383Y1224941D02*
Y1226516D01*
X1504000Y1245741D02*
Y1247316D01*
X1503213Y1246529D02*
X1504787D01*
X1522383Y1299712D02*
Y1301287D01*
X1521596Y1300500D02*
X1523171D01*
X1509871Y1288548D02*
Y1290122D01*
X1509084Y1289335D02*
X1510658D01*
X1505371Y1288548D02*
Y1290122D01*
X1504584Y1289335D02*
X1506158D01*
X1514371Y1288548D02*
Y1290122D01*
X1513584Y1289335D02*
X1515158D01*
X1525883Y1299712D02*
Y1301287D01*
X1525096Y1300500D02*
X1526671D01*
X1461324Y1282941D02*
Y1284515D01*
X1460536Y1283728D02*
X1462111D01*
X1380296Y1298303D02*
X1381871D01*
X1381083Y1297515D02*
Y1299090D01*
X1376655Y1220941D02*
Y1222515D01*
X1375867Y1221728D02*
X1377442D01*
X1403955Y1221244D02*
Y1222819D01*
X1403167Y1222031D02*
X1404742D01*
X1417155Y1255341D02*
Y1256915D01*
X1416367Y1256128D02*
X1417942D01*
X1334596Y1278000D02*
X1336171D01*
X1335383Y1277213D02*
Y1278787D01*
X1339500Y1223213D02*
Y1224787D01*
X1338713Y1224000D02*
X1340287D01*
X1352412Y1295941D02*
Y1297516D01*
X1351624Y1296729D02*
X1353199D01*
X1414596Y1284600D02*
X1416171D01*
X1415384Y1283812D02*
Y1285387D01*
X1334596Y1266500D02*
X1336171D01*
X1335384Y1265712D02*
Y1267287D01*
X1344095Y1217957D02*
X1345670D01*
X1344883Y1217170D02*
Y1218744D01*
X1362096Y1217457D02*
X1363671D01*
X1362883Y1216669D02*
Y1218244D01*
X1366095Y1217457D02*
X1367670D01*
X1366883Y1216670D02*
Y1218244D01*
X1370095Y1217457D02*
X1371670D01*
X1370883Y1216670D02*
Y1218244D01*
X1334596Y1256500D02*
X1336171D01*
X1335384Y1255712D02*
Y1257287D01*
X1334595Y1247957D02*
X1336170D01*
X1335383Y1247170D02*
Y1248744D01*
X1274096Y1253728D02*
X1275671D01*
X1274883Y1252941D02*
Y1254516D01*
X1330096Y1278000D02*
X1331671D01*
X1330884Y1277212D02*
Y1278787D01*
X1330095Y1266457D02*
X1331670D01*
X1330883Y1265670D02*
Y1267244D01*
X1274096Y1234728D02*
X1275671D01*
X1274883Y1233941D02*
Y1235516D01*
X1498771Y1218212D02*
Y1219787D01*
X1497984Y1219000D02*
X1499559D01*
X1432213Y1286000D02*
X1433787D01*
X1433000Y1285213D02*
Y1286787D01*
X1468884Y1282866D02*
Y1284441D01*
X1468096Y1283653D02*
X1469671D01*
X1338596Y1216228D02*
X1340171D01*
X1339383Y1215441D02*
Y1217016D01*
X1338596Y1219728D02*
X1340171D01*
X1339383Y1218941D02*
Y1220516D01*
X1274883Y1245441D02*
Y1247016D01*
X1274096Y1246228D02*
X1275671D01*
X1274883Y1226441D02*
Y1228016D01*
X1274096Y1227228D02*
X1275671D01*
X1423924Y1213429D02*
X1425499D01*
X1424712Y1212641D02*
Y1214216D01*
X1451521Y1224728D02*
X1453095D01*
X1452308Y1223941D02*
Y1225515D01*
X1451521Y1220228D02*
X1453095D01*
X1452308Y1219441D02*
Y1221015D01*
X1451521Y1215728D02*
X1453095D01*
X1452308Y1214941D02*
Y1216515D01*
X1451324Y1229229D02*
X1452899D01*
X1452112Y1228441D02*
Y1230016D01*
D114*
X1487378Y1262000D02*
G03*
X1487378Y1262000I-1378J0D01*
G01*
D02*
G03*
X1487378Y1262000I-1378J0D01*
G01*
X1379424Y1259228D02*
G03*
X1379424Y1259228I-1378J0D01*
G01*
X1434261Y1295969D02*
G03*
X1434261Y1295969I-1378J0D01*
G01*
D02*
G03*
X1434261Y1295969I-1378J0D01*
G01*
X1465240Y1275728D02*
G03*
X1465240Y1275728I-1378J0D01*
G01*
D02*
G03*
X1465240Y1275728I-1378J0D01*
G01*
Y1297728D02*
G03*
X1465240Y1297728I-1378J0D01*
G01*
D02*
G03*
X1465240Y1297728I-1378J0D01*
G01*
X1486000Y1260032D02*
Y1263968D01*
X1484031Y1262000D02*
X1487969D01*
X1484031D02*
X1487969D01*
X1486000Y1260032D02*
Y1263968D01*
X1376078Y1259228D02*
X1380015D01*
X1378046Y1257260D02*
Y1261197D01*
X1430914Y1295969D02*
X1434851D01*
X1432883Y1294000D02*
Y1297937D01*
Y1294000D02*
Y1297937D01*
X1430914Y1295969D02*
X1434851D01*
X1463862Y1273759D02*
Y1277697D01*
X1461893Y1275728D02*
X1465830D01*
X1461893D02*
X1465830D01*
X1463862Y1273759D02*
Y1277697D01*
Y1295759D02*
Y1299697D01*
X1461893Y1297728D02*
X1465830D01*
X1461893D02*
X1465830D01*
X1463862Y1295759D02*
Y1299697D01*
D115*
X1327090Y1252228D02*
G03*
X1327090Y1252228I-707J0D01*
G01*
X1325590Y1272228D02*
G03*
X1325590Y1272228I-707J0D01*
G01*
X1325383Y1252228D02*
X1327383D01*
X1326383Y1251228D02*
Y1253228D01*
X1324883Y1271228D02*
Y1273228D01*
X1323883Y1272228D02*
X1325883D01*
D116*
X1464055Y1290228D02*
Y1290728D01*
Y1289728D02*
Y1290228D01*
X1463555D02*
X1464555D01*
X1379883Y1216728D02*
Y1217228D01*
Y1216228D02*
Y1216728D01*
X1379383D02*
X1380383D01*
X1353883Y1217728D02*
Y1218228D01*
Y1218728D01*
X1353383Y1218228D02*
X1354383D01*
M02*
