G04*
G04 #@! TF.GenerationSoftware,Altium Limited,Altium Designer,21.1.1 (26)*
G04*
G04 Layer_Physical_Order=4*
G04 Layer_Color=16711680*
%FSLAX25Y25*%
%MOIN*%
G70*
G04*
G04 #@! TF.SameCoordinates,DA73CDCF-2591-419C-BC5F-B2C7988706A4*
G04*
G04*
G04 #@! TF.FilePolarity,Positive*
G04*
G01*
G75*
%ADD10C,0.01000*%
%ADD11C,0.02000*%
%ADD13C,0.00600*%
%ADD14C,0.00800*%
%ADD19C,0.00500*%
%ADD25R,0.06693X0.06693*%
%ADD94C,0.06693*%
%ADD95R,0.06299X0.06299*%
%ADD96C,0.06299*%
%ADD97C,0.02559*%
G04:AMPARAMS|DCode=98|XSize=39.37mil|YSize=62.99mil|CornerRadius=14.76mil|HoleSize=0mil|Usage=FLASHONLY|Rotation=90.000|XOffset=0mil|YOffset=0mil|HoleType=Round|Shape=RoundedRectangle|*
%AMROUNDEDRECTD98*
21,1,0.03937,0.03347,0,0,90.0*
21,1,0.00984,0.06299,0,0,90.0*
1,1,0.02953,0.01673,0.00492*
1,1,0.02953,0.01673,-0.00492*
1,1,0.02953,-0.01673,-0.00492*
1,1,0.02953,-0.01673,0.00492*
%
%ADD98ROUNDEDRECTD98*%
G04:AMPARAMS|DCode=99|XSize=39.37mil|YSize=82.68mil|CornerRadius=14.76mil|HoleSize=0mil|Usage=FLASHONLY|Rotation=90.000|XOffset=0mil|YOffset=0mil|HoleType=Round|Shape=RoundedRectangle|*
%AMROUNDEDRECTD99*
21,1,0.03937,0.05315,0,0,90.0*
21,1,0.00984,0.08268,0,0,90.0*
1,1,0.02953,0.02657,0.00492*
1,1,0.02953,0.02657,-0.00492*
1,1,0.02953,-0.02657,-0.00492*
1,1,0.02953,-0.02657,0.00492*
%
%ADD99ROUNDEDRECTD99*%
%ADD100C,0.01800*%
%ADD101C,0.17717*%
%ADD110C,0.04724*%
G36*
X1521697Y1346823D02*
X1520975Y1346629D01*
X1520142Y1346149D01*
X1519463Y1345469D01*
X1518982Y1344637D01*
X1518734Y1343709D01*
Y1342748D01*
X1518982Y1341820D01*
X1519463Y1340987D01*
X1520142Y1340308D01*
X1520975Y1339828D01*
X1521903Y1339579D01*
X1522864D01*
X1523101Y1339643D01*
X1525753Y1336991D01*
Y1320916D01*
X1510419Y1305581D01*
X1510419Y1305581D01*
X1507178Y1302340D01*
X1471811D01*
X1471226Y1302224D01*
X1470730Y1301892D01*
X1465919Y1297081D01*
X1465587Y1296585D01*
X1465471Y1296000D01*
Y1289633D01*
X1464367Y1288529D01*
X1457500D01*
X1456915Y1288413D01*
X1456419Y1288081D01*
X1456087Y1287585D01*
X1455971Y1287000D01*
X1456087Y1286415D01*
X1456419Y1285919D01*
X1456915Y1285587D01*
X1457500Y1285471D01*
X1465000D01*
X1465585Y1285587D01*
X1466081Y1285919D01*
X1468081Y1287919D01*
X1468413Y1288415D01*
X1468529Y1289000D01*
Y1295366D01*
X1472445Y1299282D01*
X1499921D01*
X1500128Y1298782D01*
X1489653Y1288307D01*
X1489476Y1288042D01*
X1489414Y1287730D01*
X1489414Y1287730D01*
Y1286158D01*
X1489043Y1285787D01*
X1488830Y1285272D01*
Y1284715D01*
X1489043Y1284201D01*
X1489437Y1283807D01*
X1489951Y1283594D01*
X1490508D01*
X1491023Y1283807D01*
X1491417Y1284201D01*
X1491630Y1284715D01*
Y1285272D01*
X1491417Y1285787D01*
X1491046Y1286158D01*
Y1287392D01*
X1494746Y1291092D01*
X1494930Y1291058D01*
X1495235Y1290875D01*
Y1280317D01*
X1493801Y1278882D01*
X1493377Y1279165D01*
X1493400Y1279222D01*
Y1279778D01*
X1493187Y1280293D01*
X1492793Y1280687D01*
X1492278Y1280900D01*
X1491722D01*
X1491207Y1280687D01*
X1490836Y1280316D01*
X1480338D01*
X1475900Y1284754D01*
Y1285279D01*
X1475687Y1285793D01*
X1475293Y1286187D01*
X1474778Y1286400D01*
X1474222D01*
X1473707Y1286187D01*
X1473577Y1286057D01*
X1473250Y1285836D01*
X1473003Y1286003D01*
X1472836Y1286250D01*
X1473057Y1286577D01*
X1473187Y1286707D01*
X1473400Y1287222D01*
Y1287778D01*
X1473187Y1288293D01*
X1473057Y1288423D01*
X1472836Y1288750D01*
X1473057Y1289077D01*
X1473187Y1289207D01*
X1473400Y1289721D01*
Y1290279D01*
X1473187Y1290793D01*
X1473057Y1290923D01*
X1472836Y1291250D01*
X1473057Y1291577D01*
X1473187Y1291707D01*
X1473400Y1292222D01*
Y1292778D01*
X1473187Y1293293D01*
X1473057Y1293423D01*
X1472836Y1293750D01*
X1473057Y1294077D01*
X1473187Y1294207D01*
X1473400Y1294722D01*
Y1295278D01*
X1473187Y1295793D01*
X1472793Y1296187D01*
X1472278Y1296400D01*
X1471721D01*
X1471207Y1296187D01*
X1470813Y1295793D01*
X1470600Y1295278D01*
Y1294722D01*
X1470813Y1294207D01*
X1470944Y1294077D01*
X1471164Y1293750D01*
X1470944Y1293423D01*
X1470813Y1293293D01*
X1470600Y1292778D01*
Y1292222D01*
X1470813Y1291707D01*
X1470944Y1291577D01*
X1471164Y1291250D01*
X1470944Y1290923D01*
X1470813Y1290793D01*
X1470600Y1290279D01*
Y1289721D01*
X1470813Y1289207D01*
X1470944Y1289077D01*
X1471164Y1288750D01*
X1470944Y1288423D01*
X1470813Y1288293D01*
X1470600Y1287778D01*
Y1287222D01*
X1470813Y1286707D01*
X1470944Y1286577D01*
X1471164Y1286250D01*
X1470944Y1285923D01*
X1470813Y1285793D01*
X1470600Y1285279D01*
Y1284721D01*
X1470813Y1284207D01*
X1471207Y1283813D01*
X1471721Y1283600D01*
X1472278D01*
X1472793Y1283813D01*
X1472923Y1283943D01*
X1473250Y1284164D01*
X1473577Y1283943D01*
X1473707Y1283813D01*
X1474222Y1283600D01*
X1474747D01*
X1479423Y1278923D01*
X1479423Y1278923D01*
X1479688Y1278746D01*
X1480000Y1278684D01*
X1490836D01*
X1491207Y1278313D01*
X1491722Y1278100D01*
X1492278D01*
X1492335Y1278123D01*
X1492618Y1277699D01*
X1492183Y1277265D01*
X1491000D01*
X1491000Y1277265D01*
X1490707Y1277207D01*
X1490459Y1277041D01*
X1485683Y1272265D01*
X1399318D01*
X1399111Y1272765D01*
X1401582Y1275235D01*
X1421301D01*
X1421313Y1275207D01*
X1421707Y1274813D01*
X1422221Y1274600D01*
X1422779D01*
X1423293Y1274813D01*
X1423687Y1275207D01*
X1423900Y1275721D01*
Y1276177D01*
X1424156Y1276367D01*
X1424362Y1276439D01*
X1424600Y1276235D01*
Y1275721D01*
X1424813Y1275207D01*
X1425207Y1274813D01*
X1425721Y1274600D01*
X1426278D01*
X1426793Y1274813D01*
X1427187Y1275207D01*
X1427400Y1275721D01*
Y1276278D01*
X1427187Y1276793D01*
X1426793Y1277187D01*
X1426278Y1277400D01*
X1425765D01*
X1425561Y1277638D01*
X1425632Y1277843D01*
X1425823Y1278100D01*
X1426278D01*
X1426793Y1278313D01*
X1427187Y1278707D01*
X1427400Y1279222D01*
Y1279778D01*
X1427187Y1280293D01*
X1426793Y1280687D01*
X1426278Y1280900D01*
X1425721D01*
X1425693Y1280888D01*
X1420041Y1286541D01*
X1419793Y1286707D01*
X1419500Y1286765D01*
X1405653D01*
X1405446Y1287265D01*
X1409041Y1290859D01*
X1409206Y1291107D01*
X1409265Y1291400D01*
Y1295577D01*
X1433423Y1319735D01*
X1449655D01*
X1449947Y1319794D01*
X1450196Y1319959D01*
X1459541Y1329304D01*
X1459541Y1329304D01*
X1459541Y1329305D01*
X1460397Y1330161D01*
X1460975Y1329827D01*
X1461903Y1329579D01*
X1462864D01*
X1463792Y1329827D01*
X1464624Y1330308D01*
X1465304Y1330987D01*
X1465784Y1331820D01*
X1466033Y1332748D01*
Y1333709D01*
X1465784Y1334637D01*
X1465304Y1335469D01*
X1464624Y1336149D01*
X1463792Y1336629D01*
X1462864Y1336878D01*
X1461903D01*
X1460975Y1336629D01*
X1460142Y1336149D01*
X1459463Y1335469D01*
X1458982Y1334637D01*
X1458765Y1333825D01*
X1458265Y1333891D01*
Y1338028D01*
X1460397Y1340161D01*
X1460975Y1339828D01*
X1461903Y1339579D01*
X1462864D01*
X1463792Y1339828D01*
X1464624Y1340308D01*
X1465304Y1340987D01*
X1465784Y1341820D01*
X1466033Y1342748D01*
Y1343709D01*
X1465784Y1344637D01*
X1465304Y1345469D01*
X1464624Y1346149D01*
X1463792Y1346629D01*
X1463069Y1346823D01*
X1463135Y1347323D01*
X1471632D01*
X1471697Y1346823D01*
X1470975Y1346629D01*
X1470142Y1346149D01*
X1469463Y1345469D01*
X1468982Y1344637D01*
X1468734Y1343709D01*
Y1342748D01*
X1468982Y1341820D01*
X1469463Y1340987D01*
X1470142Y1340308D01*
X1470975Y1339828D01*
X1471903Y1339579D01*
X1472864D01*
X1473792Y1339828D01*
X1474624Y1340308D01*
X1475304Y1340987D01*
X1475784Y1341820D01*
X1476033Y1342748D01*
Y1343709D01*
X1475784Y1344637D01*
X1475304Y1345469D01*
X1474624Y1346149D01*
X1473792Y1346629D01*
X1473069Y1346823D01*
X1473135Y1347323D01*
X1481631D01*
X1481697Y1346823D01*
X1480974Y1346629D01*
X1480142Y1346149D01*
X1479463Y1345469D01*
X1478982Y1344637D01*
X1478734Y1343709D01*
Y1342748D01*
X1478982Y1341820D01*
X1479463Y1340987D01*
X1480142Y1340308D01*
X1480974Y1339828D01*
X1481903Y1339579D01*
X1482864D01*
X1483792Y1339828D01*
X1484624Y1340308D01*
X1485304Y1340987D01*
X1485784Y1341820D01*
X1486033Y1342748D01*
Y1343709D01*
X1485784Y1344637D01*
X1485304Y1345469D01*
X1484624Y1346149D01*
X1483792Y1346629D01*
X1483069Y1346823D01*
X1483135Y1347323D01*
X1491632D01*
X1491697Y1346823D01*
X1490975Y1346629D01*
X1490142Y1346149D01*
X1489463Y1345469D01*
X1488982Y1344637D01*
X1488734Y1343709D01*
Y1342748D01*
X1488982Y1341820D01*
X1489463Y1340987D01*
X1490142Y1340308D01*
X1490975Y1339828D01*
X1491903Y1339579D01*
X1492864D01*
X1493792Y1339828D01*
X1494624Y1340308D01*
X1495304Y1340987D01*
X1495784Y1341820D01*
X1496033Y1342748D01*
Y1343709D01*
X1495784Y1344637D01*
X1495304Y1345469D01*
X1494624Y1346149D01*
X1493792Y1346629D01*
X1493069Y1346823D01*
X1493135Y1347323D01*
X1501632D01*
X1501697Y1346823D01*
X1500974Y1346629D01*
X1500142Y1346149D01*
X1499463Y1345469D01*
X1498982Y1344637D01*
X1498734Y1343709D01*
Y1342748D01*
X1498982Y1341820D01*
X1499463Y1340987D01*
X1500142Y1340308D01*
X1500974Y1339828D01*
X1501903Y1339579D01*
X1502864D01*
X1503792Y1339828D01*
X1504624Y1340308D01*
X1505304Y1340987D01*
X1505784Y1341820D01*
X1506033Y1342748D01*
Y1343709D01*
X1505784Y1344637D01*
X1505304Y1345469D01*
X1504624Y1346149D01*
X1503792Y1346629D01*
X1503069Y1346823D01*
X1503135Y1347323D01*
X1511631D01*
X1511697Y1346823D01*
X1510975Y1346629D01*
X1510142Y1346149D01*
X1509463Y1345469D01*
X1508982Y1344637D01*
X1508734Y1343709D01*
Y1342748D01*
X1508982Y1341820D01*
X1509463Y1340987D01*
X1510142Y1340308D01*
X1510975Y1339828D01*
X1511903Y1339579D01*
X1512864D01*
X1513792Y1339828D01*
X1514624Y1340308D01*
X1515304Y1340987D01*
X1515784Y1341820D01*
X1516033Y1342748D01*
Y1343709D01*
X1515784Y1344637D01*
X1515304Y1345469D01*
X1514624Y1346149D01*
X1513792Y1346629D01*
X1513069Y1346823D01*
X1513135Y1347323D01*
X1521632D01*
X1521697Y1346823D01*
D02*
G37*
G36*
X1441697D02*
X1440975Y1346629D01*
X1440142Y1346149D01*
X1439463Y1345469D01*
X1438982Y1344637D01*
X1438734Y1343709D01*
Y1342748D01*
X1438982Y1341820D01*
X1439316Y1341242D01*
X1436959Y1338886D01*
X1436794Y1338638D01*
X1436735Y1338345D01*
Y1330783D01*
X1434717Y1328765D01*
X1430000D01*
X1429707Y1328706D01*
X1429459Y1328541D01*
X1385959Y1285041D01*
X1385793Y1284793D01*
X1385735Y1284500D01*
Y1277553D01*
X1385250Y1277331D01*
X1378541Y1284041D01*
X1378293Y1284206D01*
X1378000Y1284265D01*
X1363500D01*
X1363207Y1284206D01*
X1362959Y1284041D01*
X1362959Y1284041D01*
X1359265Y1280346D01*
X1358765Y1280553D01*
Y1285000D01*
X1358765Y1285000D01*
X1358706Y1285293D01*
X1358541Y1285541D01*
X1355265Y1288817D01*
Y1318683D01*
X1368041Y1331459D01*
X1368041Y1331459D01*
X1368207Y1331707D01*
X1368265Y1332000D01*
X1368265Y1332000D01*
Y1332566D01*
X1368765Y1332632D01*
X1368982Y1331820D01*
X1369463Y1330987D01*
X1370142Y1330308D01*
X1370975Y1329827D01*
X1371903Y1329579D01*
X1372864D01*
X1373792Y1329827D01*
X1374624Y1330308D01*
X1375304Y1330987D01*
X1375784Y1331820D01*
X1376033Y1332748D01*
Y1333709D01*
X1375784Y1334637D01*
X1375304Y1335469D01*
X1374624Y1336149D01*
X1373792Y1336629D01*
X1372864Y1336878D01*
X1371903D01*
X1370975Y1336629D01*
X1370142Y1336149D01*
X1369463Y1335469D01*
X1368982Y1334637D01*
X1368765Y1333825D01*
X1368265Y1333891D01*
Y1338028D01*
X1370397Y1340161D01*
X1370975Y1339828D01*
X1371903Y1339579D01*
X1372864D01*
X1373792Y1339828D01*
X1374624Y1340308D01*
X1375304Y1340987D01*
X1375784Y1341820D01*
X1376033Y1342748D01*
Y1343709D01*
X1375784Y1344637D01*
X1375304Y1345469D01*
X1374624Y1346149D01*
X1373792Y1346629D01*
X1373069Y1346823D01*
X1373135Y1347323D01*
X1381631D01*
X1381697Y1346823D01*
X1380974Y1346629D01*
X1380142Y1346149D01*
X1379463Y1345469D01*
X1378982Y1344637D01*
X1378734Y1343709D01*
Y1342748D01*
X1378982Y1341820D01*
X1379463Y1340987D01*
X1380142Y1340308D01*
X1380974Y1339828D01*
X1381903Y1339579D01*
X1382864D01*
X1383792Y1339828D01*
X1384624Y1340308D01*
X1385304Y1340987D01*
X1385784Y1341820D01*
X1386033Y1342748D01*
Y1343709D01*
X1385784Y1344637D01*
X1385304Y1345469D01*
X1384624Y1346149D01*
X1383792Y1346629D01*
X1383069Y1346823D01*
X1383135Y1347323D01*
X1391632D01*
X1391697Y1346823D01*
X1390975Y1346629D01*
X1390142Y1346149D01*
X1389463Y1345469D01*
X1388982Y1344637D01*
X1388734Y1343709D01*
Y1342748D01*
X1388982Y1341820D01*
X1389463Y1340987D01*
X1390142Y1340308D01*
X1390975Y1339828D01*
X1391903Y1339579D01*
X1392864D01*
X1393792Y1339828D01*
X1394624Y1340308D01*
X1395304Y1340987D01*
X1395784Y1341820D01*
X1396033Y1342748D01*
Y1343709D01*
X1395784Y1344637D01*
X1395304Y1345469D01*
X1394624Y1346149D01*
X1393792Y1346629D01*
X1393069Y1346823D01*
X1393135Y1347323D01*
X1401632D01*
X1401697Y1346823D01*
X1400974Y1346629D01*
X1400142Y1346149D01*
X1399463Y1345469D01*
X1398982Y1344637D01*
X1398734Y1343709D01*
Y1342748D01*
X1398982Y1341820D01*
X1399463Y1340987D01*
X1400142Y1340308D01*
X1400974Y1339828D01*
X1401903Y1339579D01*
X1402864D01*
X1403792Y1339828D01*
X1404624Y1340308D01*
X1405304Y1340987D01*
X1405784Y1341820D01*
X1406033Y1342748D01*
Y1343709D01*
X1405784Y1344637D01*
X1405304Y1345469D01*
X1404624Y1346149D01*
X1403792Y1346629D01*
X1403069Y1346823D01*
X1403135Y1347323D01*
X1411631D01*
X1411697Y1346823D01*
X1410975Y1346629D01*
X1410142Y1346149D01*
X1409463Y1345469D01*
X1408982Y1344637D01*
X1408734Y1343709D01*
Y1342748D01*
X1408982Y1341820D01*
X1409463Y1340987D01*
X1410142Y1340308D01*
X1410975Y1339828D01*
X1411903Y1339579D01*
X1412864D01*
X1413792Y1339828D01*
X1414624Y1340308D01*
X1415304Y1340987D01*
X1415784Y1341820D01*
X1416033Y1342748D01*
Y1343709D01*
X1415784Y1344637D01*
X1415304Y1345469D01*
X1414624Y1346149D01*
X1413792Y1346629D01*
X1413069Y1346823D01*
X1413135Y1347323D01*
X1421632D01*
X1421697Y1346823D01*
X1420975Y1346629D01*
X1420142Y1346149D01*
X1419463Y1345469D01*
X1418982Y1344637D01*
X1418734Y1343709D01*
Y1342748D01*
X1418982Y1341820D01*
X1419463Y1340987D01*
X1420142Y1340308D01*
X1420975Y1339828D01*
X1421903Y1339579D01*
X1422864D01*
X1423792Y1339828D01*
X1424624Y1340308D01*
X1425304Y1340987D01*
X1425784Y1341820D01*
X1426033Y1342748D01*
Y1343709D01*
X1425784Y1344637D01*
X1425304Y1345469D01*
X1424624Y1346149D01*
X1423792Y1346629D01*
X1423069Y1346823D01*
X1423135Y1347323D01*
X1431631D01*
X1431697Y1346823D01*
X1430974Y1346629D01*
X1430142Y1346149D01*
X1429463Y1345469D01*
X1428982Y1344637D01*
X1428734Y1343709D01*
Y1342748D01*
X1428982Y1341820D01*
X1429463Y1340987D01*
X1430142Y1340308D01*
X1430974Y1339828D01*
X1431903Y1339579D01*
X1432864D01*
X1433792Y1339828D01*
X1434624Y1340308D01*
X1435304Y1340987D01*
X1435784Y1341820D01*
X1436033Y1342748D01*
Y1343709D01*
X1435784Y1344637D01*
X1435304Y1345469D01*
X1434624Y1346149D01*
X1433792Y1346629D01*
X1433069Y1346823D01*
X1433135Y1347323D01*
X1441632D01*
X1441697Y1346823D01*
D02*
G37*
G36*
X1555571Y1347165D02*
X1557229Y1346663D01*
X1558756Y1345846D01*
X1560095Y1344747D01*
X1561194Y1343408D01*
X1562010Y1341881D01*
X1562513Y1340224D01*
X1562679Y1338541D01*
X1562671Y1338500D01*
Y1179957D01*
X1562679Y1179916D01*
X1562513Y1178233D01*
X1562010Y1176576D01*
X1561194Y1175048D01*
X1560095Y1173709D01*
X1558756Y1172611D01*
X1557229Y1171794D01*
X1555571Y1171291D01*
X1553889Y1171126D01*
X1553848Y1171134D01*
X1533135D01*
X1533069Y1171634D01*
X1533792Y1171828D01*
X1534624Y1172308D01*
X1535304Y1172987D01*
X1535784Y1173820D01*
X1536033Y1174748D01*
Y1175709D01*
X1535784Y1176637D01*
X1535304Y1177469D01*
X1534624Y1178149D01*
X1533792Y1178629D01*
X1532864Y1178878D01*
X1531903D01*
X1530974Y1178629D01*
X1530142Y1178149D01*
X1529463Y1177469D01*
X1528982Y1176637D01*
X1528734Y1175709D01*
Y1174748D01*
X1528982Y1173820D01*
X1529463Y1172987D01*
X1530142Y1172308D01*
X1530974Y1171828D01*
X1531697Y1171634D01*
X1531632Y1171134D01*
X1523135D01*
X1523069Y1171634D01*
X1523792Y1171828D01*
X1524624Y1172308D01*
X1525304Y1172987D01*
X1525784Y1173820D01*
X1526033Y1174748D01*
Y1175709D01*
X1525784Y1176637D01*
X1525304Y1177469D01*
X1524624Y1178149D01*
X1523792Y1178629D01*
X1522864Y1178878D01*
X1521903D01*
X1520975Y1178629D01*
X1520397Y1178296D01*
X1517765Y1180928D01*
Y1186447D01*
X1518265Y1186654D01*
X1518779Y1186139D01*
X1518838Y1186100D01*
X1518734Y1185709D01*
Y1184748D01*
X1518982Y1183820D01*
X1519463Y1182987D01*
X1520142Y1182308D01*
X1520975Y1181828D01*
X1521903Y1181579D01*
X1522864D01*
X1523792Y1181828D01*
X1524624Y1182308D01*
X1525304Y1182987D01*
X1525784Y1183820D01*
X1526033Y1184748D01*
Y1185709D01*
X1525784Y1186637D01*
X1525304Y1187469D01*
X1524624Y1188149D01*
X1523792Y1188629D01*
X1522864Y1188878D01*
X1521903D01*
X1520975Y1188629D01*
X1520142Y1188149D01*
X1519538Y1187544D01*
X1512041Y1195041D01*
X1511793Y1195207D01*
X1511500Y1195265D01*
X1502817D01*
X1469491Y1228591D01*
X1469809Y1228979D01*
X1470098Y1228786D01*
X1470488Y1228709D01*
X1471693D01*
X1471716Y1228624D01*
X1472093Y1227971D01*
X1472626Y1227438D01*
X1473278Y1227061D01*
X1474006Y1226866D01*
X1474760D01*
X1475488Y1227061D01*
X1476141Y1227438D01*
X1476674Y1227971D01*
X1477050Y1228624D01*
X1477245Y1229352D01*
Y1230105D01*
X1477050Y1230833D01*
X1476674Y1231486D01*
X1476141Y1232019D01*
X1475488Y1232395D01*
X1474760Y1232591D01*
X1474006D01*
X1473278Y1232395D01*
X1472626Y1232019D01*
X1472093Y1231486D01*
X1471716Y1230833D01*
X1471693Y1230748D01*
X1470910D01*
X1470400Y1231258D01*
Y1231279D01*
X1470187Y1231793D01*
X1469793Y1232187D01*
X1469279Y1232400D01*
X1468721D01*
X1468207Y1232187D01*
X1467813Y1231793D01*
X1467733Y1231600D01*
X1467138Y1231397D01*
X1467007Y1231484D01*
Y1240382D01*
X1467007Y1240382D01*
X1466949Y1240675D01*
X1466783Y1240923D01*
X1457106Y1250600D01*
X1457279Y1251100D01*
X1457793Y1251313D01*
X1458187Y1251707D01*
X1458400Y1252221D01*
Y1252779D01*
X1458187Y1253293D01*
X1457793Y1253687D01*
X1457279Y1253900D01*
X1456721D01*
X1456207Y1253687D01*
X1455813Y1253293D01*
X1455600Y1252779D01*
X1455100Y1252606D01*
X1453833Y1253873D01*
X1453585Y1254039D01*
X1453292Y1254097D01*
X1441159D01*
X1431333Y1263923D01*
X1431487Y1264386D01*
X1431516Y1264423D01*
X1451995D01*
X1454959Y1261459D01*
X1455207Y1261294D01*
X1455500Y1261235D01*
X1470618D01*
X1472827Y1259027D01*
X1472815Y1258999D01*
Y1258442D01*
X1473028Y1257927D01*
X1473422Y1257533D01*
X1473936Y1257320D01*
X1474493D01*
X1475008Y1257533D01*
X1475402Y1257927D01*
X1475529Y1258235D01*
X1501500D01*
X1501793Y1258294D01*
X1502041Y1258459D01*
X1508770Y1265189D01*
X1509334Y1265045D01*
X1509347Y1265000D01*
X1499146Y1254800D01*
X1498621D01*
X1498107Y1254587D01*
X1497713Y1254193D01*
X1497500Y1253679D01*
Y1253121D01*
X1497713Y1252607D01*
X1498107Y1252213D01*
X1498621Y1252000D01*
X1499179D01*
X1499693Y1252213D01*
X1500087Y1252607D01*
X1500300Y1253121D01*
Y1253646D01*
X1511154Y1264500D01*
X1511154Y1264500D01*
X1511220Y1264600D01*
X1511279D01*
X1511793Y1264813D01*
X1512187Y1265207D01*
X1512400Y1265722D01*
Y1266278D01*
X1512187Y1266793D01*
X1511793Y1267187D01*
X1511568Y1267280D01*
X1511443Y1267862D01*
X1512541Y1268959D01*
X1512684Y1269174D01*
X1512721Y1269179D01*
X1513184Y1268887D01*
Y1261259D01*
X1512766Y1260841D01*
X1512241D01*
X1511727Y1260628D01*
X1511333Y1260234D01*
X1511120Y1259719D01*
Y1259163D01*
X1510761Y1258994D01*
X1510746Y1259004D01*
X1510400Y1259439D01*
Y1259778D01*
X1510187Y1260293D01*
X1509793Y1260687D01*
X1509278Y1260900D01*
X1508722D01*
X1508207Y1260687D01*
X1507813Y1260293D01*
X1507600Y1259778D01*
Y1259221D01*
X1507813Y1258707D01*
X1508207Y1258313D01*
X1508722Y1258100D01*
X1509068D01*
X1509401Y1257694D01*
X1509418Y1257638D01*
X1509360Y1257499D01*
Y1256942D01*
X1509393Y1256862D01*
X1509387Y1256837D01*
X1509043Y1256400D01*
X1508722D01*
X1508207Y1256187D01*
X1507813Y1255793D01*
X1507600Y1255278D01*
Y1254722D01*
X1507813Y1254207D01*
X1508207Y1253813D01*
X1508722Y1253600D01*
X1509278D01*
X1509793Y1253813D01*
X1510187Y1254207D01*
X1510400Y1254722D01*
Y1254969D01*
X1510780Y1255401D01*
X1511100Y1255278D01*
Y1254722D01*
X1511313Y1254207D01*
X1511707Y1253813D01*
X1512222Y1253600D01*
X1512778D01*
X1513293Y1253813D01*
X1513687Y1254207D01*
X1513900Y1254722D01*
Y1255278D01*
X1513687Y1255793D01*
X1513293Y1256187D01*
X1512778Y1256400D01*
X1512477D01*
X1512127Y1256859D01*
X1512127Y1256862D01*
X1512160Y1256942D01*
Y1257499D01*
X1512127Y1257579D01*
X1512133Y1257604D01*
X1512477Y1258041D01*
X1512798D01*
X1513313Y1258254D01*
X1513706Y1258648D01*
X1513920Y1259163D01*
Y1259687D01*
X1514577Y1260345D01*
X1514577Y1260345D01*
X1514754Y1260609D01*
X1514816Y1260921D01*
X1514816Y1260921D01*
Y1279662D01*
X1516753Y1281600D01*
X1517278D01*
X1517793Y1281813D01*
X1518187Y1282207D01*
X1518400Y1282722D01*
Y1283278D01*
X1518187Y1283793D01*
X1517793Y1284187D01*
X1517278Y1284400D01*
X1517189D01*
X1516981Y1284900D01*
X1517743Y1285661D01*
X1517908Y1285909D01*
X1517966Y1286202D01*
Y1294000D01*
X1517995Y1294012D01*
X1518389Y1294406D01*
X1518602Y1294921D01*
Y1295477D01*
X1518389Y1295992D01*
X1517995Y1296386D01*
X1517480Y1296599D01*
X1516923D01*
X1516409Y1296386D01*
X1516015Y1295992D01*
X1515802Y1295477D01*
Y1294921D01*
X1516015Y1294406D01*
X1516409Y1294012D01*
X1516437Y1294000D01*
Y1286518D01*
X1511459Y1281541D01*
X1511294Y1281293D01*
X1511235Y1281000D01*
Y1277400D01*
X1510850Y1277142D01*
Y1275260D01*
Y1273378D01*
X1511235Y1273120D01*
Y1269817D01*
X1501183Y1259765D01*
X1494275D01*
X1494176Y1260265D01*
X1494293Y1260313D01*
X1494687Y1260707D01*
X1494900Y1261222D01*
Y1261779D01*
X1494687Y1262293D01*
X1494480Y1262500D01*
X1494687Y1262707D01*
X1494900Y1263221D01*
Y1263778D01*
X1494687Y1264293D01*
X1494480Y1264500D01*
X1494687Y1264707D01*
X1494900Y1265222D01*
Y1265779D01*
X1494687Y1266293D01*
X1494293Y1266687D01*
X1493876Y1266860D01*
X1493737Y1267201D01*
X1493709Y1267400D01*
X1493776Y1267467D01*
X1493989Y1267981D01*
Y1268538D01*
X1493776Y1269053D01*
X1493382Y1269447D01*
X1492868Y1269660D01*
X1492311D01*
X1491796Y1269447D01*
X1491402Y1269053D01*
X1491391Y1269024D01*
X1490643D01*
X1490435Y1269524D01*
X1492282Y1271372D01*
X1492311Y1271360D01*
X1492868D01*
X1493382Y1271573D01*
X1493776Y1271967D01*
X1493989Y1272481D01*
Y1273038D01*
X1493776Y1273553D01*
X1493520Y1273809D01*
X1493498Y1273910D01*
X1493536Y1274304D01*
X1493579Y1274404D01*
X1493662Y1274459D01*
X1498041Y1278838D01*
X1498207Y1279086D01*
X1498265Y1279379D01*
Y1290062D01*
X1500676Y1292474D01*
X1506207D01*
X1506218Y1292445D01*
X1506612Y1292052D01*
X1507127Y1291838D01*
X1507684D01*
X1508198Y1292052D01*
X1508592Y1292445D01*
X1508805Y1292960D01*
Y1293517D01*
X1508715Y1293735D01*
X1509042Y1294235D01*
X1509827D01*
X1510517Y1293545D01*
X1510505Y1293517D01*
Y1292960D01*
X1510718Y1292445D01*
X1511112Y1292052D01*
X1511627Y1291838D01*
X1512184D01*
X1512698Y1292052D01*
X1513092Y1292445D01*
X1513305Y1292960D01*
Y1293517D01*
X1513092Y1294031D01*
X1512698Y1294425D01*
X1512184Y1294638D01*
X1511627D01*
X1511598Y1294627D01*
X1510684Y1295541D01*
X1510436Y1295706D01*
X1510144Y1295765D01*
X1500125D01*
X1499942Y1296070D01*
X1499908Y1296254D01*
X1501393Y1297740D01*
X1516800D01*
X1516813Y1297707D01*
X1517207Y1297313D01*
X1517721Y1297100D01*
X1518279D01*
X1518793Y1297313D01*
X1519187Y1297707D01*
X1519400Y1298221D01*
Y1298779D01*
X1519187Y1299293D01*
X1518793Y1299687D01*
X1518279Y1299900D01*
X1517721D01*
X1517207Y1299687D01*
X1516891Y1299371D01*
X1509234D01*
X1509034Y1299871D01*
X1512581Y1303419D01*
X1512582Y1303419D01*
X1528364Y1319201D01*
X1528695Y1319697D01*
X1528812Y1320282D01*
Y1331115D01*
X1529312Y1331249D01*
X1529463Y1330987D01*
X1530142Y1330308D01*
X1530974Y1329827D01*
X1531903Y1329579D01*
X1532864D01*
X1533792Y1329827D01*
X1534624Y1330308D01*
X1535304Y1330987D01*
X1535784Y1331820D01*
X1536033Y1332748D01*
Y1333709D01*
X1535784Y1334637D01*
X1535304Y1335469D01*
X1534624Y1336149D01*
X1533792Y1336629D01*
X1532864Y1336878D01*
X1531903D01*
X1530974Y1336629D01*
X1530142Y1336149D01*
X1529463Y1335469D01*
X1529312Y1335208D01*
X1528812Y1335342D01*
Y1337494D01*
X1530896Y1339579D01*
X1536033D01*
Y1346823D01*
X1536033Y1346878D01*
X1536166Y1347323D01*
X1553848D01*
X1553889Y1347331D01*
X1555571Y1347165D01*
D02*
G37*
G36*
X1357235Y1284683D02*
Y1272199D01*
X1357207Y1272187D01*
X1356813Y1271793D01*
X1356600Y1271278D01*
Y1270722D01*
X1356623Y1270665D01*
X1356199Y1270382D01*
X1353765Y1272817D01*
Y1279048D01*
X1354004Y1279192D01*
X1354265Y1279289D01*
X1354722Y1279100D01*
X1355278D01*
X1355793Y1279313D01*
X1356187Y1279707D01*
X1356400Y1280221D01*
Y1280779D01*
X1356187Y1281293D01*
X1355793Y1281687D01*
X1355278Y1281900D01*
X1354722D01*
X1354265Y1281711D01*
X1354004Y1281808D01*
X1353765Y1281952D01*
Y1287447D01*
X1354265Y1287654D01*
X1357235Y1284683D01*
D02*
G37*
G36*
X1395941Y1284371D02*
X1396400Y1284126D01*
Y1283722D01*
X1396613Y1283207D01*
X1397007Y1282813D01*
X1397521Y1282600D01*
X1398079D01*
X1398484Y1282768D01*
X1398687Y1282721D01*
X1398816Y1282658D01*
X1399010Y1282523D01*
X1399043Y1282358D01*
X1399208Y1282110D01*
X1400500Y1280819D01*
Y1280721D01*
X1400713Y1280207D01*
X1401107Y1279813D01*
X1401622Y1279600D01*
X1402178D01*
X1402693Y1279813D01*
X1403087Y1280207D01*
X1403300Y1280721D01*
Y1281279D01*
X1403087Y1281793D01*
X1402693Y1282187D01*
X1402590Y1282229D01*
Y1282771D01*
X1402693Y1282813D01*
X1403087Y1283207D01*
X1403300Y1283722D01*
Y1283735D01*
X1411782D01*
X1411913Y1283386D01*
X1411926Y1283235D01*
X1411563Y1282873D01*
X1411350Y1282358D01*
Y1281801D01*
X1411563Y1281287D01*
X1411957Y1280893D01*
X1412472Y1280680D01*
X1413029D01*
X1413543Y1280893D01*
X1413937Y1281287D01*
X1414150Y1281801D01*
Y1282358D01*
X1413937Y1282873D01*
X1413574Y1283235D01*
X1413588Y1283386D01*
X1413718Y1283735D01*
X1417183D01*
X1423118Y1277801D01*
X1422835Y1277377D01*
X1422779Y1277400D01*
X1422221D01*
X1421707Y1277187D01*
X1421313Y1276793D01*
X1421301Y1276765D01*
X1401265D01*
X1401265Y1276765D01*
X1400972Y1276707D01*
X1400724Y1276541D01*
X1400724Y1276541D01*
X1398400Y1274216D01*
X1398208Y1274240D01*
X1397857Y1274381D01*
X1397687Y1274793D01*
X1397293Y1275187D01*
X1396778Y1275400D01*
X1396265D01*
X1396061Y1275638D01*
X1396132Y1275843D01*
X1396323Y1276100D01*
X1396778D01*
X1397293Y1276313D01*
X1397687Y1276707D01*
X1397900Y1277221D01*
Y1277779D01*
X1397687Y1278293D01*
X1397293Y1278687D01*
X1396778Y1278900D01*
X1396222D01*
X1396193Y1278888D01*
X1395391Y1279691D01*
X1395143Y1279856D01*
X1394850Y1279915D01*
X1394548D01*
X1394273Y1280415D01*
X1394400Y1280721D01*
Y1281279D01*
X1394187Y1281793D01*
X1393793Y1282187D01*
X1393787Y1282220D01*
X1395938Y1284371D01*
X1395941Y1284371D01*
D02*
G37*
G36*
X1370500Y1271735D02*
X1370500Y1271735D01*
X1374683D01*
X1381771Y1264647D01*
X1382019Y1264482D01*
X1382312Y1264423D01*
X1394826D01*
X1395160Y1263923D01*
X1395100Y1263778D01*
Y1263221D01*
X1395227Y1262915D01*
X1394952Y1262415D01*
X1394650D01*
X1394357Y1262356D01*
X1394109Y1262191D01*
X1393307Y1261388D01*
X1393279Y1261400D01*
X1392721D01*
X1392207Y1261187D01*
X1391813Y1260793D01*
X1391600Y1260279D01*
Y1259721D01*
X1391813Y1259207D01*
X1392207Y1258813D01*
X1392721Y1258600D01*
X1393279D01*
X1393793Y1258813D01*
X1394187Y1259207D01*
X1394400Y1259721D01*
Y1260235D01*
X1394638Y1260439D01*
X1394843Y1260368D01*
X1395100Y1260177D01*
Y1259721D01*
X1395313Y1259207D01*
X1395707Y1258813D01*
X1396222Y1258600D01*
X1396778D01*
X1397293Y1258813D01*
X1397687Y1259207D01*
X1397699Y1259235D01*
X1401967D01*
X1402047Y1259132D01*
X1402180Y1258761D01*
X1400683Y1257265D01*
X1397699D01*
X1397687Y1257293D01*
X1397293Y1257687D01*
X1396778Y1257900D01*
X1396222D01*
X1395707Y1257687D01*
X1395313Y1257293D01*
X1395100Y1256779D01*
Y1256221D01*
X1395313Y1255707D01*
X1395707Y1255313D01*
X1396222Y1255100D01*
X1396778D01*
X1397293Y1255313D01*
X1397687Y1255707D01*
X1397699Y1255735D01*
X1401000D01*
X1401293Y1255793D01*
X1401541Y1255959D01*
X1403117Y1257535D01*
X1411246D01*
X1411580Y1257035D01*
X1411536Y1256929D01*
Y1256371D01*
X1411749Y1255857D01*
X1412143Y1255463D01*
X1412658Y1255250D01*
X1413215D01*
X1413729Y1255463D01*
X1414123Y1255857D01*
X1414167Y1255964D01*
X1414757Y1256081D01*
X1417379Y1253459D01*
X1417527Y1253360D01*
X1417554Y1252984D01*
X1417513Y1252814D01*
X1417207Y1252687D01*
X1416813Y1252293D01*
X1416600Y1251779D01*
Y1251323D01*
X1416343Y1251132D01*
X1416138Y1251061D01*
X1415900Y1251265D01*
Y1251779D01*
X1415687Y1252293D01*
X1415293Y1252687D01*
X1414779Y1252900D01*
X1414221D01*
X1413707Y1252687D01*
X1413313Y1252293D01*
X1413100Y1251779D01*
Y1251221D01*
X1413313Y1250707D01*
X1413707Y1250313D01*
X1414221Y1250100D01*
X1414735D01*
X1414939Y1249862D01*
X1414868Y1249657D01*
X1414677Y1249400D01*
X1414221D01*
X1413707Y1249187D01*
X1413313Y1248793D01*
X1413100Y1248279D01*
Y1247721D01*
X1413313Y1247207D01*
X1413707Y1246813D01*
X1414221Y1246600D01*
X1414735D01*
X1414939Y1246362D01*
X1414868Y1246157D01*
X1414677Y1245900D01*
X1414221D01*
X1413707Y1245687D01*
X1413313Y1245293D01*
X1413100Y1244779D01*
Y1244221D01*
X1413313Y1243707D01*
X1413707Y1243313D01*
X1414221Y1243100D01*
X1414779D01*
X1414807Y1243112D01*
X1415654Y1242265D01*
X1415447Y1241765D01*
X1408317D01*
X1400041Y1250041D01*
X1399793Y1250206D01*
X1399500Y1250265D01*
X1397699D01*
X1397687Y1250293D01*
X1397293Y1250687D01*
X1396778Y1250900D01*
X1396222D01*
X1395707Y1250687D01*
X1395313Y1250293D01*
X1395100Y1249778D01*
Y1249222D01*
X1395227Y1248915D01*
X1394952Y1248415D01*
X1394650D01*
X1394357Y1248357D01*
X1394109Y1248191D01*
X1393307Y1247388D01*
X1393279Y1247400D01*
X1392721D01*
X1392207Y1247187D01*
X1391813Y1246793D01*
X1391600Y1246278D01*
Y1245722D01*
X1391813Y1245207D01*
X1392207Y1244813D01*
X1392721Y1244600D01*
X1393177D01*
X1393368Y1244343D01*
X1393439Y1244138D01*
X1393235Y1243900D01*
X1392721D01*
X1392207Y1243687D01*
X1391813Y1243293D01*
X1391600Y1242778D01*
Y1242222D01*
X1391683Y1242022D01*
X1391348Y1241522D01*
X1390558D01*
X1390265Y1241464D01*
X1390017Y1241298D01*
X1385459Y1236741D01*
X1385415Y1236674D01*
X1384915Y1236826D01*
Y1242350D01*
X1384857Y1242643D01*
X1384691Y1242891D01*
X1383888Y1243693D01*
X1383900Y1243721D01*
Y1244279D01*
X1383687Y1244793D01*
X1383293Y1245187D01*
X1382778Y1245400D01*
X1382222D01*
X1381707Y1245187D01*
X1381313Y1244793D01*
X1381100Y1244279D01*
Y1243823D01*
X1380843Y1243632D01*
X1380638Y1243561D01*
X1380400Y1243765D01*
Y1244279D01*
X1380187Y1244793D01*
X1379793Y1245187D01*
X1379278Y1245400D01*
X1378722D01*
X1378207Y1245187D01*
X1377813Y1244793D01*
X1377600Y1244279D01*
Y1243823D01*
X1377343Y1243632D01*
X1377138Y1243561D01*
X1376900Y1243765D01*
Y1244279D01*
X1376687Y1244793D01*
X1376293Y1245187D01*
X1375778Y1245400D01*
X1375222D01*
X1374707Y1245187D01*
X1374313Y1244793D01*
X1374100Y1244279D01*
Y1243721D01*
X1374313Y1243207D01*
X1374707Y1242813D01*
X1375222Y1242600D01*
X1375735D01*
X1375939Y1242362D01*
X1375868Y1242157D01*
X1375677Y1241900D01*
X1375222D01*
X1374707Y1241687D01*
X1374313Y1241293D01*
X1374100Y1240779D01*
Y1240222D01*
X1374313Y1239707D01*
X1374707Y1239313D01*
X1374967Y1239205D01*
Y1238666D01*
X1374467Y1238337D01*
X1374252Y1238426D01*
X1373695D01*
X1373265Y1238248D01*
X1372947Y1238377D01*
X1372765Y1238504D01*
Y1239301D01*
X1372793Y1239313D01*
X1373187Y1239707D01*
X1373400Y1240222D01*
Y1240779D01*
X1373187Y1241293D01*
X1372793Y1241687D01*
X1372278Y1241900D01*
X1371823D01*
X1371632Y1242157D01*
X1371561Y1242362D01*
X1371765Y1242600D01*
X1372278D01*
X1372793Y1242813D01*
X1373187Y1243207D01*
X1373400Y1243721D01*
Y1244279D01*
X1373187Y1244793D01*
X1372793Y1245187D01*
X1372765Y1245199D01*
Y1249297D01*
X1374783Y1251316D01*
X1374949Y1251564D01*
X1375007Y1251857D01*
Y1253976D01*
X1374949Y1254269D01*
X1374783Y1254517D01*
X1367265Y1262035D01*
Y1269500D01*
X1367253Y1269560D01*
X1367707Y1269813D01*
X1368221Y1269600D01*
X1368779D01*
X1369293Y1269813D01*
X1369687Y1270207D01*
X1369900Y1270722D01*
Y1271278D01*
X1369832Y1271443D01*
X1370135Y1271726D01*
X1370230Y1271789D01*
X1370500Y1271735D01*
D02*
G37*
G36*
X1491022Y1272612D02*
X1491066Y1272318D01*
X1484513Y1265765D01*
X1464452D01*
X1464308Y1266004D01*
X1464211Y1266265D01*
X1464400Y1266722D01*
Y1267278D01*
X1464187Y1267793D01*
X1463793Y1268187D01*
X1463278Y1268400D01*
X1462722D01*
X1462207Y1268187D01*
X1461813Y1267793D01*
X1461600Y1267278D01*
Y1266722D01*
X1461789Y1266265D01*
X1461692Y1266004D01*
X1461548Y1265765D01*
X1456817D01*
X1453868Y1268713D01*
X1453835Y1268735D01*
X1453987Y1269235D01*
X1486621D01*
X1486914Y1269293D01*
X1487162Y1269459D01*
X1490491Y1272789D01*
X1491022Y1272612D01*
D02*
G37*
G36*
X1433829Y1255265D02*
X1433622Y1254765D01*
X1418236D01*
X1414160Y1258841D01*
X1413912Y1259007D01*
X1413620Y1259065D01*
X1403180D01*
X1402934Y1259565D01*
X1403066Y1259735D01*
X1416855D01*
X1417133Y1259320D01*
X1417085Y1259204D01*
X1420784D01*
X1420736Y1259320D01*
X1421014Y1259735D01*
X1424957D01*
X1425239Y1259235D01*
X1425118Y1258942D01*
Y1258385D01*
X1425331Y1257870D01*
X1425725Y1257476D01*
X1426239Y1257263D01*
X1426796D01*
X1427311Y1257476D01*
X1427705Y1257870D01*
X1427918Y1258385D01*
Y1258942D01*
X1427796Y1259235D01*
X1428079Y1259735D01*
X1429358D01*
X1433829Y1255265D01*
D02*
G37*
G36*
X1370712Y1253548D02*
X1370600Y1253279D01*
Y1252722D01*
X1370813Y1252207D01*
X1371207Y1251813D01*
X1371721Y1251600D01*
X1372198D01*
X1372357Y1251379D01*
X1372443Y1251138D01*
X1371459Y1250155D01*
X1371294Y1249907D01*
X1371235Y1249614D01*
Y1245199D01*
X1371207Y1245187D01*
X1370813Y1244793D01*
X1370600Y1244279D01*
Y1243765D01*
X1370362Y1243561D01*
X1370157Y1243632D01*
X1369900Y1243823D01*
Y1244279D01*
X1369687Y1244793D01*
X1369293Y1245187D01*
X1368779Y1245400D01*
X1368221D01*
X1367707Y1245187D01*
X1367313Y1244793D01*
X1367100Y1244279D01*
Y1243765D01*
X1366862Y1243561D01*
X1366657Y1243632D01*
X1366400Y1243823D01*
Y1244279D01*
X1366187Y1244793D01*
X1365793Y1245187D01*
X1365279Y1245400D01*
X1364721D01*
X1364207Y1245187D01*
X1363813Y1244793D01*
X1363600Y1244279D01*
Y1243823D01*
X1363343Y1243632D01*
X1363138Y1243561D01*
X1362900Y1243765D01*
Y1244279D01*
X1362687Y1244793D01*
X1362293Y1245187D01*
X1361779Y1245400D01*
X1361222D01*
X1360707Y1245187D01*
X1360313Y1244793D01*
X1360100Y1244279D01*
Y1243823D01*
X1359843Y1243632D01*
X1359638Y1243561D01*
X1359400Y1243765D01*
Y1244279D01*
X1359187Y1244793D01*
X1358793Y1245187D01*
X1358278Y1245400D01*
X1357722D01*
X1357207Y1245187D01*
X1356813Y1244793D01*
X1356600Y1244279D01*
Y1243823D01*
X1356343Y1243632D01*
X1356138Y1243561D01*
X1355900Y1243765D01*
Y1244279D01*
X1355687Y1244793D01*
X1355293Y1245187D01*
X1354778Y1245400D01*
X1354222D01*
X1353707Y1245187D01*
X1353313Y1244793D01*
X1353100Y1244279D01*
Y1243721D01*
X1353313Y1243207D01*
X1353707Y1242813D01*
X1354222Y1242600D01*
X1354735D01*
X1354939Y1242362D01*
X1354868Y1242157D01*
X1354677Y1241900D01*
X1354222D01*
X1353707Y1241687D01*
X1353313Y1241293D01*
X1353100Y1240779D01*
Y1240222D01*
X1353313Y1239707D01*
X1353707Y1239313D01*
X1353735Y1239301D01*
Y1194317D01*
X1346959Y1187541D01*
X1346793Y1187293D01*
X1346735Y1187000D01*
Y1180112D01*
X1346793Y1179819D01*
X1346959Y1179571D01*
X1349316Y1177214D01*
X1348982Y1176637D01*
X1348734Y1175709D01*
Y1174748D01*
X1348982Y1173820D01*
X1349463Y1172987D01*
X1350142Y1172308D01*
X1350974Y1171828D01*
X1351697Y1171634D01*
X1351632Y1171134D01*
X1343135D01*
X1343069Y1171634D01*
X1343792Y1171828D01*
X1344624Y1172308D01*
X1345304Y1172987D01*
X1345784Y1173820D01*
X1346033Y1174748D01*
Y1175709D01*
X1345784Y1176637D01*
X1345304Y1177469D01*
X1344624Y1178149D01*
X1343792Y1178629D01*
X1342864Y1178878D01*
X1341903D01*
X1340975Y1178629D01*
X1340142Y1178149D01*
X1339463Y1177469D01*
X1338982Y1176637D01*
X1338734Y1175709D01*
Y1174748D01*
X1338982Y1173820D01*
X1339463Y1172987D01*
X1340142Y1172308D01*
X1340975Y1171828D01*
X1341697Y1171634D01*
X1341632Y1171134D01*
X1333135D01*
X1333069Y1171634D01*
X1333792Y1171828D01*
X1334624Y1172308D01*
X1335304Y1172987D01*
X1335784Y1173820D01*
X1336033Y1174748D01*
Y1175709D01*
X1335784Y1176637D01*
X1335304Y1177469D01*
X1334624Y1178149D01*
X1333792Y1178629D01*
X1332864Y1178878D01*
X1331903D01*
X1330974Y1178629D01*
X1330142Y1178149D01*
X1329463Y1177469D01*
X1328982Y1176637D01*
X1328734Y1175709D01*
Y1174748D01*
X1328982Y1173820D01*
X1329463Y1172987D01*
X1330142Y1172308D01*
X1330974Y1171828D01*
X1331697Y1171634D01*
X1331632Y1171134D01*
X1323135D01*
X1323069Y1171634D01*
X1323792Y1171828D01*
X1324624Y1172308D01*
X1325304Y1172987D01*
X1325784Y1173820D01*
X1326033Y1174748D01*
Y1175709D01*
X1325784Y1176637D01*
X1325304Y1177469D01*
X1324624Y1178149D01*
X1323792Y1178629D01*
X1322864Y1178878D01*
X1321903D01*
X1320975Y1178629D01*
X1320142Y1178149D01*
X1319463Y1177469D01*
X1318982Y1176637D01*
X1318734Y1175709D01*
Y1174748D01*
X1318982Y1173820D01*
X1319463Y1172987D01*
X1320142Y1172308D01*
X1320975Y1171828D01*
X1321697Y1171634D01*
X1321632Y1171134D01*
X1313135D01*
X1313069Y1171634D01*
X1313792Y1171828D01*
X1314624Y1172308D01*
X1315304Y1172987D01*
X1315784Y1173820D01*
X1316033Y1174748D01*
Y1175709D01*
X1315784Y1176637D01*
X1315304Y1177469D01*
X1314624Y1178149D01*
X1313792Y1178629D01*
X1312864Y1178878D01*
X1311903D01*
X1310975Y1178629D01*
X1310142Y1178149D01*
X1309463Y1177469D01*
X1308982Y1176637D01*
X1308734Y1175709D01*
Y1174748D01*
X1308982Y1173820D01*
X1309463Y1172987D01*
X1310142Y1172308D01*
X1310975Y1171828D01*
X1311697Y1171634D01*
X1311632Y1171134D01*
X1303135D01*
X1303069Y1171634D01*
X1303792Y1171828D01*
X1304624Y1172308D01*
X1305304Y1172987D01*
X1305784Y1173820D01*
X1306033Y1174748D01*
Y1175709D01*
X1305784Y1176637D01*
X1305304Y1177469D01*
X1304624Y1178149D01*
X1303792Y1178629D01*
X1302864Y1178878D01*
X1301903D01*
X1300974Y1178629D01*
X1300397Y1178296D01*
X1298265Y1180428D01*
Y1184566D01*
X1298765Y1184632D01*
X1298982Y1183820D01*
X1299463Y1182987D01*
X1300142Y1182308D01*
X1300974Y1181828D01*
X1301903Y1181579D01*
X1302864D01*
X1303792Y1181828D01*
X1304624Y1182308D01*
X1305304Y1182987D01*
X1305784Y1183820D01*
X1306033Y1184748D01*
Y1185709D01*
X1305784Y1186637D01*
X1305304Y1187469D01*
X1304624Y1188149D01*
X1303792Y1188629D01*
X1303301Y1188761D01*
Y1190503D01*
X1328022Y1215224D01*
X1333798D01*
X1334067Y1214955D01*
X1334581Y1214742D01*
X1335139D01*
X1335653Y1214955D01*
X1336047Y1215349D01*
X1336260Y1215864D01*
Y1216421D01*
X1336047Y1216935D01*
X1335653Y1217329D01*
X1335139Y1217542D01*
X1334581D01*
X1334067Y1217329D01*
X1333798Y1217060D01*
X1327642D01*
X1327291Y1216990D01*
X1326993Y1216791D01*
X1301734Y1191532D01*
X1301535Y1191234D01*
X1301466Y1190883D01*
Y1188761D01*
X1300974Y1188629D01*
X1300142Y1188149D01*
X1299463Y1187469D01*
X1298982Y1186637D01*
X1298765Y1185825D01*
X1298265Y1185891D01*
Y1195683D01*
X1348817Y1246235D01*
X1366000D01*
X1366293Y1246294D01*
X1366541Y1246459D01*
X1368193Y1248112D01*
X1368221Y1248100D01*
X1368779D01*
X1369293Y1248313D01*
X1369687Y1248707D01*
X1369900Y1249222D01*
Y1249778D01*
X1369687Y1250293D01*
X1369293Y1250687D01*
X1368779Y1250900D01*
X1368323D01*
X1368132Y1251157D01*
X1368061Y1251362D01*
X1368265Y1251600D01*
X1368779D01*
X1369293Y1251813D01*
X1369687Y1252207D01*
X1369900Y1252722D01*
Y1253279D01*
X1369893Y1253295D01*
X1370200Y1253858D01*
X1370391Y1253893D01*
X1370712Y1253548D01*
D02*
G37*
G36*
X1369143Y1242706D02*
X1369490Y1242357D01*
X1369465Y1242229D01*
Y1218771D01*
X1369523Y1218478D01*
X1369689Y1218230D01*
X1386735Y1201183D01*
Y1180112D01*
X1386794Y1179819D01*
X1386959Y1179571D01*
X1389316Y1177214D01*
X1388982Y1176637D01*
X1388734Y1175709D01*
Y1174748D01*
X1388982Y1173820D01*
X1389463Y1172987D01*
X1390142Y1172308D01*
X1390975Y1171828D01*
X1391697Y1171634D01*
X1391632Y1171134D01*
X1383135D01*
X1383069Y1171634D01*
X1383792Y1171828D01*
X1384624Y1172308D01*
X1385304Y1172987D01*
X1385784Y1173820D01*
X1386033Y1174748D01*
Y1175709D01*
X1385784Y1176637D01*
X1385304Y1177469D01*
X1384624Y1178149D01*
X1383792Y1178629D01*
X1382864Y1178878D01*
X1381903D01*
X1380974Y1178629D01*
X1380397Y1178296D01*
X1378265Y1180428D01*
Y1184566D01*
X1378765Y1184632D01*
X1378982Y1183820D01*
X1379463Y1182987D01*
X1380142Y1182308D01*
X1380974Y1181828D01*
X1381903Y1181579D01*
X1382864D01*
X1383792Y1181828D01*
X1384624Y1182308D01*
X1385304Y1182987D01*
X1385784Y1183820D01*
X1386033Y1184748D01*
Y1185709D01*
X1385784Y1186637D01*
X1385304Y1187469D01*
X1384624Y1188149D01*
X1383792Y1188629D01*
X1382864Y1188878D01*
X1381903D01*
X1380974Y1188629D01*
X1380397Y1188296D01*
X1367265Y1201428D01*
Y1241683D01*
X1368193Y1242612D01*
X1368221Y1242600D01*
X1368779D01*
X1369093Y1242730D01*
X1369143Y1242706D01*
D02*
G37*
G36*
X1280226Y1347323D02*
X1311631D01*
X1311697Y1346823D01*
X1310975Y1346629D01*
X1310142Y1346149D01*
X1309463Y1345469D01*
X1308982Y1344637D01*
X1308734Y1343709D01*
Y1342748D01*
X1308982Y1341820D01*
X1309316Y1341242D01*
X1306959Y1338886D01*
X1306793Y1338638D01*
X1306735Y1338345D01*
Y1332000D01*
X1306793Y1331707D01*
X1306959Y1331459D01*
X1317735Y1320683D01*
Y1296000D01*
X1317793Y1295707D01*
X1317959Y1295459D01*
X1321959Y1291459D01*
X1321959Y1291459D01*
X1322207Y1291294D01*
X1322500Y1291235D01*
X1323301D01*
X1323313Y1291207D01*
X1323707Y1290813D01*
X1324222Y1290600D01*
X1324778D01*
X1325293Y1290813D01*
X1325687Y1291207D01*
X1325900Y1291722D01*
Y1292177D01*
X1326157Y1292368D01*
X1326362Y1292439D01*
X1326600Y1292235D01*
Y1291722D01*
X1326813Y1291207D01*
X1327207Y1290813D01*
X1327722Y1290600D01*
X1328279D01*
X1328793Y1290813D01*
X1329187Y1291207D01*
X1329400Y1291722D01*
Y1292278D01*
X1329187Y1292793D01*
X1328793Y1293187D01*
X1328279Y1293400D01*
X1327765D01*
X1327561Y1293638D01*
X1327632Y1293843D01*
X1327823Y1294100D01*
X1328279D01*
X1328793Y1294313D01*
X1329187Y1294707D01*
X1329400Y1295222D01*
Y1295778D01*
X1329187Y1296293D01*
X1328793Y1296687D01*
X1328279Y1296900D01*
X1327722D01*
X1327693Y1296888D01*
X1323765Y1300817D01*
Y1329820D01*
X1323792Y1329827D01*
X1324624Y1330308D01*
X1325304Y1330987D01*
X1325784Y1331820D01*
X1326033Y1332748D01*
Y1333709D01*
X1325784Y1334637D01*
X1325304Y1335469D01*
X1324624Y1336149D01*
X1323792Y1336629D01*
X1322864Y1336878D01*
X1321903D01*
X1320975Y1336629D01*
X1320142Y1336149D01*
X1319463Y1335469D01*
X1318982Y1334637D01*
X1318765Y1333825D01*
X1318265Y1333891D01*
Y1338028D01*
X1320397Y1340161D01*
X1320975Y1339828D01*
X1321903Y1339579D01*
X1322864D01*
X1323792Y1339828D01*
X1324624Y1340308D01*
X1325304Y1340987D01*
X1325784Y1341820D01*
X1326033Y1342748D01*
Y1343709D01*
X1325784Y1344637D01*
X1325304Y1345469D01*
X1324624Y1346149D01*
X1323792Y1346629D01*
X1323069Y1346823D01*
X1323135Y1347323D01*
X1331631D01*
X1331697Y1346823D01*
X1330974Y1346629D01*
X1330142Y1346149D01*
X1329463Y1345469D01*
X1328982Y1344637D01*
X1328734Y1343709D01*
Y1342748D01*
X1328982Y1341820D01*
X1329316Y1341242D01*
X1326959Y1338886D01*
X1326793Y1338638D01*
X1326735Y1338345D01*
Y1331500D01*
X1326793Y1331207D01*
X1326959Y1330959D01*
X1341735Y1316183D01*
Y1265000D01*
X1341794Y1264707D01*
X1341959Y1264459D01*
X1351679Y1254739D01*
X1351927Y1254574D01*
X1352220Y1254515D01*
X1356382D01*
X1356698Y1254016D01*
X1356600Y1253778D01*
Y1253222D01*
X1356789Y1252765D01*
X1356692Y1252504D01*
X1356548Y1252265D01*
X1346500D01*
X1346207Y1252207D01*
X1345959Y1252041D01*
X1333683Y1239765D01*
X1317817D01*
X1308765Y1248817D01*
Y1292600D01*
X1308778D01*
X1309293Y1292813D01*
X1309687Y1293207D01*
X1309900Y1293721D01*
Y1294279D01*
X1309687Y1294793D01*
X1309293Y1295187D01*
X1308778Y1295400D01*
X1308323D01*
X1308132Y1295657D01*
X1308061Y1295862D01*
X1308265Y1296100D01*
X1308778D01*
X1309293Y1296313D01*
X1309687Y1296707D01*
X1309900Y1297221D01*
Y1297779D01*
X1309687Y1298293D01*
X1309293Y1298687D01*
X1308778Y1298900D01*
X1308222D01*
X1307707Y1298687D01*
X1307313Y1298293D01*
X1307100Y1297779D01*
Y1297265D01*
X1306862Y1297061D01*
X1306657Y1297132D01*
X1306400Y1297323D01*
Y1297779D01*
X1306187Y1298293D01*
X1305793Y1298687D01*
X1305278Y1298900D01*
X1304722D01*
X1304207Y1298687D01*
X1303813Y1298293D01*
X1303600Y1297779D01*
Y1297221D01*
X1303813Y1296707D01*
X1304207Y1296313D01*
X1304235Y1296301D01*
Y1246053D01*
X1304111Y1245953D01*
X1303761Y1245820D01*
X1299541Y1250041D01*
X1299293Y1250206D01*
X1299000Y1250265D01*
X1285699D01*
X1285687Y1250293D01*
X1285293Y1250687D01*
X1284778Y1250900D01*
X1284221D01*
X1283707Y1250687D01*
X1283313Y1250293D01*
X1283100Y1249778D01*
Y1249222D01*
X1283313Y1248707D01*
X1283707Y1248313D01*
X1284221Y1248100D01*
X1284778D01*
X1285293Y1248313D01*
X1285687Y1248707D01*
X1285699Y1248735D01*
X1298683D01*
X1312969Y1234449D01*
X1312813Y1234293D01*
X1312600Y1233778D01*
Y1233222D01*
X1312813Y1232707D01*
X1313207Y1232313D01*
X1313721Y1232100D01*
X1314279D01*
X1314793Y1232313D01*
X1315187Y1232707D01*
X1315400Y1233222D01*
Y1233778D01*
X1315187Y1234293D01*
X1314804Y1234676D01*
X1314812Y1234782D01*
X1315000Y1235235D01*
X1315000Y1235235D01*
X1334947D01*
X1335154Y1234735D01*
X1296959Y1196541D01*
X1296793Y1196293D01*
X1296735Y1196000D01*
Y1180112D01*
X1296793Y1179819D01*
X1296959Y1179571D01*
X1299316Y1177214D01*
X1298982Y1176637D01*
X1298734Y1175709D01*
Y1174748D01*
X1298982Y1173820D01*
X1299463Y1172987D01*
X1300142Y1172308D01*
X1300974Y1171828D01*
X1301697Y1171634D01*
X1301632Y1171134D01*
X1280226D01*
X1280185Y1171126D01*
X1278502Y1171291D01*
X1276845Y1171794D01*
X1275317Y1172611D01*
X1273978Y1173709D01*
X1272880Y1175048D01*
X1272063Y1176576D01*
X1271560Y1178233D01*
X1271395Y1179916D01*
X1271403Y1179957D01*
Y1338500D01*
X1271395Y1338541D01*
X1271560Y1340224D01*
X1272063Y1341881D01*
X1272880Y1343408D01*
X1273978Y1344747D01*
X1275317Y1345846D01*
X1276845Y1346663D01*
X1278502Y1347165D01*
X1280185Y1347331D01*
X1280226Y1347323D01*
D02*
G37*
G36*
X1438544Y1248549D02*
X1438544Y1248549D01*
X1438793Y1248384D01*
X1439085Y1248325D01*
X1439085Y1248325D01*
X1451218D01*
X1461235Y1238308D01*
Y1229000D01*
X1461294Y1228707D01*
X1461459Y1228459D01*
X1500459Y1189459D01*
X1500707Y1189293D01*
X1501000Y1189235D01*
X1501305D01*
X1501370Y1188735D01*
X1500974Y1188629D01*
X1500397Y1188296D01*
X1499101Y1189592D01*
X1499101Y1189592D01*
X1493152Y1195541D01*
X1492904Y1195706D01*
X1492612Y1195765D01*
X1484423D01*
X1429647Y1250541D01*
X1429399Y1250706D01*
X1429107Y1250765D01*
X1422817D01*
X1421541Y1252041D01*
X1421293Y1252207D01*
X1421000Y1252265D01*
X1419199D01*
X1419187Y1252293D01*
X1418793Y1252687D01*
X1418676Y1252735D01*
X1418775Y1253235D01*
X1433858D01*
X1438544Y1248549D01*
D02*
G37*
G36*
X1391623Y1234335D02*
X1391600Y1234278D01*
Y1233722D01*
X1391813Y1233207D01*
X1392207Y1232813D01*
X1392721Y1232600D01*
X1393279D01*
X1393307Y1232612D01*
X1394959Y1230959D01*
X1394959Y1230959D01*
X1395207Y1230793D01*
X1395500Y1230735D01*
X1421801D01*
X1421813Y1230707D01*
X1422207Y1230313D01*
X1422721Y1230100D01*
X1423279D01*
X1423793Y1230313D01*
X1424187Y1230707D01*
X1424400Y1231221D01*
Y1231779D01*
X1424187Y1232293D01*
X1423793Y1232687D01*
X1423690Y1232729D01*
Y1233271D01*
X1423793Y1233313D01*
X1424187Y1233707D01*
X1424280Y1233932D01*
X1424862Y1234057D01*
X1457372Y1201546D01*
Y1179475D01*
X1457430Y1179182D01*
X1457596Y1178934D01*
X1459316Y1177214D01*
X1458982Y1176637D01*
X1458734Y1175709D01*
Y1174748D01*
X1458982Y1173820D01*
X1459463Y1172987D01*
X1460142Y1172308D01*
X1460975Y1171828D01*
X1461697Y1171634D01*
X1461632Y1171134D01*
X1453135D01*
X1453069Y1171634D01*
X1453792Y1171828D01*
X1454624Y1172308D01*
X1455304Y1172987D01*
X1455784Y1173820D01*
X1456033Y1174748D01*
Y1175709D01*
X1455784Y1176637D01*
X1455304Y1177469D01*
X1454624Y1178149D01*
X1453792Y1178629D01*
X1452864Y1178878D01*
X1451903D01*
X1450974Y1178629D01*
X1450397Y1178296D01*
X1447765Y1180928D01*
Y1187783D01*
X1447707Y1188076D01*
X1447624Y1188199D01*
X1448013Y1188517D01*
X1449316Y1187214D01*
X1448982Y1186637D01*
X1448734Y1185709D01*
Y1184748D01*
X1448982Y1183820D01*
X1449463Y1182987D01*
X1450142Y1182308D01*
X1450974Y1181828D01*
X1451903Y1181579D01*
X1452864D01*
X1453792Y1181828D01*
X1454624Y1182308D01*
X1455304Y1182987D01*
X1455784Y1183820D01*
X1456033Y1184748D01*
Y1185709D01*
X1455784Y1186637D01*
X1455304Y1187469D01*
X1454624Y1188149D01*
X1453792Y1188629D01*
X1452864Y1188878D01*
X1451903D01*
X1450974Y1188629D01*
X1450397Y1188296D01*
X1440152Y1198541D01*
X1439904Y1198707D01*
X1439612Y1198765D01*
X1425317D01*
X1400388Y1223693D01*
X1400400Y1223722D01*
Y1224279D01*
X1400187Y1224793D01*
X1399793Y1225187D01*
X1399279Y1225400D01*
X1398722D01*
X1398207Y1225187D01*
X1397813Y1224793D01*
X1397600Y1224279D01*
Y1224189D01*
X1397100Y1223981D01*
X1390765Y1230317D01*
Y1234183D01*
X1391199Y1234618D01*
X1391623Y1234335D01*
D02*
G37*
G36*
X1373695Y1235626D02*
X1374252D01*
X1374467Y1235715D01*
X1374967Y1235387D01*
Y1223268D01*
X1375025Y1222976D01*
X1375191Y1222727D01*
X1382293Y1215626D01*
X1382263Y1215422D01*
X1382125Y1215087D01*
X1381704Y1214913D01*
X1381310Y1214519D01*
X1381097Y1214004D01*
Y1213447D01*
X1381310Y1212933D01*
X1381704Y1212539D01*
X1382219Y1212326D01*
X1382776D01*
X1383290Y1212539D01*
X1383684Y1212933D01*
X1383858Y1213353D01*
X1384194Y1213491D01*
X1384397Y1213521D01*
X1400235Y1197683D01*
Y1190817D01*
X1396959Y1187541D01*
X1396793Y1187293D01*
X1396735Y1187000D01*
Y1180112D01*
X1396793Y1179819D01*
X1396959Y1179571D01*
X1399316Y1177214D01*
X1398982Y1176637D01*
X1398734Y1175709D01*
Y1174748D01*
X1398982Y1173820D01*
X1399463Y1172987D01*
X1400142Y1172308D01*
X1400974Y1171828D01*
X1401697Y1171634D01*
X1401632Y1171134D01*
X1393135D01*
X1393069Y1171634D01*
X1393792Y1171828D01*
X1394624Y1172308D01*
X1395304Y1172987D01*
X1395784Y1173820D01*
X1396033Y1174748D01*
Y1175709D01*
X1395784Y1176637D01*
X1395304Y1177469D01*
X1394624Y1178149D01*
X1393792Y1178629D01*
X1392864Y1178878D01*
X1391903D01*
X1390975Y1178629D01*
X1390397Y1178296D01*
X1388265Y1180428D01*
Y1184566D01*
X1388765Y1184632D01*
X1388982Y1183820D01*
X1389463Y1182987D01*
X1390142Y1182308D01*
X1390975Y1181828D01*
X1391903Y1181579D01*
X1392864D01*
X1393792Y1181828D01*
X1394624Y1182308D01*
X1395304Y1182987D01*
X1395784Y1183820D01*
X1396033Y1184748D01*
Y1185709D01*
X1395784Y1186637D01*
X1395304Y1187469D01*
X1394624Y1188149D01*
X1393792Y1188629D01*
X1392864Y1188878D01*
X1391903D01*
X1390975Y1188629D01*
X1390397Y1188296D01*
X1389765Y1188928D01*
Y1202500D01*
X1389707Y1202793D01*
X1389541Y1203041D01*
X1372765Y1219817D01*
Y1235548D01*
X1372947Y1235676D01*
X1373265Y1235805D01*
X1373695Y1235626D01*
D02*
G37*
%LPC*%
G36*
X1512864Y1336878D02*
X1511903D01*
X1510975Y1336629D01*
X1510142Y1336149D01*
X1509463Y1335469D01*
X1508982Y1334637D01*
X1508734Y1333709D01*
Y1332748D01*
X1508982Y1331820D01*
X1509463Y1330987D01*
X1510142Y1330308D01*
X1510975Y1329827D01*
X1511903Y1329579D01*
X1512864D01*
X1513792Y1329827D01*
X1514624Y1330308D01*
X1515304Y1330987D01*
X1515784Y1331820D01*
X1516033Y1332748D01*
Y1333709D01*
X1515784Y1334637D01*
X1515304Y1335469D01*
X1514624Y1336149D01*
X1513792Y1336629D01*
X1512864Y1336878D01*
D02*
G37*
G36*
X1502864D02*
X1501903D01*
X1500974Y1336629D01*
X1500142Y1336149D01*
X1499463Y1335469D01*
X1498982Y1334637D01*
X1498734Y1333709D01*
Y1332748D01*
X1498982Y1331820D01*
X1499463Y1330987D01*
X1500142Y1330308D01*
X1500974Y1329827D01*
X1501903Y1329579D01*
X1502864D01*
X1503792Y1329827D01*
X1504624Y1330308D01*
X1505304Y1330987D01*
X1505784Y1331820D01*
X1506033Y1332748D01*
Y1333709D01*
X1505784Y1334637D01*
X1505304Y1335469D01*
X1504624Y1336149D01*
X1503792Y1336629D01*
X1502864Y1336878D01*
D02*
G37*
G36*
X1492864D02*
X1491903D01*
X1490975Y1336629D01*
X1490142Y1336149D01*
X1489463Y1335469D01*
X1488982Y1334637D01*
X1488734Y1333709D01*
Y1332748D01*
X1488982Y1331820D01*
X1489463Y1330987D01*
X1490142Y1330308D01*
X1490975Y1329827D01*
X1491903Y1329579D01*
X1492864D01*
X1493792Y1329827D01*
X1494624Y1330308D01*
X1495304Y1330987D01*
X1495784Y1331820D01*
X1496033Y1332748D01*
Y1333709D01*
X1495784Y1334637D01*
X1495304Y1335469D01*
X1494624Y1336149D01*
X1493792Y1336629D01*
X1492864Y1336878D01*
D02*
G37*
G36*
X1482864D02*
X1481903D01*
X1480974Y1336629D01*
X1480142Y1336149D01*
X1479463Y1335469D01*
X1478982Y1334637D01*
X1478734Y1333709D01*
Y1332748D01*
X1478982Y1331820D01*
X1479463Y1330987D01*
X1480142Y1330308D01*
X1480974Y1329827D01*
X1481903Y1329579D01*
X1482864D01*
X1483792Y1329827D01*
X1484624Y1330308D01*
X1485304Y1330987D01*
X1485784Y1331820D01*
X1486033Y1332748D01*
Y1333709D01*
X1485784Y1334637D01*
X1485304Y1335469D01*
X1484624Y1336149D01*
X1483792Y1336629D01*
X1482864Y1336878D01*
D02*
G37*
G36*
X1472864D02*
X1471903D01*
X1470975Y1336629D01*
X1470142Y1336149D01*
X1469463Y1335469D01*
X1468982Y1334637D01*
X1468734Y1333709D01*
Y1332748D01*
X1468982Y1331820D01*
X1469463Y1330987D01*
X1470142Y1330308D01*
X1470975Y1329827D01*
X1471903Y1329579D01*
X1472864D01*
X1473792Y1329827D01*
X1474624Y1330308D01*
X1475304Y1330987D01*
X1475784Y1331820D01*
X1476033Y1332748D01*
Y1333709D01*
X1475784Y1334637D01*
X1475304Y1335469D01*
X1474624Y1336149D01*
X1473792Y1336629D01*
X1472864Y1336878D01*
D02*
G37*
G36*
X1436279Y1283900D02*
X1435721D01*
X1435207Y1283687D01*
X1435000Y1283480D01*
X1434793Y1283687D01*
X1434278Y1283900D01*
X1433722D01*
X1433207Y1283687D01*
X1433000Y1283480D01*
X1432793Y1283687D01*
X1432279Y1283900D01*
X1431721D01*
X1431207Y1283687D01*
X1431000Y1283480D01*
X1430793Y1283687D01*
X1430278Y1283900D01*
X1429722D01*
X1429207Y1283687D01*
X1428813Y1283293D01*
X1428600Y1282778D01*
Y1282222D01*
X1428813Y1281707D01*
X1428944Y1281577D01*
X1429164Y1281250D01*
X1428944Y1280923D01*
X1428813Y1280793D01*
X1428600Y1280278D01*
Y1279722D01*
X1428813Y1279207D01*
X1429207Y1278813D01*
X1429722Y1278600D01*
X1430278D01*
X1430793Y1278813D01*
X1431000Y1279020D01*
X1431207Y1278813D01*
X1431721Y1278600D01*
X1432279D01*
X1432793Y1278813D01*
X1433000Y1279020D01*
X1433207Y1278813D01*
X1433722Y1278600D01*
X1434278D01*
X1434793Y1278813D01*
X1435000Y1279020D01*
X1435207Y1278813D01*
X1435721Y1278600D01*
X1436279D01*
X1436793Y1278813D01*
X1437187Y1279207D01*
X1437400Y1279722D01*
Y1280278D01*
X1437187Y1280793D01*
X1437057Y1280923D01*
X1436836Y1281250D01*
X1437057Y1281577D01*
X1437187Y1281707D01*
X1437400Y1282222D01*
Y1282778D01*
X1437187Y1283293D01*
X1436793Y1283687D01*
X1436279Y1283900D01*
D02*
G37*
G36*
X1454278Y1283400D02*
X1453722D01*
X1453207Y1283187D01*
X1452813Y1282793D01*
X1452600Y1282279D01*
Y1281721D01*
X1452813Y1281207D01*
X1453207Y1280813D01*
X1453722Y1280600D01*
X1454278D01*
X1454793Y1280813D01*
X1455187Y1281207D01*
X1455400Y1281721D01*
Y1282279D01*
X1455187Y1282793D01*
X1454793Y1283187D01*
X1454278Y1283400D01*
D02*
G37*
G36*
X1432864Y1336878D02*
X1431903D01*
X1430974Y1336629D01*
X1430142Y1336149D01*
X1429463Y1335469D01*
X1428982Y1334637D01*
X1428734Y1333709D01*
Y1332748D01*
X1428982Y1331820D01*
X1429463Y1330987D01*
X1430142Y1330308D01*
X1430974Y1329827D01*
X1431903Y1329579D01*
X1432864D01*
X1433792Y1329827D01*
X1434624Y1330308D01*
X1435304Y1330987D01*
X1435784Y1331820D01*
X1436033Y1332748D01*
Y1333709D01*
X1435784Y1334637D01*
X1435304Y1335469D01*
X1434624Y1336149D01*
X1433792Y1336629D01*
X1432864Y1336878D01*
D02*
G37*
G36*
X1422864D02*
X1421903D01*
X1420975Y1336629D01*
X1420142Y1336149D01*
X1419463Y1335469D01*
X1418982Y1334637D01*
X1418734Y1333709D01*
Y1332748D01*
X1418982Y1331820D01*
X1419463Y1330987D01*
X1420142Y1330308D01*
X1420975Y1329827D01*
X1421903Y1329579D01*
X1422864D01*
X1423792Y1329827D01*
X1424624Y1330308D01*
X1425304Y1330987D01*
X1425784Y1331820D01*
X1426033Y1332748D01*
Y1333709D01*
X1425784Y1334637D01*
X1425304Y1335469D01*
X1424624Y1336149D01*
X1423792Y1336629D01*
X1422864Y1336878D01*
D02*
G37*
G36*
X1412864D02*
X1411903D01*
X1410975Y1336629D01*
X1410142Y1336149D01*
X1409463Y1335469D01*
X1408982Y1334637D01*
X1408734Y1333709D01*
Y1332748D01*
X1408982Y1331820D01*
X1409463Y1330987D01*
X1410142Y1330308D01*
X1410975Y1329827D01*
X1411903Y1329579D01*
X1412864D01*
X1413792Y1329827D01*
X1414624Y1330308D01*
X1415304Y1330987D01*
X1415784Y1331820D01*
X1416033Y1332748D01*
Y1333709D01*
X1415784Y1334637D01*
X1415304Y1335469D01*
X1414624Y1336149D01*
X1413792Y1336629D01*
X1412864Y1336878D01*
D02*
G37*
G36*
X1402864D02*
X1401903D01*
X1400974Y1336629D01*
X1400142Y1336149D01*
X1399463Y1335469D01*
X1398982Y1334637D01*
X1398734Y1333709D01*
Y1332748D01*
X1398982Y1331820D01*
X1399463Y1330987D01*
X1400142Y1330308D01*
X1400974Y1329827D01*
X1401903Y1329579D01*
X1402864D01*
X1403792Y1329827D01*
X1404624Y1330308D01*
X1405304Y1330987D01*
X1405784Y1331820D01*
X1406033Y1332748D01*
Y1333709D01*
X1405784Y1334637D01*
X1405304Y1335469D01*
X1404624Y1336149D01*
X1403792Y1336629D01*
X1402864Y1336878D01*
D02*
G37*
G36*
X1392864D02*
X1391903D01*
X1390975Y1336629D01*
X1390142Y1336149D01*
X1389463Y1335469D01*
X1388982Y1334637D01*
X1388734Y1333709D01*
Y1332748D01*
X1388982Y1331820D01*
X1389463Y1330987D01*
X1390142Y1330308D01*
X1390975Y1329827D01*
X1391903Y1329579D01*
X1392864D01*
X1393792Y1329827D01*
X1394624Y1330308D01*
X1395304Y1330987D01*
X1395784Y1331820D01*
X1396033Y1332748D01*
Y1333709D01*
X1395784Y1334637D01*
X1395304Y1335469D01*
X1394624Y1336149D01*
X1393792Y1336629D01*
X1392864Y1336878D01*
D02*
G37*
G36*
X1382864D02*
X1381903D01*
X1380974Y1336629D01*
X1380142Y1336149D01*
X1379463Y1335469D01*
X1378982Y1334637D01*
X1378734Y1333709D01*
Y1332748D01*
X1378982Y1331820D01*
X1379463Y1330987D01*
X1380142Y1330308D01*
X1380974Y1329827D01*
X1381903Y1329579D01*
X1382864D01*
X1383792Y1329827D01*
X1384624Y1330308D01*
X1385304Y1330987D01*
X1385784Y1331820D01*
X1386033Y1332748D01*
Y1333709D01*
X1385784Y1334637D01*
X1385304Y1335469D01*
X1384624Y1336149D01*
X1383792Y1336629D01*
X1382864Y1336878D01*
D02*
G37*
G36*
X1381279Y1295400D02*
X1380721D01*
X1380207Y1295187D01*
X1379813Y1294793D01*
X1379600Y1294279D01*
Y1293721D01*
X1379813Y1293207D01*
X1380207Y1292813D01*
X1380721Y1292600D01*
X1381279D01*
X1381793Y1292813D01*
X1382187Y1293207D01*
X1382400Y1293721D01*
Y1294279D01*
X1382187Y1294793D01*
X1381793Y1295187D01*
X1381279Y1295400D01*
D02*
G37*
G36*
X1555112Y1306973D02*
X1551765D01*
X1550994Y1306820D01*
X1550340Y1306383D01*
X1549903Y1305729D01*
X1549750Y1304958D01*
Y1303974D01*
X1549903Y1303203D01*
X1550340Y1302549D01*
X1550994Y1302112D01*
X1551765Y1301959D01*
X1555112D01*
X1555883Y1302112D01*
X1556536Y1302549D01*
X1556973Y1303203D01*
X1557127Y1303974D01*
Y1304958D01*
X1556973Y1305729D01*
X1556536Y1306383D01*
X1555883Y1306820D01*
X1555112Y1306973D01*
D02*
G37*
G36*
X1539639D02*
X1534324D01*
X1533553Y1306820D01*
X1532899Y1306383D01*
X1532462Y1305729D01*
X1532309Y1304958D01*
Y1303974D01*
X1532462Y1303203D01*
X1532899Y1302549D01*
X1533553Y1302112D01*
X1534324Y1301959D01*
X1539639D01*
X1540410Y1302112D01*
X1541064Y1302549D01*
X1541501Y1303203D01*
X1541654Y1303974D01*
Y1304958D01*
X1541501Y1305729D01*
X1541064Y1306383D01*
X1540410Y1306820D01*
X1539639Y1306973D01*
D02*
G37*
G36*
X1539422Y1300616D02*
X1538714D01*
X1538060Y1300345D01*
X1537560Y1299844D01*
X1537289Y1299190D01*
Y1298482D01*
X1537560Y1297828D01*
X1538060Y1297327D01*
X1538714Y1297056D01*
X1539422D01*
X1540076Y1297327D01*
X1540577Y1297828D01*
X1540848Y1298482D01*
Y1299190D01*
X1540577Y1299844D01*
X1540076Y1300345D01*
X1539422Y1300616D01*
D02*
G37*
G36*
X1503144Y1291097D02*
X1502587D01*
X1502072Y1290884D01*
X1501678Y1290490D01*
X1501465Y1289975D01*
Y1289419D01*
X1501678Y1288904D01*
X1502072Y1288510D01*
X1502587Y1288297D01*
X1503144D01*
X1503658Y1288510D01*
X1504052Y1288904D01*
X1504265Y1289419D01*
Y1289975D01*
X1504052Y1290490D01*
X1503658Y1290884D01*
X1503144Y1291097D01*
D02*
G37*
G36*
X1508278Y1285400D02*
X1507722D01*
X1507207Y1285187D01*
X1506813Y1284793D01*
X1506600Y1284278D01*
Y1283722D01*
X1506813Y1283207D01*
X1507207Y1282813D01*
X1507722Y1282600D01*
X1508278D01*
X1508793Y1282813D01*
X1509187Y1283207D01*
X1509400Y1283722D01*
Y1284278D01*
X1509187Y1284793D01*
X1508793Y1285187D01*
X1508278Y1285400D01*
D02*
G37*
G36*
X1538778Y1293900D02*
X1538221D01*
X1537707Y1293687D01*
X1537313Y1293293D01*
X1537100Y1292778D01*
Y1292222D01*
X1537313Y1291707D01*
X1537684Y1291336D01*
Y1280838D01*
X1537162Y1280316D01*
X1527664D01*
X1527293Y1280687D01*
X1526779Y1280900D01*
X1526221D01*
X1525707Y1280687D01*
X1525313Y1280293D01*
X1525100Y1279778D01*
Y1279222D01*
X1525313Y1278707D01*
X1525707Y1278313D01*
X1526221Y1278100D01*
X1526779D01*
X1527293Y1278313D01*
X1527664Y1278684D01*
X1537500D01*
X1537500Y1278684D01*
X1537812Y1278746D01*
X1538077Y1278923D01*
X1539077Y1279923D01*
X1539077Y1279923D01*
X1539254Y1280188D01*
X1539316Y1280500D01*
Y1291336D01*
X1539687Y1291707D01*
X1539900Y1292222D01*
Y1292778D01*
X1539687Y1293293D01*
X1539293Y1293687D01*
X1538778Y1293900D01*
D02*
G37*
G36*
X1509850Y1277109D02*
X1509274Y1276871D01*
X1508739Y1276336D01*
X1508501Y1275760D01*
X1509850D01*
Y1277109D01*
D02*
G37*
G36*
X1539422Y1277860D02*
X1538714D01*
X1538060Y1277589D01*
X1537560Y1277088D01*
X1537289Y1276434D01*
Y1275726D01*
X1537560Y1275072D01*
X1538060Y1274571D01*
X1538714Y1274300D01*
X1539422D01*
X1540076Y1274571D01*
X1540577Y1275072D01*
X1540848Y1275726D01*
Y1276434D01*
X1540577Y1277088D01*
X1540076Y1277589D01*
X1539422Y1277860D01*
D02*
G37*
G36*
X1509850Y1274760D02*
X1508501D01*
X1508739Y1274184D01*
X1509274Y1273649D01*
X1509850Y1273410D01*
Y1274760D01*
D02*
G37*
G36*
X1555112Y1272957D02*
X1551765D01*
X1550994Y1272804D01*
X1550340Y1272367D01*
X1549903Y1271713D01*
X1549750Y1270942D01*
Y1269958D01*
X1549903Y1269187D01*
X1550340Y1268533D01*
X1550994Y1268096D01*
X1551765Y1267943D01*
X1555112D01*
X1555883Y1268096D01*
X1556536Y1268533D01*
X1556973Y1269187D01*
X1557127Y1269958D01*
Y1270942D01*
X1556973Y1271713D01*
X1556536Y1272367D01*
X1555883Y1272804D01*
X1555112Y1272957D01*
D02*
G37*
G36*
X1539639D02*
X1534324D01*
X1533553Y1272804D01*
X1532899Y1272367D01*
X1532462Y1271713D01*
X1532309Y1270942D01*
Y1269958D01*
X1532462Y1269187D01*
X1532899Y1268533D01*
X1533553Y1268096D01*
X1534324Y1267943D01*
X1539639D01*
X1540410Y1268096D01*
X1541064Y1268533D01*
X1541501Y1269187D01*
X1541654Y1269958D01*
Y1270942D01*
X1541501Y1271713D01*
X1541064Y1272367D01*
X1540410Y1272804D01*
X1539639Y1272957D01*
D02*
G37*
G36*
X1519726Y1275403D02*
X1519169D01*
X1518655Y1275190D01*
X1518261Y1274796D01*
X1518048Y1274282D01*
Y1273725D01*
X1518261Y1273210D01*
X1518655Y1272816D01*
X1519169Y1272603D01*
X1519726D01*
X1520241Y1272816D01*
X1520385Y1272961D01*
X1528414Y1264932D01*
X1528414Y1264932D01*
X1528679Y1264756D01*
X1528991Y1264693D01*
X1529327D01*
X1529698Y1264322D01*
X1530212Y1264109D01*
X1530769D01*
X1531284Y1264322D01*
X1531678Y1264716D01*
X1531891Y1265231D01*
Y1265788D01*
X1531678Y1266302D01*
X1531284Y1266696D01*
X1530769Y1266909D01*
X1530212D01*
X1529698Y1266696D01*
X1529328Y1266326D01*
X1521222Y1274432D01*
X1520957Y1274609D01*
X1520690Y1274662D01*
X1520634Y1274796D01*
X1520241Y1275190D01*
X1519726Y1275403D01*
D02*
G37*
G36*
X1501278Y1280900D02*
X1500721D01*
X1500207Y1280687D01*
X1499813Y1280293D01*
X1499600Y1279778D01*
Y1279222D01*
X1499813Y1278707D01*
X1500207Y1278313D01*
X1500721Y1278100D01*
X1501184D01*
Y1267338D01*
X1500247Y1266400D01*
X1499722D01*
X1499207Y1266187D01*
X1498813Y1265793D01*
X1498600Y1265279D01*
Y1264721D01*
X1498813Y1264207D01*
X1499207Y1263813D01*
X1499722Y1263600D01*
X1500278D01*
X1500793Y1263813D01*
X1501187Y1264207D01*
X1501400Y1264721D01*
Y1265246D01*
X1502577Y1266423D01*
X1502577Y1266423D01*
X1502754Y1266688D01*
X1502816Y1267000D01*
X1502816Y1267000D01*
Y1278500D01*
X1502754Y1278812D01*
X1502577Y1279077D01*
X1502577Y1279077D01*
X1502400Y1279253D01*
Y1279778D01*
X1502187Y1280293D01*
X1501793Y1280687D01*
X1501278Y1280900D01*
D02*
G37*
G36*
X1438278Y1263900D02*
X1437722D01*
X1437207Y1263687D01*
X1437077Y1263556D01*
X1436750Y1263336D01*
X1436423Y1263556D01*
X1436293Y1263687D01*
X1435779Y1263900D01*
X1435221D01*
X1434707Y1263687D01*
X1434313Y1263293D01*
X1434100Y1262778D01*
Y1262222D01*
X1434313Y1261707D01*
X1434707Y1261313D01*
X1435221Y1261100D01*
X1435746D01*
X1436742Y1260105D01*
X1437006Y1259928D01*
X1437318Y1259866D01*
X1437318Y1259866D01*
X1438901D01*
X1443844Y1254923D01*
X1443844Y1254923D01*
X1444108Y1254746D01*
X1444421Y1254684D01*
X1444421Y1254684D01*
X1462662D01*
X1467896Y1249450D01*
Y1243788D01*
X1467896Y1243788D01*
X1467958Y1243476D01*
X1468135Y1243211D01*
X1469100Y1242247D01*
Y1241722D01*
X1469313Y1241207D01*
X1469707Y1240813D01*
X1470222Y1240600D01*
X1470778D01*
X1471293Y1240813D01*
X1471687Y1241207D01*
X1471900Y1241722D01*
Y1242278D01*
X1471687Y1242793D01*
X1471556Y1242923D01*
X1471336Y1243250D01*
X1471556Y1243577D01*
X1471687Y1243707D01*
X1471900Y1244221D01*
Y1244779D01*
X1471687Y1245293D01*
X1471293Y1245687D01*
X1470816Y1245885D01*
Y1250056D01*
X1470754Y1250368D01*
X1470577Y1250633D01*
X1470577Y1250633D01*
X1464033Y1257177D01*
X1463768Y1257354D01*
X1463456Y1257416D01*
X1463456Y1257416D01*
X1445236D01*
X1443390Y1259261D01*
X1443390Y1259261D01*
X1439749Y1262903D01*
X1439484Y1263080D01*
X1439256Y1263125D01*
X1439187Y1263293D01*
X1438793Y1263687D01*
X1438278Y1263900D01*
D02*
G37*
G36*
X1515836Y1250529D02*
X1515279D01*
X1514764Y1250315D01*
X1514393Y1249944D01*
X1498529D01*
X1498507Y1249966D01*
X1498243Y1250143D01*
X1497931Y1250205D01*
X1497931Y1250205D01*
X1480889D01*
X1480889Y1250205D01*
X1480577Y1250143D01*
X1480313Y1249966D01*
X1480313Y1249966D01*
X1476746Y1246400D01*
X1476221D01*
X1475707Y1246187D01*
X1475313Y1245793D01*
X1475100Y1245278D01*
Y1244722D01*
X1475313Y1244207D01*
X1475707Y1243813D01*
X1476221Y1243600D01*
X1476779D01*
X1477293Y1243813D01*
X1477687Y1244207D01*
X1477900Y1244722D01*
Y1245247D01*
X1481227Y1248574D01*
X1497593D01*
X1497615Y1248552D01*
X1497615Y1248552D01*
X1497879Y1248375D01*
X1498191Y1248313D01*
X1514393D01*
X1514764Y1247942D01*
X1515279Y1247729D01*
X1515836D01*
X1516350Y1247942D01*
X1516744Y1248335D01*
X1516957Y1248850D01*
Y1249407D01*
X1516744Y1249922D01*
X1516350Y1250315D01*
X1515836Y1250529D01*
D02*
G37*
G36*
X1464279Y1251900D02*
X1463721D01*
X1463207Y1251687D01*
X1462813Y1251293D01*
X1462600Y1250778D01*
Y1250222D01*
X1462813Y1249707D01*
X1463207Y1249313D01*
X1463721Y1249100D01*
X1464279D01*
X1464793Y1249313D01*
X1465187Y1249707D01*
X1465400Y1250222D01*
Y1250778D01*
X1465187Y1251293D01*
X1464793Y1251687D01*
X1464279Y1251900D01*
D02*
G37*
G36*
X1555052Y1250506D02*
X1551706D01*
X1550935Y1250352D01*
X1550281Y1249916D01*
X1549844Y1249262D01*
X1549691Y1248491D01*
Y1247507D01*
X1549844Y1246735D01*
X1550281Y1246082D01*
X1550935Y1245645D01*
X1551706Y1245492D01*
X1555052D01*
X1555824Y1245645D01*
X1556477Y1246082D01*
X1556914Y1246735D01*
X1557068Y1247507D01*
Y1248491D01*
X1556914Y1249262D01*
X1556477Y1249916D01*
X1555824Y1250352D01*
X1555052Y1250506D01*
D02*
G37*
G36*
X1539580D02*
X1534265D01*
X1533494Y1250352D01*
X1532840Y1249916D01*
X1532403Y1249262D01*
X1532250Y1248491D01*
Y1247507D01*
X1532403Y1246735D01*
X1532840Y1246082D01*
X1533494Y1245645D01*
X1534265Y1245492D01*
X1539580D01*
X1540351Y1245645D01*
X1541005Y1246082D01*
X1541442Y1246735D01*
X1541595Y1247507D01*
Y1248491D01*
X1541442Y1249262D01*
X1541005Y1249916D01*
X1540351Y1250352D01*
X1539580Y1250506D01*
D02*
G37*
G36*
X1501334Y1246955D02*
X1500777D01*
X1500262Y1246742D01*
X1499868Y1246348D01*
X1499655Y1245834D01*
Y1245277D01*
X1499868Y1244762D01*
X1500262Y1244368D01*
X1500777Y1244155D01*
X1501334D01*
X1501848Y1244368D01*
X1502242Y1244762D01*
X1502455Y1245277D01*
Y1245834D01*
X1502242Y1246348D01*
X1501848Y1246742D01*
X1501334Y1246955D01*
D02*
G37*
G36*
X1539363Y1244148D02*
X1538655D01*
X1538001Y1243877D01*
X1537500Y1243377D01*
X1537230Y1242723D01*
Y1242015D01*
X1537500Y1241361D01*
X1538001Y1240860D01*
X1538655Y1240589D01*
X1539363D01*
X1540017Y1240860D01*
X1540518Y1241361D01*
X1540789Y1242015D01*
Y1242723D01*
X1540518Y1243377D01*
X1540017Y1243877D01*
X1539363Y1244148D01*
D02*
G37*
G36*
X1484778Y1245400D02*
X1484221D01*
X1483707Y1245187D01*
X1483313Y1244793D01*
X1483100Y1244279D01*
Y1243721D01*
X1483313Y1243207D01*
X1483556Y1242964D01*
X1483488Y1242451D01*
X1483278Y1242395D01*
X1482626Y1242019D01*
X1482093Y1241486D01*
X1481716Y1240833D01*
X1481521Y1240105D01*
Y1239351D01*
X1481716Y1238624D01*
X1482093Y1237971D01*
X1482626Y1237438D01*
X1483278Y1237061D01*
X1484006Y1236866D01*
X1484760D01*
X1485488Y1237061D01*
X1486141Y1237438D01*
X1486674Y1237971D01*
X1487050Y1238624D01*
X1487245Y1239351D01*
Y1240105D01*
X1487050Y1240833D01*
X1486674Y1241486D01*
X1486141Y1242019D01*
X1485514Y1242381D01*
X1485481Y1242445D01*
X1485413Y1242933D01*
X1485687Y1243207D01*
X1485900Y1243721D01*
Y1244279D01*
X1485687Y1244793D01*
X1485293Y1245187D01*
X1484778Y1245400D01*
D02*
G37*
G36*
X1512500Y1240816D02*
X1512500Y1240816D01*
X1499000D01*
X1498688Y1240754D01*
X1498423Y1240577D01*
X1498423Y1240577D01*
X1490246Y1232400D01*
X1489721D01*
X1489207Y1232187D01*
X1488813Y1231793D01*
X1488600Y1231279D01*
Y1230721D01*
X1488813Y1230207D01*
X1489207Y1229813D01*
X1489721Y1229600D01*
X1490279D01*
X1490793Y1229813D01*
X1491187Y1230207D01*
X1491400Y1230721D01*
Y1231246D01*
X1499338Y1239184D01*
X1512162D01*
X1514600Y1236747D01*
Y1236222D01*
X1514813Y1235707D01*
X1515207Y1235313D01*
X1515722Y1235100D01*
X1516278D01*
X1516793Y1235313D01*
X1517187Y1235707D01*
X1517400Y1236222D01*
Y1236779D01*
X1517187Y1237293D01*
X1516793Y1237687D01*
X1516278Y1237900D01*
X1515753D01*
X1513077Y1240577D01*
X1512812Y1240754D01*
X1512500Y1240816D01*
D02*
G37*
G36*
X1521251Y1236128D02*
X1520694D01*
X1520179Y1235915D01*
X1519786Y1235521D01*
X1519573Y1235007D01*
Y1234450D01*
X1519786Y1233935D01*
X1520179Y1233541D01*
X1520694Y1233328D01*
X1521251D01*
X1521766Y1233541D01*
X1522159Y1233935D01*
X1522373Y1234450D01*
Y1235007D01*
X1522159Y1235521D01*
X1521766Y1235915D01*
X1521251Y1236128D01*
D02*
G37*
G36*
X1488278Y1245400D02*
X1487722D01*
X1487207Y1245187D01*
X1486813Y1244793D01*
X1486600Y1244279D01*
Y1243721D01*
X1486813Y1243207D01*
X1487207Y1242813D01*
X1487722Y1242600D01*
X1487922D01*
X1488500Y1242022D01*
Y1234999D01*
X1485747Y1232246D01*
X1485488Y1232395D01*
X1484760Y1232591D01*
X1484006D01*
X1483278Y1232395D01*
X1482626Y1232019D01*
X1482093Y1231486D01*
X1481716Y1230833D01*
X1481521Y1230105D01*
Y1229352D01*
X1481716Y1228624D01*
X1482093Y1227971D01*
X1482626Y1227438D01*
X1483278Y1227061D01*
X1484006Y1226866D01*
X1484760D01*
X1485488Y1227061D01*
X1486141Y1227438D01*
X1486674Y1227971D01*
X1487050Y1228624D01*
X1487245Y1229352D01*
Y1230105D01*
X1487050Y1230833D01*
X1486901Y1231092D01*
X1489892Y1234084D01*
X1489892Y1234084D01*
X1490069Y1234349D01*
X1490131Y1234661D01*
X1490131Y1234661D01*
Y1242360D01*
X1490131Y1242360D01*
X1490069Y1242672D01*
X1489892Y1242936D01*
X1489892Y1242936D01*
X1489314Y1243515D01*
X1489400Y1243721D01*
Y1244279D01*
X1489187Y1244793D01*
X1488793Y1245187D01*
X1488278Y1245400D01*
D02*
G37*
G36*
X1541778Y1238900D02*
X1541222D01*
X1540707Y1238687D01*
X1540313Y1238293D01*
X1540100Y1237778D01*
Y1237222D01*
X1540313Y1236707D01*
X1540520Y1236500D01*
X1540313Y1236293D01*
X1540100Y1235779D01*
Y1235221D01*
X1540313Y1234707D01*
X1540520Y1234500D01*
X1540313Y1234293D01*
X1540100Y1233778D01*
Y1233222D01*
X1540313Y1232707D01*
X1540707Y1232313D01*
X1541222Y1232100D01*
X1541778D01*
X1542293Y1232313D01*
X1542687Y1232707D01*
X1542900Y1233222D01*
Y1233778D01*
X1542687Y1234293D01*
X1542480Y1234500D01*
X1542687Y1234707D01*
X1542900Y1235221D01*
Y1235779D01*
X1542687Y1236293D01*
X1542480Y1236500D01*
X1542687Y1236707D01*
X1542900Y1237222D01*
Y1237778D01*
X1542687Y1238293D01*
X1542293Y1238687D01*
X1541778Y1238900D01*
D02*
G37*
G36*
X1514881Y1225150D02*
X1514324D01*
X1513809Y1224937D01*
X1513416Y1224543D01*
X1513202Y1224028D01*
Y1223472D01*
X1513416Y1222957D01*
X1513809Y1222563D01*
X1514324Y1222350D01*
X1514881D01*
X1515395Y1222563D01*
X1515789Y1222957D01*
X1516002Y1223472D01*
Y1224028D01*
X1515789Y1224543D01*
X1515395Y1224937D01*
X1514881Y1225150D01*
D02*
G37*
G36*
X1541778Y1228900D02*
X1541222D01*
X1540707Y1228687D01*
X1540313Y1228293D01*
X1540100Y1227779D01*
Y1227221D01*
X1540313Y1226707D01*
X1540520Y1226500D01*
X1540313Y1226293D01*
X1540100Y1225778D01*
Y1225222D01*
X1540313Y1224707D01*
X1540520Y1224500D01*
X1540313Y1224293D01*
X1540100Y1223779D01*
Y1223221D01*
X1540313Y1222707D01*
X1540707Y1222313D01*
X1541222Y1222100D01*
X1541778D01*
X1542293Y1222313D01*
X1542687Y1222707D01*
X1542900Y1223221D01*
Y1223779D01*
X1542687Y1224293D01*
X1542480Y1224500D01*
X1542687Y1224707D01*
X1542900Y1225222D01*
Y1225778D01*
X1542687Y1226293D01*
X1542480Y1226500D01*
X1542687Y1226707D01*
X1542900Y1227221D01*
Y1227779D01*
X1542687Y1228293D01*
X1542293Y1228687D01*
X1541778Y1228900D01*
D02*
G37*
G36*
X1539363Y1221392D02*
X1538655D01*
X1538001Y1221122D01*
X1537500Y1220621D01*
X1537230Y1219967D01*
Y1219259D01*
X1537500Y1218605D01*
X1538001Y1218104D01*
X1538655Y1217833D01*
X1539363D01*
X1540017Y1218104D01*
X1540518Y1218605D01*
X1540789Y1219259D01*
Y1219967D01*
X1540518Y1220621D01*
X1540017Y1221122D01*
X1539363Y1221392D01*
D02*
G37*
G36*
X1494779Y1220400D02*
X1494221D01*
X1493707Y1220187D01*
X1493313Y1219793D01*
X1493100Y1219279D01*
Y1218721D01*
X1493313Y1218207D01*
X1493707Y1217813D01*
X1494221Y1217600D01*
X1494779D01*
X1495293Y1217813D01*
X1495687Y1218207D01*
X1495900Y1218721D01*
Y1219279D01*
X1495687Y1219793D01*
X1495293Y1220187D01*
X1494779Y1220400D01*
D02*
G37*
G36*
X1555052Y1216490D02*
X1551706D01*
X1550935Y1216337D01*
X1550281Y1215900D01*
X1549844Y1215246D01*
X1549691Y1214475D01*
Y1213491D01*
X1549844Y1212720D01*
X1550281Y1212066D01*
X1550935Y1211629D01*
X1551706Y1211476D01*
X1555052D01*
X1555824Y1211629D01*
X1556477Y1212066D01*
X1556914Y1212720D01*
X1557068Y1213491D01*
Y1214475D01*
X1556914Y1215246D01*
X1556477Y1215900D01*
X1555824Y1216337D01*
X1555052Y1216490D01*
D02*
G37*
G36*
X1539580D02*
X1534265D01*
X1533494Y1216337D01*
X1532840Y1215900D01*
X1532403Y1215246D01*
X1532250Y1214475D01*
Y1213491D01*
X1532403Y1212720D01*
X1532840Y1212066D01*
X1533494Y1211629D01*
X1534265Y1211476D01*
X1539580D01*
X1540351Y1211629D01*
X1541005Y1212066D01*
X1541442Y1212720D01*
X1541595Y1213491D01*
Y1214475D01*
X1541442Y1215246D01*
X1541005Y1215900D01*
X1540351Y1216337D01*
X1539580Y1216490D01*
D02*
G37*
G36*
X1536033Y1188878D02*
X1528734D01*
Y1181579D01*
X1536033D01*
Y1188878D01*
D02*
G37*
G36*
X1420784Y1258204D02*
X1419434D01*
Y1256855D01*
X1420011Y1257094D01*
X1420545Y1257628D01*
X1420784Y1258204D01*
D02*
G37*
G36*
X1418434D02*
X1417085D01*
X1417324Y1257628D01*
X1417858Y1257094D01*
X1418434Y1256855D01*
Y1258204D01*
D02*
G37*
G36*
X1342278Y1234900D02*
X1341722D01*
X1341207Y1234687D01*
X1340813Y1234293D01*
X1340600Y1233778D01*
Y1233222D01*
X1340813Y1232707D01*
X1341207Y1232313D01*
X1341722Y1232100D01*
X1342278D01*
X1342793Y1232313D01*
X1343187Y1232707D01*
X1343400Y1233222D01*
Y1233778D01*
X1343187Y1234293D01*
X1342793Y1234687D01*
X1342278Y1234900D01*
D02*
G37*
G36*
X1344235Y1225517D02*
X1343678D01*
X1343164Y1225304D01*
X1342770Y1224910D01*
X1342557Y1224395D01*
Y1223838D01*
X1342770Y1223324D01*
X1343164Y1222930D01*
X1343678Y1222717D01*
X1344235D01*
X1344750Y1222930D01*
X1345144Y1223324D01*
X1345357Y1223838D01*
Y1224395D01*
X1345144Y1224910D01*
X1344750Y1225304D01*
X1344235Y1225517D01*
D02*
G37*
G36*
X1335139Y1221042D02*
X1334581D01*
X1334067Y1220829D01*
X1333673Y1220435D01*
X1333460Y1219921D01*
Y1219364D01*
X1333673Y1218849D01*
X1334067Y1218455D01*
X1334581Y1218242D01*
X1335139D01*
X1335653Y1218455D01*
X1336047Y1218849D01*
X1336260Y1219364D01*
Y1219921D01*
X1336047Y1220435D01*
X1335653Y1220829D01*
X1335139Y1221042D01*
D02*
G37*
G36*
X1342864Y1188878D02*
X1341903D01*
X1340975Y1188629D01*
X1340142Y1188149D01*
X1339463Y1187469D01*
X1338982Y1186637D01*
X1338734Y1185709D01*
Y1184748D01*
X1338982Y1183820D01*
X1339463Y1182987D01*
X1340142Y1182308D01*
X1340975Y1181828D01*
X1341903Y1181579D01*
X1342864D01*
X1343792Y1181828D01*
X1344624Y1182308D01*
X1345304Y1182987D01*
X1345784Y1183820D01*
X1346033Y1184748D01*
Y1185709D01*
X1345784Y1186637D01*
X1345304Y1187469D01*
X1344624Y1188149D01*
X1343792Y1188629D01*
X1342864Y1188878D01*
D02*
G37*
G36*
X1336033D02*
X1328734D01*
Y1181579D01*
X1336033D01*
Y1188878D01*
D02*
G37*
G36*
X1322864D02*
X1321903D01*
X1320975Y1188629D01*
X1320142Y1188149D01*
X1319463Y1187469D01*
X1318982Y1186637D01*
X1318734Y1185709D01*
Y1184748D01*
X1318982Y1183820D01*
X1319463Y1182987D01*
X1320142Y1182308D01*
X1320975Y1181828D01*
X1321903Y1181579D01*
X1322864D01*
X1323792Y1181828D01*
X1324624Y1182308D01*
X1325304Y1182987D01*
X1325784Y1183820D01*
X1326033Y1184748D01*
Y1185709D01*
X1325784Y1186637D01*
X1325304Y1187469D01*
X1324624Y1188149D01*
X1323792Y1188629D01*
X1322864Y1188878D01*
D02*
G37*
G36*
X1312864D02*
X1311903D01*
X1310975Y1188629D01*
X1310142Y1188149D01*
X1309463Y1187469D01*
X1308982Y1186637D01*
X1308734Y1185709D01*
Y1184748D01*
X1308982Y1183820D01*
X1309463Y1182987D01*
X1310142Y1182308D01*
X1310975Y1181828D01*
X1311903Y1181579D01*
X1312864D01*
X1313792Y1181828D01*
X1314624Y1182308D01*
X1315304Y1182987D01*
X1315784Y1183820D01*
X1316033Y1184748D01*
Y1185709D01*
X1315784Y1186637D01*
X1315304Y1187469D01*
X1314624Y1188149D01*
X1313792Y1188629D01*
X1312864Y1188878D01*
D02*
G37*
G36*
X1292390Y1309075D02*
X1291377D01*
X1290399Y1308813D01*
X1289521Y1308306D01*
X1288805Y1307590D01*
X1288299Y1306713D01*
X1288037Y1305735D01*
Y1304722D01*
X1288299Y1303744D01*
X1288805Y1302867D01*
X1289521Y1302150D01*
X1290399Y1301644D01*
X1291377Y1301382D01*
X1292390D01*
X1293368Y1301644D01*
X1294245Y1302150D01*
X1294961Y1302867D01*
X1295467Y1303744D01*
X1295730Y1304722D01*
Y1305735D01*
X1295467Y1306713D01*
X1294961Y1307590D01*
X1294245Y1308306D01*
X1293368Y1308813D01*
X1292390Y1309075D01*
D02*
G37*
G36*
Y1299075D02*
X1291377D01*
X1290399Y1298813D01*
X1289521Y1298306D01*
X1288805Y1297590D01*
X1288299Y1296713D01*
X1288037Y1295735D01*
Y1294722D01*
X1288299Y1293744D01*
X1288805Y1292867D01*
X1289521Y1292150D01*
X1290399Y1291644D01*
X1291377Y1291382D01*
X1292390D01*
X1293368Y1291644D01*
X1294245Y1292150D01*
X1294961Y1292867D01*
X1295467Y1293744D01*
X1295730Y1294722D01*
Y1295735D01*
X1295467Y1296713D01*
X1294961Y1297590D01*
X1294245Y1298306D01*
X1293368Y1298813D01*
X1292390Y1299075D01*
D02*
G37*
G36*
Y1289075D02*
X1291377D01*
X1290399Y1288813D01*
X1289521Y1288306D01*
X1288805Y1287590D01*
X1288299Y1286713D01*
X1288037Y1285735D01*
Y1284722D01*
X1288299Y1283744D01*
X1288805Y1282867D01*
X1289521Y1282150D01*
X1290399Y1281644D01*
X1291377Y1281382D01*
X1292390D01*
X1293368Y1281644D01*
X1294245Y1282150D01*
X1294961Y1282867D01*
X1295467Y1283744D01*
X1295730Y1284722D01*
Y1285735D01*
X1295467Y1286713D01*
X1294961Y1287590D01*
X1294245Y1288306D01*
X1293368Y1288813D01*
X1292390Y1289075D01*
D02*
G37*
G36*
X1339130Y1277628D02*
X1338573D01*
X1338058Y1277415D01*
X1337664Y1277021D01*
X1337451Y1276507D01*
Y1275950D01*
X1337664Y1275435D01*
X1338058Y1275041D01*
X1338573Y1274828D01*
X1339130D01*
X1339644Y1275041D01*
X1340038Y1275435D01*
X1340251Y1275950D01*
Y1276507D01*
X1340038Y1277021D01*
X1339644Y1277415D01*
X1339130Y1277628D01*
D02*
G37*
G36*
X1278496Y1276580D02*
X1277939D01*
X1277425Y1276367D01*
X1277031Y1275973D01*
X1276818Y1275459D01*
Y1274902D01*
X1277031Y1274387D01*
X1277425Y1273993D01*
X1277939Y1273780D01*
X1278496D01*
X1279011Y1273993D01*
X1279405Y1274387D01*
X1279618Y1274902D01*
Y1275459D01*
X1279405Y1275973D01*
X1279011Y1276367D01*
X1278496Y1276580D01*
D02*
G37*
G36*
X1339368Y1266128D02*
X1338811D01*
X1338296Y1265915D01*
X1337903Y1265521D01*
X1337689Y1265007D01*
Y1264450D01*
X1337903Y1263935D01*
X1338296Y1263542D01*
X1338811Y1263328D01*
X1339368D01*
X1339882Y1263542D01*
X1340276Y1263935D01*
X1340489Y1264450D01*
Y1265007D01*
X1340276Y1265521D01*
X1339882Y1265915D01*
X1339368Y1266128D01*
D02*
G37*
G36*
X1298279Y1261400D02*
X1297721D01*
X1297207Y1261187D01*
X1296813Y1260793D01*
X1296600Y1260279D01*
Y1259721D01*
X1296813Y1259207D01*
X1297207Y1258813D01*
X1297721Y1258600D01*
X1298279D01*
X1298793Y1258813D01*
X1299187Y1259207D01*
X1299400Y1259721D01*
Y1260279D01*
X1299187Y1260793D01*
X1298793Y1261187D01*
X1298279Y1261400D01*
D02*
G37*
G36*
X1278778Y1244400D02*
X1278222D01*
X1277707Y1244187D01*
X1277313Y1243793D01*
X1277100Y1243279D01*
Y1242721D01*
X1277313Y1242207D01*
X1277707Y1241813D01*
X1278222Y1241600D01*
X1278778D01*
X1279293Y1241813D01*
X1279687Y1242207D01*
X1279900Y1242721D01*
Y1243279D01*
X1279687Y1243793D01*
X1279293Y1244187D01*
X1278778Y1244400D01*
D02*
G37*
G36*
X1284550Y1232628D02*
X1283993D01*
X1283479Y1232415D01*
X1283085Y1232021D01*
X1282872Y1231507D01*
Y1230950D01*
X1283085Y1230435D01*
X1283479Y1230042D01*
X1283993Y1229828D01*
X1284550D01*
X1285065Y1230042D01*
X1285458Y1230435D01*
X1285672Y1230950D01*
Y1231507D01*
X1285458Y1232021D01*
X1285065Y1232415D01*
X1284550Y1232628D01*
D02*
G37*
G36*
X1299279Y1218400D02*
X1298722D01*
X1298207Y1218187D01*
X1297813Y1217793D01*
X1297600Y1217278D01*
Y1216722D01*
X1297813Y1216207D01*
X1298207Y1215813D01*
X1298722Y1215600D01*
X1299279D01*
X1299793Y1215813D01*
X1300187Y1216207D01*
X1300400Y1216722D01*
Y1217278D01*
X1300187Y1217793D01*
X1299793Y1218187D01*
X1299279Y1218400D01*
D02*
G37*
G36*
Y1204900D02*
X1298722D01*
X1298207Y1204687D01*
X1297813Y1204293D01*
X1297600Y1203778D01*
Y1203222D01*
X1297813Y1202707D01*
X1298207Y1202313D01*
X1298722Y1202100D01*
X1299279D01*
X1299793Y1202313D01*
X1300187Y1202707D01*
X1300400Y1203222D01*
Y1203778D01*
X1300187Y1204293D01*
X1299793Y1204687D01*
X1299279Y1204900D01*
D02*
G37*
G36*
X1402598Y1225899D02*
X1402041D01*
X1401526Y1225686D01*
X1401132Y1225292D01*
X1400919Y1224777D01*
Y1224220D01*
X1401132Y1223706D01*
X1401526Y1223312D01*
X1402041Y1223099D01*
X1402598D01*
X1403112Y1223312D01*
X1403506Y1223706D01*
X1403719Y1224220D01*
Y1224777D01*
X1403506Y1225292D01*
X1403112Y1225686D01*
X1402598Y1225899D01*
D02*
G37*
G36*
X1437673Y1217436D02*
X1437116D01*
X1436601Y1217222D01*
X1436207Y1216829D01*
X1435994Y1216314D01*
Y1215757D01*
X1436207Y1215243D01*
X1436601Y1214849D01*
X1437116Y1214636D01*
X1437673D01*
X1438187Y1214849D01*
X1438581Y1215243D01*
X1438794Y1215757D01*
Y1216314D01*
X1438581Y1216829D01*
X1438187Y1217222D01*
X1437673Y1217436D01*
D02*
G37*
%LPD*%
D10*
X1469217Y1231000D02*
X1470488Y1229728D01*
X1474383D01*
X1469000Y1231000D02*
X1469217D01*
D11*
X1467000Y1296000D02*
X1471811Y1300811D01*
X1507811D02*
X1511500Y1304500D01*
X1471811Y1300811D02*
X1507811D01*
X1527283Y1338128D02*
X1532383Y1343228D01*
X1527283Y1320282D02*
Y1338128D01*
X1511500Y1304500D02*
X1527283Y1320282D01*
X1522383Y1342524D02*
Y1343228D01*
Y1342524D02*
X1527283Y1337624D01*
X1511500Y1304500D02*
Y1304500D01*
X1467000Y1289000D02*
Y1296000D01*
X1460000Y1287000D02*
X1465000D01*
X1467000Y1289000D01*
X1457500Y1287000D02*
X1460000D01*
D13*
X1444421Y1255500D02*
X1463000D01*
X1437318Y1260682D02*
X1439239D01*
X1444421Y1255500D01*
X1435500Y1262500D02*
X1437318Y1260682D01*
X1438000Y1262500D02*
X1438174Y1262326D01*
X1439172D01*
X1442814Y1258685D01*
X1442814D01*
X1444898Y1256600D01*
X1501000Y1279500D02*
X1502000Y1278500D01*
Y1267000D02*
Y1278500D01*
X1514000Y1260921D02*
Y1280000D01*
X1512520Y1259441D02*
X1514000Y1260921D01*
Y1280000D02*
X1517000Y1283000D01*
X1490230Y1284994D02*
Y1287730D01*
X1501055Y1298555D02*
X1517945D01*
X1490230Y1287730D02*
X1501055Y1298555D01*
X1517945D02*
X1518000Y1298500D01*
X1511000Y1265675D02*
Y1266000D01*
X1498900Y1253400D02*
X1510577Y1265077D01*
Y1265252D02*
X1511000Y1265675D01*
X1510577Y1265077D02*
Y1265252D01*
X1497931Y1249389D02*
X1498191Y1249129D01*
X1515557D01*
X1480889Y1249389D02*
X1497931D01*
X1476500Y1245000D02*
X1480889Y1249389D01*
X1499000Y1240000D02*
X1512500D01*
X1516000Y1236500D01*
X1470500Y1244500D02*
Y1244825D01*
X1470000Y1245325D02*
Y1250056D01*
X1463456Y1256600D02*
X1470000Y1250056D01*
Y1245325D02*
X1470500Y1244825D01*
X1488000Y1243675D02*
X1489316Y1242360D01*
Y1234661D02*
Y1242360D01*
X1484383Y1229728D02*
X1489316Y1234661D01*
X1488000Y1243675D02*
Y1244000D01*
X1519448Y1274003D02*
X1519596Y1273855D01*
X1528991Y1265509D02*
X1530491D01*
X1520645Y1273855D02*
X1528991Y1265509D01*
X1519596Y1273855D02*
X1520645D01*
X1500000Y1265000D02*
X1502000Y1267000D01*
X1474500Y1285000D02*
X1480000Y1279500D01*
X1492239D01*
X1444898Y1256600D02*
X1463456D01*
X1463000Y1255500D02*
X1468712Y1249788D01*
Y1243788D02*
Y1249788D01*
X1526500Y1279500D02*
X1537500D01*
X1538500Y1280500D01*
Y1292500D01*
X1490000Y1231000D02*
X1499000Y1240000D01*
X1468712Y1243788D02*
X1470500Y1242000D01*
Y1242000D02*
Y1242000D01*
X1484442Y1239787D02*
Y1243942D01*
X1484383Y1239728D02*
X1484442Y1239787D01*
Y1243942D02*
X1484500Y1244000D01*
D14*
X1302383Y1185228D02*
Y1190883D01*
X1327642Y1216142D01*
X1334860D01*
D19*
X1396500Y1263500D02*
X1430675D01*
X1440843Y1253333D02*
X1453292D01*
X1430675Y1263500D02*
X1440843Y1253333D01*
X1402500Y1260500D02*
X1429675D01*
X1439671Y1250504D01*
X1401500Y1262000D02*
X1430175D01*
X1439671Y1250504D02*
X1452120D01*
X1440257Y1251919D02*
X1452706D01*
X1434175Y1254000D02*
X1439085Y1249090D01*
X1451535D01*
X1430175Y1262000D02*
X1440257Y1251919D01*
X1417920Y1254000D02*
X1434175D01*
X1402000Y1260000D02*
X1402500Y1260500D01*
X1401000Y1256500D02*
X1402800Y1258300D01*
X1413620D02*
X1417920Y1254000D01*
X1402800Y1258300D02*
X1413620D01*
X1501500Y1259000D02*
X1512000Y1269500D01*
X1474464Y1258969D02*
X1475127D01*
X1474215Y1258720D02*
X1474464Y1258969D01*
X1475158Y1259000D02*
X1501500D01*
X1475127Y1258969D02*
X1475158Y1259000D01*
X1512000Y1269500D02*
Y1281000D01*
X1517202Y1286202D02*
Y1295199D01*
X1512000Y1281000D02*
X1517202Y1286202D01*
X1497500Y1290379D02*
X1500360Y1293238D01*
X1507405D01*
X1510144Y1295000D02*
X1511905Y1293238D01*
X1500000Y1295000D02*
X1510144D01*
X1496000Y1291000D02*
X1500000Y1295000D01*
X1497500Y1279379D02*
Y1290379D01*
X1284500Y1249500D02*
X1299000D01*
X1313833Y1234667D01*
X1366500Y1261719D02*
Y1269500D01*
Y1261719D02*
X1374243Y1253976D01*
Y1251857D02*
Y1253976D01*
X1372000Y1249614D02*
X1374243Y1251857D01*
X1372000Y1244000D02*
Y1249614D01*
X1370229Y1242229D02*
X1372000Y1244000D01*
X1370441Y1254929D02*
X1371518Y1253852D01*
X1363000Y1250000D02*
X1367929Y1254929D01*
X1370441D01*
X1371518Y1253834D02*
X1372000Y1253352D01*
Y1253000D02*
Y1253352D01*
X1371518Y1253834D02*
Y1253852D01*
X1402252Y1284000D02*
X1402752Y1284500D01*
X1417500D01*
X1401900Y1284000D02*
X1402252D01*
X1417500Y1284500D02*
X1426000Y1276000D01*
X1399749Y1282651D02*
Y1284555D01*
X1401194Y1286000D02*
X1419500D01*
X1399749Y1284555D02*
X1401194Y1286000D01*
X1399749Y1282651D02*
X1401400Y1281000D01*
X1400000Y1287500D02*
X1404600D01*
X1398049Y1285549D02*
X1400000Y1287500D01*
X1404600D02*
X1408500Y1291400D01*
X1398049Y1284249D02*
Y1285549D01*
X1397800Y1284000D02*
X1398049Y1284249D01*
X1408500Y1291400D02*
Y1295893D01*
X1392842Y1281158D02*
X1393000Y1281000D01*
X1392842Y1282357D02*
X1432485Y1322000D01*
X1392842Y1281158D02*
Y1282357D01*
X1432485Y1322000D02*
X1449034D01*
X1318500Y1296000D02*
X1322500Y1292000D01*
X1318500Y1296000D02*
Y1321000D01*
X1307500Y1332000D02*
X1318500Y1321000D01*
X1320000Y1297000D02*
X1323150Y1293850D01*
X1312383Y1333228D02*
X1320000Y1325611D01*
Y1297000D02*
Y1325611D01*
X1430621Y1326500D02*
X1435655D01*
X1442655Y1323500D02*
X1449000Y1329845D01*
X1408500Y1295893D02*
X1433107Y1320500D01*
X1431864Y1323500D02*
X1442655D01*
X1388000Y1283879D02*
X1430621Y1326500D01*
X1435655D02*
X1439000Y1329845D01*
X1386500Y1284500D02*
X1430000Y1328000D01*
X1391000Y1282636D02*
X1431864Y1323500D01*
X1431243Y1325000D02*
X1442033D01*
X1449034Y1322000D02*
X1457500Y1330466D01*
X1435034Y1328000D02*
X1437500Y1330466D01*
X1389500Y1283257D02*
X1431243Y1325000D01*
X1433107Y1320500D02*
X1449655D01*
X1442033Y1325000D02*
X1447387Y1330353D01*
X1430000Y1328000D02*
X1435034D01*
X1449655Y1320500D02*
X1459000Y1329845D01*
X1351500Y1271000D02*
Y1320000D01*
X1357500Y1326000D02*
Y1338345D01*
X1353000Y1272500D02*
Y1319379D01*
X1362383Y1328762D02*
Y1333228D01*
X1351500Y1320000D02*
X1357500Y1326000D01*
X1353000Y1319379D02*
X1362383Y1328762D01*
X1433111Y1191500D02*
X1437387Y1187225D01*
X1386000Y1228000D02*
X1422500Y1191500D01*
X1433111D01*
X1439612Y1198000D02*
X1452383Y1185228D01*
X1438783Y1196000D02*
X1447000Y1187783D01*
X1434111Y1193500D02*
X1442383Y1185228D01*
X1399000Y1224000D02*
X1425000Y1198000D01*
X1439612D01*
X1390000Y1230000D02*
X1424000Y1196000D01*
X1438783D01*
X1423500Y1193500D02*
X1434111D01*
X1388000Y1229000D02*
X1423500Y1193500D01*
X1505612Y1190000D02*
X1507637Y1187975D01*
X1462000Y1229000D02*
X1501000Y1190000D01*
X1463414Y1229586D02*
X1501586Y1191414D01*
X1464828Y1230172D02*
X1502000Y1193000D01*
X1511500Y1194500D02*
X1519320Y1186680D01*
X1511000Y1193000D02*
X1517000Y1187000D01*
X1501586Y1191414D02*
X1506197D01*
X1501000Y1190000D02*
X1505612D01*
X1466243Y1230757D02*
X1502500Y1194500D01*
X1511500D01*
X1502000Y1193000D02*
X1511000D01*
X1506197Y1191414D02*
X1512383Y1185228D01*
X1498561Y1189051D02*
Y1189051D01*
X1497000Y1180612D02*
Y1187586D01*
X1491086Y1193500D02*
X1497000Y1187586D01*
X1483485Y1193500D02*
X1491086D01*
X1484107Y1195000D02*
X1492612D01*
X1498561Y1189051D01*
Y1189051D02*
X1502383Y1185228D01*
X1428485Y1248500D02*
X1483485Y1193500D01*
X1482864Y1192000D02*
X1485612D01*
X1485112Y1190500D02*
X1487500Y1188111D01*
X1427864Y1247000D02*
X1482864Y1192000D01*
X1485612D02*
X1489000Y1188612D01*
X1429107Y1250000D02*
X1484107Y1195000D01*
X1427243Y1245500D02*
X1482243Y1190500D01*
X1485112D01*
X1519362Y1186680D02*
X1520814Y1185228D01*
X1522383D01*
X1519320Y1186680D02*
X1519362D01*
X1517000Y1180612D02*
Y1187000D01*
Y1180612D02*
X1522383Y1175228D01*
X1507637Y1179975D02*
Y1187975D01*
X1489000Y1188612D02*
Y1188612D01*
Y1188612D02*
X1492383Y1185228D01*
X1487500Y1180112D02*
Y1188111D01*
X1426500Y1244000D02*
X1478500Y1192000D01*
Y1189112D02*
Y1192000D01*
X1418852Y1244000D02*
X1426500D01*
X1426000Y1242500D02*
X1476887Y1191613D01*
Y1180725D02*
Y1191613D01*
X1416500Y1242500D02*
X1426000D01*
X1408000Y1241000D02*
X1425364D01*
X1469000Y1188612D02*
Y1197364D01*
X1425364Y1241000D02*
X1469000Y1197364D01*
X1467500Y1180112D02*
Y1196743D01*
X1407000Y1239500D02*
X1424743D01*
X1467500Y1196743D01*
X1341500Y1321743D02*
Y1327000D01*
X1337500Y1331000D02*
Y1338345D01*
Y1331000D02*
X1341500Y1327000D01*
X1347000Y1268000D02*
Y1318364D01*
X1344000Y1266000D02*
Y1317121D01*
X1333000Y1328121D02*
Y1332611D01*
X1343000Y1322364D02*
X1347000Y1318364D01*
X1345500Y1267000D02*
Y1317743D01*
X1343000Y1322364D02*
Y1332611D01*
X1327500Y1331500D02*
X1342500Y1316500D01*
Y1265000D02*
Y1316500D01*
X1333000Y1328121D02*
X1344000Y1317121D01*
X1327500Y1331500D02*
Y1338345D01*
X1341500Y1321743D02*
X1345500Y1317743D01*
X1367500Y1332000D02*
Y1338345D01*
X1354500Y1288500D02*
Y1319000D01*
X1367500Y1332000D01*
X1386500Y1277367D02*
Y1284500D01*
X1391000Y1280367D02*
Y1282636D01*
X1389500Y1279367D02*
Y1283257D01*
X1388000Y1278367D02*
Y1283879D01*
X1389500Y1279367D02*
X1391367Y1277500D01*
X1388000Y1278367D02*
X1390717Y1275650D01*
X1391000Y1280367D02*
X1392217Y1279150D01*
X1386500Y1277367D02*
X1389867Y1274000D01*
X1459000Y1329845D02*
Y1329845D01*
X1457500Y1330466D02*
Y1338345D01*
X1459000Y1329845D02*
X1462383Y1333228D01*
X1447387Y1330353D02*
Y1338232D01*
X1449000Y1329845D02*
Y1329845D01*
X1452383Y1333228D01*
X1439000Y1329845D02*
Y1329845D01*
X1437500Y1330466D02*
Y1338345D01*
X1439000Y1329845D02*
X1442383Y1333228D01*
X1357500Y1338345D02*
X1362383Y1343228D01*
X1321500Y1298500D02*
Y1328000D01*
Y1298500D02*
X1324500Y1295500D01*
X1307500Y1332000D02*
Y1338345D01*
X1317500Y1332000D02*
X1321500Y1328000D01*
X1317500Y1332000D02*
Y1338345D01*
X1352383Y1332894D02*
Y1333228D01*
X1350000Y1330511D02*
X1352383Y1332894D01*
X1350000Y1270000D02*
Y1330511D01*
X1437500Y1338345D02*
X1442383Y1343228D01*
X1447387Y1338232D02*
X1452383Y1343228D01*
X1522383Y1175228D02*
Y1175228D01*
X1507637Y1179975D02*
X1512383Y1175228D01*
X1497000Y1180612D02*
X1502383Y1175228D01*
X1487500Y1180112D02*
X1492383Y1175228D01*
X1478500Y1189112D02*
X1482383Y1185228D01*
X1469000Y1188612D02*
X1472383Y1185228D01*
X1467500Y1180112D02*
X1472383Y1175228D01*
X1459500Y1188111D02*
X1462383Y1185228D01*
X1424121Y1238000D02*
X1459500Y1202621D01*
Y1188111D02*
Y1202621D01*
X1437387Y1180225D02*
X1442383Y1175228D01*
X1437387Y1180225D02*
Y1187225D01*
X1447000Y1180612D02*
Y1187783D01*
Y1180612D02*
X1452383Y1175228D01*
X1442383Y1185228D02*
Y1185228D01*
X1367500Y1180112D02*
Y1188000D01*
Y1180112D02*
X1372383Y1175228D01*
X1361500Y1194000D02*
X1367500Y1188000D01*
X1377500Y1180112D02*
X1382383Y1175228D01*
X1377500Y1180112D02*
Y1187611D01*
X1365000Y1200111D02*
X1377500Y1187611D01*
X1389000Y1188612D02*
X1392383Y1185228D01*
X1387500Y1180112D02*
Y1201500D01*
X1372000Y1219500D02*
X1389000Y1202500D01*
Y1188612D02*
Y1202500D01*
X1387500Y1180112D02*
X1392383Y1175228D01*
X1370229Y1218771D02*
X1387500Y1201500D01*
X1397500Y1187000D02*
X1401000Y1190500D01*
X1397500Y1180112D02*
Y1187000D01*
Y1180112D02*
X1402383Y1175228D01*
X1417000Y1180612D02*
X1422383Y1175228D01*
X1382500Y1226500D02*
X1417000Y1192000D01*
Y1180612D02*
Y1192000D01*
X1380650Y1225850D02*
X1412383Y1194117D01*
Y1185228D02*
Y1194117D01*
X1401000Y1190500D02*
Y1198000D01*
X1375732Y1223268D02*
X1401000Y1198000D01*
X1402383Y1185228D02*
Y1199117D01*
X1377204Y1224296D02*
X1402383Y1199117D01*
X1372000Y1219500D02*
Y1240500D01*
X1365000Y1200111D02*
Y1244000D01*
X1366500Y1201112D02*
Y1242000D01*
Y1201112D02*
X1382383Y1185228D01*
X1361500Y1194000D02*
Y1240500D01*
X1363390Y1194222D02*
Y1242110D01*
Y1194222D02*
X1372383Y1185228D01*
X1356229Y1193229D02*
Y1242271D01*
X1352383Y1189383D02*
X1356229Y1193229D01*
X1352383Y1185228D02*
Y1189383D01*
X1354500Y1194000D02*
Y1240500D01*
X1347500Y1187000D02*
X1354500Y1194000D01*
X1347500Y1180112D02*
Y1187000D01*
X1357500Y1180112D02*
Y1187500D01*
X1358000Y1188000D02*
Y1240500D01*
X1357500Y1187500D02*
X1358000Y1188000D01*
X1359650Y1187961D02*
X1362383Y1185228D01*
X1359650Y1187961D02*
Y1242350D01*
X1362383Y1185228D02*
Y1185228D01*
X1457500Y1338345D02*
X1462383Y1343228D01*
X1367500Y1338345D02*
X1372383Y1343228D01*
X1348484Y1325016D02*
Y1339329D01*
Y1325016D02*
X1348500Y1325000D01*
X1348484Y1339329D02*
X1352383Y1343228D01*
X1342383Y1333228D02*
X1343000Y1332611D01*
X1337500Y1338345D02*
X1342383Y1343228D01*
X1332383Y1333228D02*
X1333000Y1332611D01*
X1327500Y1338345D02*
X1332383Y1343228D01*
X1323000Y1300500D02*
Y1332611D01*
X1322383Y1333228D02*
X1323000Y1332611D01*
X1317500Y1338345D02*
X1322383Y1343228D01*
X1307500Y1338345D02*
X1312383Y1343228D01*
X1476887Y1180725D02*
X1482383Y1175228D01*
X1405000Y1236500D02*
X1423500D01*
X1458137Y1201863D01*
Y1179475D02*
Y1201863D01*
Y1179475D02*
X1462383Y1175228D01*
X1422372Y1185240D02*
X1422383Y1185228D01*
X1422372Y1185240D02*
Y1189128D01*
X1386000Y1228000D02*
Y1236200D01*
X1379000Y1225000D02*
X1407637Y1196363D01*
Y1179975D02*
Y1196363D01*
Y1179975D02*
X1412383Y1175228D01*
X1357500Y1180112D02*
X1362383Y1175228D01*
X1347500Y1180112D02*
X1352383Y1175228D01*
X1297500Y1196000D02*
X1348500Y1247000D01*
X1347121Y1250000D02*
X1363000D01*
X1347743Y1248500D02*
X1364000D01*
X1346500Y1251500D02*
X1362000D01*
X1334621Y1237500D02*
X1347121Y1250000D01*
X1316379Y1237500D02*
X1334621D01*
X1315000Y1236000D02*
X1335243D01*
X1317500Y1239000D02*
X1334000D01*
X1335243Y1236000D02*
X1347743Y1248500D01*
X1334000Y1239000D02*
X1346500Y1251500D01*
X1297500Y1180112D02*
X1302383Y1175228D01*
X1297500Y1180112D02*
Y1196000D01*
X1370229Y1218771D02*
Y1242229D01*
X1366500Y1242000D02*
X1368500Y1244000D01*
X1348500Y1247000D02*
X1366000D01*
X1368500Y1249500D01*
X1364000Y1248500D02*
X1368500Y1253000D01*
X1470935Y1262000D02*
X1474215Y1258720D01*
X1455500Y1262000D02*
X1470935D01*
X1452312Y1265188D02*
X1455500Y1262000D01*
X1474215Y1258720D02*
Y1258720D01*
X1485500Y1263500D02*
X1490260Y1268260D01*
X1456000Y1263500D02*
X1485500D01*
X1452826Y1266674D02*
X1456000Y1263500D01*
X1453292Y1253333D02*
X1466243Y1240382D01*
X1451535Y1249090D02*
X1462000Y1238625D01*
X1452706Y1251919D02*
X1464828Y1239796D01*
X1452120Y1250504D02*
X1463414Y1239211D01*
X1466243Y1230757D02*
Y1240382D01*
X1463414Y1229586D02*
Y1239211D01*
X1464828Y1230172D02*
Y1239796D01*
X1462000Y1229000D02*
Y1238625D01*
X1421000Y1247000D02*
X1427864D01*
X1420000Y1245500D02*
X1427243D01*
X1422000Y1248500D02*
X1428485D01*
X1406000Y1238000D02*
X1424121D01*
X1422500Y1250000D02*
X1429107D01*
X1397852Y1234000D02*
X1398352Y1234500D01*
X1397500Y1234000D02*
X1397852D01*
X1398352Y1234500D02*
X1423000D01*
X1395500Y1231500D02*
X1423000D01*
X1393000Y1234000D02*
X1395500Y1231500D01*
X1313833Y1233667D02*
X1314000Y1233500D01*
X1313833Y1233667D02*
Y1234667D01*
X1305000Y1246000D02*
Y1297500D01*
Y1246000D02*
X1315000Y1236000D01*
X1308000Y1248500D02*
Y1293148D01*
Y1248500D02*
X1317500Y1239000D01*
X1308500Y1293648D02*
Y1294000D01*
X1308000Y1293148D02*
X1308500Y1293648D01*
X1306500Y1247379D02*
X1316379Y1237500D01*
X1364000Y1272000D02*
X1366500Y1269500D01*
X1365000Y1254500D02*
Y1269000D01*
X1362000Y1251500D02*
X1365000Y1254500D01*
X1361500Y1272500D02*
X1365000Y1269000D01*
X1322500Y1292000D02*
X1324500D01*
X1323150Y1293850D02*
X1326150D01*
X1323000Y1300500D02*
X1328000Y1295500D01*
X1326150Y1293850D02*
X1328000Y1292000D01*
X1348500Y1269000D02*
Y1325000D01*
Y1269000D02*
X1355150Y1262350D01*
X1350000Y1270000D02*
X1356000Y1264000D01*
X1306500Y1295500D02*
X1308500Y1297500D01*
X1306500Y1247379D02*
Y1295500D01*
X1401265Y1276000D02*
X1422500D01*
X1389151Y1272349D02*
X1397614D01*
X1401265Y1276000D01*
X1398999Y1269499D02*
X1399500Y1270000D01*
X1398377Y1270999D02*
X1398879Y1271500D01*
X1486000D01*
X1399500Y1270000D02*
X1486621D01*
X1491621Y1275000D02*
X1493121D01*
X1486000Y1271500D02*
X1491000Y1276500D01*
X1492500D01*
X1486621Y1270000D02*
X1491621Y1275000D01*
X1496000Y1280000D02*
Y1291000D01*
X1493121Y1275000D02*
X1497500Y1279379D01*
X1492500Y1276500D02*
X1496000Y1280000D01*
X1382312Y1265188D02*
X1452312D01*
X1375000Y1272500D02*
X1382312Y1265188D01*
X1375500Y1274000D02*
X1382826Y1266674D01*
X1452826D01*
X1453327Y1268173D02*
X1456500Y1265000D01*
X1383449Y1268173D02*
X1453327D01*
X1376121Y1275500D02*
X1383449Y1268173D01*
X1376500Y1280500D02*
X1387501Y1269499D01*
X1398999D01*
X1378000Y1283500D02*
X1389151Y1272349D01*
X1377121Y1282000D02*
X1388123Y1270999D01*
X1398377D01*
X1389867Y1274000D02*
X1393000D01*
X1390717Y1275650D02*
X1394850D01*
X1396500Y1274000D01*
X1391367Y1277500D02*
X1393000D01*
X1363500Y1283500D02*
X1378000D01*
X1367643Y1280500D02*
X1376500D01*
X1366772Y1282000D02*
X1377121D01*
X1374500Y1275500D02*
X1376121D01*
X1372500Y1274000D02*
X1375500D01*
X1370500Y1272500D02*
X1375000D01*
X1364000Y1279228D02*
X1366772Y1282000D01*
X1401150Y1261650D02*
X1401500Y1262000D01*
X1394650Y1261650D02*
X1401150D01*
X1396500Y1256500D02*
X1401000D01*
X1396500Y1260000D02*
X1402000D01*
X1393000D02*
X1394650Y1261650D01*
X1392217Y1279150D02*
X1394850D01*
X1396500Y1277500D01*
X1364000Y1272000D02*
Y1279228D01*
X1365500Y1274000D02*
Y1278357D01*
X1367643Y1280500D01*
X1365500Y1274000D02*
X1368500Y1271000D01*
X1394650Y1244150D02*
X1397350D01*
X1384150Y1227350D02*
X1422372Y1189128D01*
X1384150Y1227350D02*
Y1242350D01*
X1393000Y1242500D02*
X1394650Y1244150D01*
X1361500Y1272500D02*
Y1278000D01*
X1368500Y1274500D02*
X1370500Y1272500D01*
X1359500D02*
X1363500Y1268500D01*
Y1255500D02*
Y1268500D01*
X1359500Y1272500D02*
Y1279500D01*
X1363500Y1283500D01*
X1368500Y1278000D02*
X1372500Y1274000D01*
X1372000Y1278000D02*
X1374500Y1275500D01*
X1361500Y1253500D02*
X1363500Y1255500D01*
X1358000Y1253500D02*
X1361500D01*
X1359780Y1255280D02*
X1361500Y1257000D01*
X1342500Y1265000D02*
X1352220Y1255280D01*
X1359780D01*
X1419500Y1286000D02*
X1426000Y1279500D01*
X1490260Y1268260D02*
X1492589D01*
X1456500Y1265000D02*
X1484829D01*
X1492589Y1272760D01*
X1353742Y1258758D02*
X1359758D01*
X1361500Y1260500D01*
X1354500Y1288500D02*
X1358000Y1285000D01*
Y1271000D02*
Y1285000D01*
X1345500Y1267000D02*
X1353742Y1258758D01*
X1351500Y1271000D02*
X1356850Y1265650D01*
X1344000Y1266000D02*
X1353000Y1257000D01*
Y1272500D02*
X1358000Y1267500D01*
X1347000Y1268000D02*
X1354500Y1260500D01*
X1356850Y1265650D02*
X1359650D01*
X1361500Y1267500D01*
X1356000Y1264000D02*
X1358000D01*
X1355150Y1262350D02*
X1359850D01*
X1354500Y1260500D02*
X1358000D01*
X1353000Y1257000D02*
X1358000D01*
X1359850Y1262350D02*
X1361500Y1264000D01*
X1421000Y1251500D02*
X1422500Y1250000D01*
X1418000Y1251500D02*
X1421000D01*
X1416150Y1249850D02*
X1420650D01*
X1414500Y1251500D02*
X1416150Y1249850D01*
X1420650D02*
X1422000Y1248500D01*
X1420000Y1248000D02*
X1421000Y1247000D01*
X1418000Y1248000D02*
X1420000D01*
X1414500D02*
X1416150Y1246350D01*
X1419150D01*
X1420000Y1245500D01*
X1418000Y1244500D02*
X1418352D01*
X1418852Y1244000D01*
X1414500Y1244500D02*
X1416500Y1242500D01*
X1398850Y1247650D02*
X1407000Y1239500D01*
X1399500Y1249500D02*
X1408000Y1241000D01*
X1397350Y1244150D02*
X1405000Y1236500D01*
X1398150Y1245850D02*
X1406000Y1238000D01*
X1396500Y1249500D02*
X1399500D01*
X1394650Y1247650D02*
X1398850D01*
X1393000Y1246000D02*
X1394650Y1247650D01*
X1396500Y1246000D02*
X1396650Y1245850D01*
X1398150D01*
X1386000Y1236200D02*
X1390558Y1240758D01*
X1394758D01*
X1396500Y1242500D01*
X1390000Y1230000D02*
Y1234500D01*
X1392000Y1236500D01*
X1394000D01*
X1388000Y1229000D02*
Y1235500D01*
X1377204Y1224296D02*
Y1242296D01*
X1375732Y1223268D02*
Y1240268D01*
X1380650Y1225850D02*
Y1242350D01*
X1382500Y1226500D02*
Y1240500D01*
X1379000Y1225000D02*
Y1240500D01*
X1388000Y1235500D02*
X1391500Y1239000D01*
X1393000D01*
X1394000Y1236500D02*
X1396500Y1239000D01*
X1382500Y1244000D02*
X1384150Y1242350D01*
X1375500Y1244000D02*
X1377204Y1242296D01*
X1379000Y1244000D02*
X1380650Y1242350D01*
X1375500Y1240500D02*
X1375732Y1240268D01*
X1361500Y1244000D02*
X1363390Y1242110D01*
X1354500Y1244000D02*
X1356229Y1242271D01*
X1358000Y1244000D02*
X1359650Y1242350D01*
D25*
X1291883Y1315228D02*
D03*
D94*
Y1305228D02*
D03*
Y1295228D02*
D03*
Y1285228D02*
D03*
D95*
X1532383Y1185228D02*
D03*
Y1343228D02*
D03*
X1332383Y1185228D02*
D03*
X1302383Y1333228D02*
D03*
D96*
X1532383Y1175228D02*
D03*
X1522383Y1185228D02*
D03*
Y1175228D02*
D03*
X1512383Y1185228D02*
D03*
Y1175228D02*
D03*
X1502383Y1185228D02*
D03*
Y1175228D02*
D03*
X1492383Y1185228D02*
D03*
Y1175228D02*
D03*
X1482383Y1185228D02*
D03*
Y1175228D02*
D03*
X1472383Y1185228D02*
D03*
Y1175228D02*
D03*
X1462383Y1185228D02*
D03*
Y1175228D02*
D03*
X1452383Y1185228D02*
D03*
Y1175228D02*
D03*
X1442383Y1185228D02*
D03*
Y1175228D02*
D03*
X1432383Y1185228D02*
D03*
Y1175228D02*
D03*
X1422383Y1185228D02*
D03*
Y1175228D02*
D03*
X1412383Y1185228D02*
D03*
Y1175228D02*
D03*
X1402383Y1185228D02*
D03*
Y1175228D02*
D03*
X1392383Y1185228D02*
D03*
Y1175228D02*
D03*
X1382383Y1185228D02*
D03*
Y1175228D02*
D03*
X1372383Y1185228D02*
D03*
Y1175228D02*
D03*
X1362383Y1185228D02*
D03*
Y1175228D02*
D03*
X1352383Y1185228D02*
D03*
Y1175228D02*
D03*
X1342383Y1185228D02*
D03*
Y1175228D02*
D03*
X1532383Y1333228D02*
D03*
X1522383Y1343228D02*
D03*
Y1333228D02*
D03*
X1512383Y1343228D02*
D03*
Y1333228D02*
D03*
X1502383Y1343228D02*
D03*
Y1333228D02*
D03*
X1492383Y1343228D02*
D03*
Y1333228D02*
D03*
X1482383Y1343228D02*
D03*
Y1333228D02*
D03*
X1472383Y1343228D02*
D03*
Y1333228D02*
D03*
X1462383Y1343228D02*
D03*
Y1333228D02*
D03*
X1452383Y1343228D02*
D03*
Y1333228D02*
D03*
X1442383Y1343228D02*
D03*
Y1333228D02*
D03*
X1432383Y1343228D02*
D03*
Y1333228D02*
D03*
X1422383Y1343228D02*
D03*
Y1333228D02*
D03*
X1412383Y1343228D02*
D03*
Y1333228D02*
D03*
X1402383Y1343228D02*
D03*
Y1333228D02*
D03*
X1392383Y1343228D02*
D03*
Y1333228D02*
D03*
X1382383Y1343228D02*
D03*
Y1333228D02*
D03*
X1372383Y1343228D02*
D03*
Y1333228D02*
D03*
X1362383Y1343228D02*
D03*
Y1333228D02*
D03*
X1352383Y1343228D02*
D03*
Y1333228D02*
D03*
X1342383Y1343228D02*
D03*
Y1333228D02*
D03*
X1302383Y1185228D02*
D03*
Y1175228D02*
D03*
X1312383D02*
D03*
Y1185228D02*
D03*
X1322383Y1175228D02*
D03*
Y1185228D02*
D03*
X1332383Y1175228D02*
D03*
Y1333228D02*
D03*
Y1343228D02*
D03*
X1322383D02*
D03*
Y1333228D02*
D03*
X1312383Y1343228D02*
D03*
Y1333228D02*
D03*
X1302383Y1343228D02*
D03*
D97*
X1539009Y1242369D02*
D03*
Y1219613D02*
D03*
X1539068Y1298836D02*
D03*
Y1276080D02*
D03*
D98*
X1553379Y1247999D02*
D03*
Y1213983D02*
D03*
X1553438Y1304466D02*
D03*
Y1270450D02*
D03*
D99*
X1536923Y1247999D02*
D03*
Y1213983D02*
D03*
X1536982Y1304466D02*
D03*
Y1270450D02*
D03*
D100*
X1438000Y1262500D02*
D03*
X1426518Y1258663D02*
D03*
X1430500Y1213500D02*
D03*
X1418934Y1258704D02*
D03*
X1437394Y1216036D02*
D03*
X1435500Y1262500D02*
D03*
X1510350Y1275260D02*
D03*
X1517202Y1295199D02*
D03*
X1502671Y1296782D02*
D03*
X1490230Y1284994D02*
D03*
X1517000Y1283000D02*
D03*
X1511905Y1293238D02*
D03*
X1507405D02*
D03*
X1518000Y1298500D02*
D03*
X1446383Y1276728D02*
D03*
X1482383D02*
D03*
X1458500Y1267000D02*
D03*
X1463000D02*
D03*
X1472000D02*
D03*
X1454000Y1258500D02*
D03*
X1467500D02*
D03*
X1474215Y1258720D02*
D03*
X1493500Y1265500D02*
D03*
Y1263500D02*
D03*
Y1261500D02*
D03*
X1500000Y1265000D02*
D03*
X1491991Y1256509D02*
D03*
X1493500Y1253500D02*
D03*
X1495991Y1253509D02*
D03*
X1498900Y1253400D02*
D03*
X1509000Y1259500D02*
D03*
X1512500Y1255000D02*
D03*
X1510760Y1257220D02*
D03*
X1509000Y1255000D02*
D03*
X1512520Y1259441D02*
D03*
X1278218Y1275180D02*
D03*
X1278500Y1262000D02*
D03*
X1298000Y1260000D02*
D03*
X1372000Y1253000D02*
D03*
X1401900Y1284000D02*
D03*
X1397800D02*
D03*
X1401900Y1281000D02*
D03*
X1474458Y1326042D02*
D03*
X1490458Y1325542D02*
D03*
X1411458Y1326542D02*
D03*
X1515557Y1249129D02*
D03*
X1516000Y1236500D02*
D03*
X1448000Y1194500D02*
D03*
X1406500Y1293000D02*
D03*
X1488500Y1198000D02*
D03*
X1306000Y1200000D02*
D03*
X1326500Y1326000D02*
D03*
X1395000Y1314000D02*
D03*
X1347000Y1232500D02*
D03*
X1553059Y1279967D02*
D03*
Y1289967D02*
D03*
Y1299967D02*
D03*
X1558059Y1294967D02*
D03*
Y1284967D02*
D03*
Y1274967D02*
D03*
X1558000Y1218500D02*
D03*
Y1228500D02*
D03*
Y1238500D02*
D03*
X1553000Y1243500D02*
D03*
Y1233500D02*
D03*
Y1223500D02*
D03*
X1548000Y1238500D02*
D03*
Y1228500D02*
D03*
Y1218500D02*
D03*
X1438500Y1311000D02*
D03*
X1458500D02*
D03*
X1468500D02*
D03*
X1488500D02*
D03*
X1440000Y1283000D02*
D03*
X1436000Y1282500D02*
D03*
Y1280000D02*
D03*
X1434000Y1282500D02*
D03*
Y1280000D02*
D03*
X1433000Y1276000D02*
D03*
X1435500D02*
D03*
X1511000Y1266000D02*
D03*
X1490000Y1231000D02*
D03*
X1499907Y1270569D02*
D03*
X1372000Y1212500D02*
D03*
X1369500D02*
D03*
X1368500Y1249500D02*
D03*
X1457500Y1287000D02*
D03*
X1460000D02*
D03*
X1539000Y1261000D02*
D03*
X1520000Y1265500D02*
D03*
X1450158Y1246496D02*
D03*
X1450473Y1232133D02*
D03*
X1452500Y1241500D02*
D03*
X1448000D02*
D03*
X1452500Y1237000D02*
D03*
X1448000D02*
D03*
X1457000Y1239500D02*
D03*
Y1234000D02*
D03*
X1423000Y1231500D02*
D03*
Y1234500D02*
D03*
X1450000Y1258500D02*
D03*
X1314000Y1233500D02*
D03*
X1278500Y1256500D02*
D03*
Y1243000D02*
D03*
Y1237500D02*
D03*
X1382000Y1284000D02*
D03*
X1386000Y1258000D02*
D03*
X1372000Y1260500D02*
D03*
Y1267500D02*
D03*
X1386000Y1251000D02*
D03*
X1379000D02*
D03*
X1406000Y1227500D02*
D03*
Y1225000D02*
D03*
X1417000Y1224500D02*
D03*
Y1222000D02*
D03*
X1537000Y1266500D02*
D03*
X1534500D02*
D03*
X1530000Y1307000D02*
D03*
X1525000Y1248500D02*
D03*
Y1246000D02*
D03*
Y1243500D02*
D03*
X1527500Y1248500D02*
D03*
X1530000D02*
D03*
X1527500Y1246000D02*
D03*
Y1215500D02*
D03*
X1525000Y1218000D02*
D03*
Y1215500D02*
D03*
X1530000Y1213000D02*
D03*
X1527500D02*
D03*
X1525000D02*
D03*
X1488000Y1224500D02*
D03*
X1501000Y1222000D02*
D03*
X1473000Y1245000D02*
D03*
X1464000Y1250500D02*
D03*
X1308500Y1294000D02*
D03*
X1324500Y1292000D02*
D03*
X1328000D02*
D03*
X1324500Y1295500D02*
D03*
X1328000D02*
D03*
X1299000Y1217000D02*
D03*
Y1203500D02*
D03*
X1284272Y1231228D02*
D03*
X1284500Y1249500D02*
D03*
X1427000Y1299000D02*
D03*
X1422000D02*
D03*
X1498500Y1306000D02*
D03*
X1488500D02*
D03*
X1468500D02*
D03*
X1458500D02*
D03*
X1438500D02*
D03*
X1513000Y1231500D02*
D03*
Y1236500D02*
D03*
X1506500Y1231500D02*
D03*
Y1236500D02*
D03*
X1521500Y1304500D02*
D03*
X1526500D02*
D03*
X1508500Y1306000D02*
D03*
Y1311000D02*
D03*
X1478500Y1306000D02*
D03*
Y1311000D02*
D03*
X1448500Y1306000D02*
D03*
Y1311000D02*
D03*
X1422000Y1287000D02*
D03*
X1427000D02*
D03*
X1425000Y1256000D02*
D03*
X1335043Y1223883D02*
D03*
X1343957Y1224117D02*
D03*
X1345000Y1213500D02*
D03*
X1381000Y1302500D02*
D03*
X1308500Y1297500D02*
D03*
X1305000D02*
D03*
X1368500Y1253000D02*
D03*
X1422500Y1276000D02*
D03*
X1393000Y1260000D02*
D03*
X1396500Y1256500D02*
D03*
X1381000Y1294000D02*
D03*
X1368500Y1271000D02*
D03*
X1361500Y1278000D02*
D03*
X1368500D02*
D03*
Y1274500D02*
D03*
X1372000Y1278000D02*
D03*
X1403096Y1278096D02*
D03*
X1358000Y1253500D02*
D03*
X1415500Y1288500D02*
D03*
X1412750Y1282080D02*
D03*
X1426000Y1276000D02*
D03*
Y1279500D02*
D03*
X1393000Y1281000D02*
D03*
X1358000Y1271000D02*
D03*
X1355000Y1284000D02*
D03*
Y1280500D02*
D03*
X1335360Y1281860D02*
D03*
X1361500Y1267500D02*
D03*
X1358000D02*
D03*
X1361500Y1264000D02*
D03*
Y1260500D02*
D03*
Y1257000D02*
D03*
X1358000Y1264000D02*
D03*
Y1260500D02*
D03*
Y1257000D02*
D03*
X1321500Y1283000D02*
D03*
X1325000Y1272000D02*
D03*
X1319558Y1271670D02*
D03*
X1330942Y1281942D02*
D03*
X1494500Y1219000D02*
D03*
X1396500Y1253000D02*
D03*
X1412936Y1256650D02*
D03*
X1396500Y1249500D02*
D03*
X1402319Y1224499D02*
D03*
X1373974Y1237026D02*
D03*
X1396500Y1277500D02*
D03*
X1393000D02*
D03*
Y1274000D02*
D03*
X1396500D02*
D03*
Y1263500D02*
D03*
Y1260000D02*
D03*
X1418000Y1248000D02*
D03*
X1414500D02*
D03*
X1418000Y1244500D02*
D03*
X1414500D02*
D03*
Y1251500D02*
D03*
X1418000D02*
D03*
X1396500Y1246000D02*
D03*
X1393000D02*
D03*
Y1239000D02*
D03*
X1396500D02*
D03*
X1393000Y1242500D02*
D03*
X1396500D02*
D03*
X1399000Y1224000D02*
D03*
X1374082Y1233988D02*
D03*
X1382500Y1240500D02*
D03*
Y1244000D02*
D03*
X1379000Y1240500D02*
D03*
Y1244000D02*
D03*
X1375500Y1240500D02*
D03*
Y1244000D02*
D03*
X1382497Y1213726D02*
D03*
X1368500Y1244000D02*
D03*
X1372000D02*
D03*
Y1240500D02*
D03*
X1365000Y1244000D02*
D03*
X1361500D02*
D03*
Y1240500D02*
D03*
X1342000Y1235800D02*
D03*
Y1233500D02*
D03*
X1358000Y1240500D02*
D03*
Y1244000D02*
D03*
X1354500D02*
D03*
Y1240500D02*
D03*
X1397500Y1234000D02*
D03*
X1393000D02*
D03*
X1334860Y1216142D02*
D03*
Y1219642D02*
D03*
X1337505Y1268283D02*
D03*
X1338851Y1276228D02*
D03*
X1339089Y1264728D02*
D03*
X1329500Y1244000D02*
D03*
Y1260500D02*
D03*
X1323000D02*
D03*
Y1244000D02*
D03*
X1319500Y1252081D02*
D03*
X1335500Y1260500D02*
D03*
Y1244000D02*
D03*
X1541500Y1237500D02*
D03*
Y1235500D02*
D03*
Y1233500D02*
D03*
Y1227500D02*
D03*
Y1225500D02*
D03*
Y1223500D02*
D03*
X1508000Y1284000D02*
D03*
X1454000Y1285000D02*
D03*
X1451500D02*
D03*
X1454000Y1282000D02*
D03*
X1437000Y1301000D02*
D03*
Y1297000D02*
D03*
Y1299000D02*
D03*
X1432000Y1280000D02*
D03*
Y1282500D02*
D03*
X1430000Y1280000D02*
D03*
Y1282500D02*
D03*
X1455500Y1299000D02*
D03*
Y1296500D02*
D03*
X1462500Y1280000D02*
D03*
X1465000D02*
D03*
X1472500D02*
D03*
Y1277500D02*
D03*
Y1275000D02*
D03*
X1501000Y1279500D02*
D03*
X1502865Y1289697D02*
D03*
X1472000Y1295000D02*
D03*
Y1292500D02*
D03*
Y1290000D02*
D03*
Y1287500D02*
D03*
X1474500Y1285000D02*
D03*
X1472000D02*
D03*
X1489000Y1282500D02*
D03*
X1491500D02*
D03*
X1492000Y1279500D02*
D03*
X1519991Y1283009D02*
D03*
Y1280509D02*
D03*
X1530491Y1265509D02*
D03*
X1519491Y1270509D02*
D03*
X1526500Y1279500D02*
D03*
X1519448Y1274003D02*
D03*
X1500991Y1282009D02*
D03*
X1484991Y1256509D02*
D03*
X1482491D02*
D03*
X1479991D02*
D03*
X1492589Y1272760D02*
D03*
Y1268260D02*
D03*
X1538500Y1292500D02*
D03*
X1528500Y1293500D02*
D03*
X1526387Y1290736D02*
D03*
X1476500Y1245000D02*
D03*
X1488000Y1244000D02*
D03*
X1470500Y1244500D02*
D03*
Y1242000D02*
D03*
X1484500Y1244000D02*
D03*
X1457000Y1252500D02*
D03*
X1469000Y1236500D02*
D03*
Y1234000D02*
D03*
Y1231000D02*
D03*
X1520973Y1234728D02*
D03*
X1520950Y1221251D02*
D03*
X1501055Y1245555D02*
D03*
X1506118Y1243264D02*
D03*
X1514602Y1223750D02*
D03*
D101*
X1282194Y1181925D02*
D03*
Y1336532D02*
D03*
X1551879D02*
D03*
Y1181925D02*
D03*
D110*
X1474383Y1229728D02*
D03*
X1484383D02*
D03*
Y1239728D02*
D03*
X1474383D02*
D03*
M02*
